<?xml version="1.0" encoding="UTF-8"?>
<!DOCTYPE svg PUBLIC "-//W3C//DTD SVG 1.1//EN" "http://www.w3.org/Graphics/SVG/1.1/DTD/svg11.dtd">
<!-- Creator: CorelDRAW -->
<svg xmlns="http://www.w3.org/2000/svg" xml:space="preserve" width="44px" height="41px" version="1.1" style="shape-rendering:geometricPrecision; text-rendering:geometricPrecision; image-rendering:optimizeQuality; fill-rule:evenodd; clip-rule:evenodd"
viewBox="0 0 38.262 35.221"
 xmlns:xlink="http://www.w3.org/1999/xlink"
 xmlns:xodm="http://www.corel.com/coreldraw/odm/2003">
 <defs>
  <style type="text/css">
   <![CDATA[
    .str9 {stroke:#020202;stroke-width:0.083;stroke-miterlimit:22.9256}
    .str31 {stroke:#020202;stroke-width:0.083;stroke-miterlimit:22.9256}
    .str36 {stroke:#020202;stroke-width:0.083;stroke-miterlimit:22.9256}
    .str43 {stroke:#020202;stroke-width:0.083;stroke-miterlimit:22.9256}
    .str11 {stroke:#020202;stroke-width:0.083;stroke-miterlimit:22.9256}
    .str1 {stroke:#020202;stroke-width:0.083;stroke-miterlimit:22.9256}
    .str19 {stroke:#020202;stroke-width:0.083;stroke-miterlimit:22.9256}
    .str10 {stroke:#020202;stroke-width:0.083;stroke-miterlimit:22.9256}
    .str8 {stroke:#020202;stroke-width:0.083;stroke-miterlimit:22.9256}
    .str42 {stroke:#020202;stroke-width:0.083;stroke-linejoin:round;stroke-miterlimit:22.9256}
    .str26 {stroke:#020202;stroke-width:0.083;stroke-linecap:round;stroke-miterlimit:22.9256}
    .str25 {stroke:#020202;stroke-width:0.083;stroke-linecap:round;stroke-miterlimit:22.9256}
    .str27 {stroke:#020202;stroke-width:0.083;stroke-linecap:round;stroke-miterlimit:22.9256}
    .str24 {stroke:#020202;stroke-width:0.083;stroke-linecap:round;stroke-miterlimit:22.9256}
    .str16 {stroke:#020202;stroke-width:0.083;stroke-linecap:round;stroke-miterlimit:22.9256}
    .str23 {stroke:#020202;stroke-width:0.083;stroke-linecap:round;stroke-miterlimit:22.9256}
    .str45 {stroke:#020202;stroke-width:0.083;stroke-linecap:round;stroke-miterlimit:22.9256}
    .str22 {stroke:#020202;stroke-width:0.083;stroke-linecap:round;stroke-miterlimit:22.9256}
    .str20 {stroke:#020202;stroke-width:0.083;stroke-linecap:round;stroke-miterlimit:22.9256}
    .str6 {stroke:#020202;stroke-width:0.083;stroke-linecap:round;stroke-miterlimit:22.9256}
    .str46 {stroke:#020202;stroke-width:0.083;stroke-linecap:round;stroke-miterlimit:22.9256}
    .str5 {stroke:#020202;stroke-width:0.083;stroke-linecap:round;stroke-miterlimit:22.9256}
    .str30 {stroke:#020202;stroke-width:0.083;stroke-linecap:round;stroke-miterlimit:22.9256}
    .str47 {stroke:#020202;stroke-width:0.083;stroke-linecap:round;stroke-miterlimit:22.9256}
    .str32 {stroke:#020202;stroke-width:0.083;stroke-linecap:round;stroke-miterlimit:22.9256}
    .str29 {stroke:#020202;stroke-width:0.083;stroke-linecap:round;stroke-miterlimit:22.9256}
    .str14 {stroke:#020202;stroke-width:0.083;stroke-linecap:round;stroke-miterlimit:22.9256}
    .str21 {stroke:#020202;stroke-width:0.083;stroke-linecap:round;stroke-miterlimit:22.9256}
    .str28 {stroke:#020202;stroke-width:0.083;stroke-linecap:round;stroke-miterlimit:22.9256}
    .str4 {stroke:#020202;stroke-width:0.083;stroke-linecap:round;stroke-miterlimit:22.9256}
    .str2 {stroke:#020202;stroke-width:0.083;stroke-linecap:round;stroke-miterlimit:22.9256}
    .str37 {stroke:#020202;stroke-width:0.083;stroke-linecap:round;stroke-miterlimit:22.9256}
    .str39 {stroke:#020202;stroke-width:0.083;stroke-linecap:round;stroke-miterlimit:22.9256}
    .str34 {stroke:#020202;stroke-width:0.083;stroke-linecap:round;stroke-miterlimit:22.9256}
    .str7 {stroke:#020202;stroke-width:0.083;stroke-linecap:round;stroke-miterlimit:22.9256}
    .str35 {stroke:#020202;stroke-width:0.083;stroke-linecap:round;stroke-miterlimit:22.9256}
    .str40 {stroke:#020202;stroke-width:0.083;stroke-linecap:round;stroke-miterlimit:22.9256}
    .str38 {stroke:#020202;stroke-width:0.083;stroke-linecap:round;stroke-miterlimit:22.9256}
    .str33 {stroke:#020202;stroke-width:0.083;stroke-linecap:round;stroke-miterlimit:22.9256}
    .str3 {stroke:#020202;stroke-width:0.083;stroke-linecap:round;stroke-miterlimit:22.9256}
    .str17 {stroke:#020202;stroke-width:0.083;stroke-linecap:round;stroke-miterlimit:22.9256}
    .str49 {stroke:#020202;stroke-width:0.083;stroke-linecap:round;stroke-miterlimit:22.9256}
    .str15 {stroke:#020202;stroke-width:0.083;stroke-linecap:round;stroke-miterlimit:22.9256}
    .str0 {stroke:#020202;stroke-width:0.083;stroke-linecap:round;stroke-linejoin:round;stroke-miterlimit:22.9256}
    .str12 {stroke:#020202;stroke-width:0.083;stroke-linecap:round;stroke-linejoin:round;stroke-miterlimit:22.9256}
    .str44 {stroke:#020202;stroke-width:0.083;stroke-linecap:round;stroke-linejoin:round;stroke-miterlimit:22.9256}
    .str41 {stroke:#020202;stroke-width:0.083;stroke-linecap:round;stroke-linejoin:round;stroke-miterlimit:22.9256}
    .str18 {stroke:#020202;stroke-width:0.083;stroke-linecap:round;stroke-linejoin:round;stroke-miterlimit:22.9256}
    .str48 {stroke:#020202;stroke-width:0.083;stroke-linecap:round;stroke-linejoin:bevel;stroke-miterlimit:22.9256}
    .str13 {stroke:#020202;stroke-width:0.083;stroke-linecap:round;stroke-linejoin:bevel;stroke-miterlimit:22.9256}
    .fil5 {fill:none}
    .fil4 {fill:#FEFEFE}
    .fil3 {fill:#F9F7E2}
    .fil1 {fill:#17AB55}
    .fil2 {fill:#009933}
    .fil7 {fill:#009933}
    .fil6 {fill:#FFFFCC}
    .fil8 {fill:#FFFFCC}
    .fil0 {fill:#020202;fill-rule:nonzero}
   ]]>
  </style>
 </defs>
 <g id="Capa_x0020_1">
  <metadata id="CorelCorpID_0Corel-Layer"/>
  <g id="_2802912091840">
   <path class="fil0" d="M15.013 21.827c-1.034,0 -2.096,-0.153 -3.186,-0.457 -1.089,-0.305 -2.119,-0.753 -3.088,-1.344 -0.97,-0.591 -1.805,-1.293 -2.507,-2.105 -1.477,1.477 -2.88,2.216 -4.21,2.216 -0.683,0 -1.191,-0.199 -1.523,-0.596 -0.333,-0.397 -0.499,-0.909 -0.499,-1.537 0,-1.163 0.443,-2.53 1.33,-4.099 0.83,-1.478 1.495,-2.253 1.994,-2.327 0.369,0 0.748,0.379 1.135,1.136l1.745 3.379c0.979,-1.311 3.5,-4.732 4.571,-6.246 -2.711,-0.926 -4.525,-2.287 -6.101,-4.104 -0.78,-0.265 1.719,-0.137 2.253,0.293 0.189,0.592 2.088,1.856 4.836,2.352 0.314,-0.462 -1.357,2.003 -0.988,1.459 0.369,-0.545 0.766,-1.131 1.191,-1.759 3.675,-5.392 6.73,-8.088 9.168,-8.088 1.717,0 2.576,0.803 2.576,2.41 0,1.459 -0.473,3.372 -2.133,5.152 -1.912,2.05 -4.753,2.798 -7.647,2.624 -0.25,-0.015 -1.263,-0.03 -1.466,-0.104 -0.48,0.628 -2.862,3.767 -3.49,4.543 -0.627,0.775 -1.32,1.634 -2.077,2.576 0.332,0.461 0.808,0.923 1.426,1.385 0.619,0.461 1.316,0.872 2.092,1.232 0.775,0.36 1.542,0.651 2.299,0.873 0.757,0.222 1.44,0.332 2.05,0.332 0.701,0 1.347,-0.078 1.938,-0.235 0.591,-0.157 1.071,-0.406 1.441,-0.748 0.369,-0.342 0.553,-0.789 0.553,-1.344 0,-0.073 0,-0.147 0,-0.221 0,-0.074 -0.009,-0.148 -0.027,-0.221 0,-0.037 -0.005,-0.065 -0.014,-0.084 -0.009,-0.018 -0.014,-0.037 -0.014,-0.055 0,-0.185 0.055,-0.277 0.166,-0.277 0.185,0 0.333,0.143 0.444,0.429 0.11,0.287 0.166,0.513 0.166,0.679 0,0.572 -0.222,1.075 -0.665,1.51 -0.443,0.433 -1.002,0.77 -1.676,1.01 -0.674,0.241 -1.362,0.361 -2.063,0.361zm0.073 -12.958c1.172,0 3.149,-0.479 4.135,-0.966 1.558,-0.77 3.547,-4.228 3.547,-5.937 0,-0.516 -0.147,-0.895 -0.443,-1.135 -0.296,-0.24 -0.655,-0.36 -1.08,-0.36 -0.924,0 -2.068,0.775 -3.435,2.326 -0.424,0.499 -0.983,1.215 -1.675,2.147 -0.693,0.933 -1.73,2.398 -2.672,3.765 -0.369,0.535 -0.555,0.783 -0.999,1.373 -0.443,0.591 1.479,-2.001 0.999,-1.373 0.259,0.055 1.346,0.16 1.623,0.16zm-13.009 10.52c0.351,0 0.744,-0.125 1.177,-0.374 0.435,-0.249 0.855,-0.558 1.261,-0.928 0.406,-0.369 0.739,-0.729 0.997,-1.08 -0.258,-0.369 -0.535,-0.813 -0.831,-1.329 -0.295,-0.518 -0.618,-1.118 -0.97,-1.801 -0.424,-0.886 -0.747,-1.283 -0.969,-1.191 -0.332,0.055 -0.692,0.646 -1.08,1.773 -0.388,1.126 -0.582,2.179 -0.582,3.157 0,1.182 0.333,1.773 0.997,1.773z"/>
   <g>
    <path class="fil0 str0" d="M12.219 35.179c-1.532,0 -2.76,-0.392 -3.684,-1.177 -0.923,-0.785 -1.385,-1.86 -1.385,-3.227 0,-0.923 0.204,-1.763 0.61,-2.52 0.517,-1.016 1.219,-1.944 2.105,-2.784 0.886,-0.84 1.851,-1.519 2.894,-2.036 1.044,-0.517 2.055,-0.775 3.033,-0.775 1.256,0 2.239,0.295 2.95,0.886 0.711,0.591 1.067,1.366 1.067,2.327 0,0.517 -0.107,1.015 -0.319,1.495 -0.212,0.48 -0.475,0.887 -0.789,1.219 -0.462,0.517 -0.831,0.776 -1.108,0.776 -0.074,0 -0.111,-0.037 -0.111,-0.111 0,-0.055 0.028,-0.139 0.083,-0.249 0.665,-0.979 0.997,-1.921 0.997,-2.826 0,-0.812 -0.258,-1.486 -0.775,-2.022 -0.517,-0.535 -1.21,-0.803 -2.078,-0.803 -0.831,0 -1.662,0.245 -2.493,0.734 -0.831,0.489 -1.592,1.127 -2.285,1.911 -0.692,0.785 -1.26,1.63 -1.703,2.535 -0.462,0.904 -0.693,1.782 -0.693,2.631 0,1.126 0.365,1.981 1.095,2.562 0.729,0.582 1.684,0.873 2.866,0.873 4.709,0 9.187,-2.69 14.331,-10.9 -0.445,-1.315 -1.103,-2.54 -1.804,-3.746 0.049,-0.025 0.082,-0.057 0.102,-0.094 0.025,-0.045 0.031,-0.099 0.025,-0.159 0.776,1.207 1.387,2.434 1.945,3.751 0.008,-0.002 0.017,-0.005 0.026,-0.007 0.208,-0.469 0.087,-0.923 0.214,-1.106 0.319,-0.459 0.42,-1.186 0.543,-1.337 0.468,-0.577 0.937,-2.026 0.868,-2.234 -0.002,-0.005 -0.003,-0.009 -0.004,-0.014 0.111,-0.029 0.217,-0.069 0.317,-0.12 0.014,0.001 0.026,0.003 0.034,0.005 0.008,0.001 0.013,0.002 0.013,0.002 -0.259,2.029 -0.768,2.161 -0.857,2.518 -0.192,0.771 -0.616,1.92 -0.743,2.536 0.009,0.054 0.012,0.116 0.008,0.187 -0.689,1.671 -1.257,2.282 -2.359,3.724 -1.155,1.509 -2.595,2.719 -4.017,3.864 -1.421,1.144 -2.89,2.05 -4.404,2.714 -1.514,0.665 -3.019,0.997 -4.515,0.997z"/>
    <path class="fil1 str1" d="M25.38 15.761c-0.631,0.073 -1.095,0.593 -1.381,1.584 0,0 0,0 0,0 0.157,0.366 0.293,0.821 0.402,1.385l0.179 0.236c0.011,-0.249 0.033,-0.486 0.063,-0.708 0.04,-0.3 0.096,-0.573 0.165,-0.817 0.137,-0.487 0.326,-0.856 0.545,-1.084 -0.078,-0.111 -0.114,-0.24 -0.087,-0.393 0.008,-0.042 0.047,-0.114 0.114,-0.203z"/>
    <path class="fil1 str1" d="M25.353 16.357c-0.219,0.228 -0.408,0.597 -0.545,1.084 -0.006,0.022 -0.012,0.044 -0.018,0.066 -0.065,0.246 -0.112,0.502 -0.146,0.752 -0.032,0.234 -0.052,0.463 -0.062,0.67 -0.001,0.013 -0.002,0.025 -0.002,0.037 -0.005,0.105 -0.009,0.212 -0.01,0.321 0.054,0.045 0.126,0.096 0.202,0.146 0.395,-0.501 0.788,-1.005 1.015,-1.589 0.152,-0.388 0.185,-0.746 0.139,-1.068 -0.231,-0.111 -0.452,-0.243 -0.573,-0.419z"/>
    <path class="fil2 str1" d="M23.999 17.345c-0.842,-1.967 -2.269,-1.357 -3.189,-1.124 -0.091,2.066 3.37,2.909 3.449,3.02 0.287,0.401 0.437,0.5 0.764,0.711 0.002,-0.002 0.005,-0.004 0.008,-0.006 0.044,-0.032 0.075,-0.077 0.094,-0.131 0.013,-0.035 0.02,-0.074 0.025,-0.116 0.011,-0.021 -0.193,-0.142 -0.378,-0.266 -0.076,-0.05 -0.148,-0.101 -0.202,-0.146 -0.052,-0.043 -0.087,-0.081 -0.091,-0.108 -0.024,-0.157 -0.05,-0.307 -0.078,-0.449 -0.109,-0.564 -0.245,-1.019 -0.402,-1.385l0 0z"/>
    <path class="fil1 str1" d="M26.482 11.81c-0.233,-0.249 -0.443,-0.521 -0.622,-0.81 -0.202,-0.328 -0.365,-0.679 -0.479,-1.04 -0.006,0.006 -0.011,0.011 -0.015,0.019 -0.256,0.564 -0.398,1.367 -0.248,1.727 0.176,0.422 0.809,0.777 1.478,0.987 -0.008,-0.269 0.046,-0.476 0.174,-0.537 0.005,-0.002 0.01,-0.004 0.014,-0.006 0.01,-0.006 0.02,-0.012 0.03,-0.016 -0.116,-0.103 -0.226,-0.211 -0.332,-0.324z"/>
    <path class="fil1 str1" d="M27.216 11.47c-0.342,-0.999 -1.658,-1.644 -1.835,-1.51 0.114,0.361 0.277,0.712 0.479,1.04 0.179,0.289 0.389,0.561 0.622,0.81 0.106,0.113 0.216,0.221 0.332,0.324 0.095,-0.046 0.218,-0.044 0.363,0.001 0.07,0.021 0.146,0.052 0.226,0.093 0.005,0.003 0.01,0.006 0.016,0.009 -0.037,-0.307 -0.147,-0.604 -0.203,-0.767z"/>
    <path class="fil2 str1" d="M34.714 10.049c-0.718,-0.001 -1.582,1.032 -2.445,2.601 0.001,0 0.002,0.001 0.003,0.001 0.001,0 0.002,0.001 0.003,0.001 0.001,0 0.002,0.001 0.002,0.001l0.001 0 0.003 0.002 0.003 0.001 0.002 0.001 0.001 0c0,0 0,0 0,0.001l0.003 0.001 0.002 0.001c0,0 0,0 0,0 0.001,0 0.002,0.001 0.002,0.001l0.001 0 0.002 0.001 0.001 0.001 0.003 0.001 0.002 0.001c0,0 0.001,0.001 0.001,0.001 0,0 0.001,0 0.002,0.001 0.001,0 0.001,0 0.002,0.001 0,0 0.001,0 0.001,0 0.001,0.001 0.002,0.001 0.003,0.002 0,0 0.001,0 0.001,0.001l0.002 0c0,0.001 0.001,0.001 0.002,0.002l0 0 0.002 0.001c0,0 0.001,0 0.001,0.001 0.001,0 0.001,0 0.001,0l0.001 0.001 0.002 0.001c0,0 0.001,0 0.001,0.001l0.003 0.001c0,0.001 0,0.001 0.001,0.001 0,0 0.001,0.001 0.002,0.001l0.002 0.002 0.001 0 0.002 0.001c0.001,0.001 0.002,0.001 0.002,0.002 0.001,0 0.001,0 0.001,0 0,0.001 0.001,0.001 0.002,0.002l0.002 0.001 0.001 0.001 0.002 0.001 0.003 0.002c0,0.001 0.001,0.001 0.002,0.002 0.001,0 0.002,0.001 0.002,0.002 0.001,0 0.002,0.001 0.003,0.001l0.002 0.002 0.002 0.002 0.003 0.002c0.001,0 0.002,0.001 0.002,0.002l0.001 0 0.002 0.002 0.001 0.001c0,0 0.001,0 0.001,0.001 0.001,0 0.001,0.001 0.002,0.001 0,0 0,0.001 0.001,0.001 0,0 0.001,0.001 0.002,0.002 0,0 0.001,0.001 0.001,0.001l0.001 0.001c0.001,0 0.001,0.001 0.002,0.002 0.001,0 0.001,0.001 0.002,0.001l0.001 0.001 0.002 0.002 0.001 0.001 0.001 0.001c0.001,0 0.002,0.001 0.002,0.002 0.001,0 0.001,0.001 0.002,0.001 0,0 0,0.001 0.001,0.001 0,0.001 0.001,0.002 0.002,0.002 0,0.001 0,0.001 0.001,0.001 0,0.001 0.001,0.001 0.001,0.001 0.001,0.001 0.001,0.002 0.002,0.003 0,0 0.001,0 0.001,0.001 0.001,0 0.001,0 0.001,0.001 0.001,0 0.002,0.001 0.002,0.002 0.001,0 0.001,0 0.001,0.001 0.001,0 0.001,0.001 0.002,0.001 0,0.001 0.001,0.002 0.002,0.002 0,0.001 0,0.001 0.001,0.001 0,0.001 0.001,0.001 0.001,0.002 0.001,0 0.001,0.001 0.002,0.002 0,0 0,0 0,0.001 0.001,0 0.001,0.001 0.002,0.001 0.001,0.001 0.001,0.002 0.002,0.003 0,0 0,0 0,0 0.001,0.001 0.002,0.001 0.002,0.002 0.001,0 0.001,0.001 0.002,0.002 0,0 0,0 0,0 0.001,0.001 0.002,0.002 0.002,0.002 0,0.001 0.001,0.001 0.001,0.001 0,0.001 0.001,0.001 0.001,0.002 0.001,0.001 0.002,0.001 0.002,0.002 0.001,0.001 0.002,0.002 0.002,0.003 0.388,-0.304 1.117,-0.106 1.675,-0.16 1.972,-0.088 2.721,-1.422 2.648,-1.633 -0.073,-0.212 -1.199,-0.923 -2.035,-0.925z"/>
    <path class="fil1 str1" d="M30.929 9.736c0.637,-4.196 -1.56,-3.815 -2.761,-3.846 -0.013,0 -0.026,0 -0.04,-0.001 -0.534,2.293 2.409,3.494 2.49,3.592 0.271,0.329 0.258,0.673 0.479,0.957 0.034,-0.077 0.068,-0.154 0.101,-0.23 -0.108,-0.102 -0.287,-0.359 -0.269,-0.472z"/>
    <path class="fil2 str1" d="M37.522 7.814c-0.362,-0.418 -0.761,-0.738 -1.183,-0.935 -0.05,-0.024 -0.1,-0.046 -0.15,-0.066 -0.001,0 -0.001,0 -0.002,0 -1.29,-0.509 -2.774,0.13 -4.09,2.619 -0.05,0.094 -0.115,0.053 -0.345,0.202l-0.002 0.004 -0.239 0.525c-0.001,0 -0.001,0.001 -0.002,0.002 0,0.001 0,0.002 -0.001,0.002 0.241,-0.231 0.492,-0.643 0.797,-0.655 2.04,-0.078 2.855,0.621 5.217,-1.698z"/>
    <path class="fil3 str1" d="M29.324 15.897l0.005 -0.002c-0.002,0 -0.003,0.001 -0.005,0.002zm0.318 -0.522c-0.438,0.013 -0.745,-0.149 -1.059,-0.336 0.314,0.187 0.621,0.349 1.059,0.336zm-3.105 0.784c0.105,0.143 0.434,0.253 0.71,0.247 0.401,-0.234 1.037,-0.488 1.883,-0.439l0.004 0.026 0.006 -0.003c0.002,-0.001 0.004,-0.002 0.006,-0.004 0.001,0 0.002,0 0.002,-0.001 0.001,-0.001 0.002,-0.001 0.004,-0.002 0.001,-0.001 0.003,-0.002 0.005,-0.003 0.002,-0.001 0.004,-0.003 0.006,-0.004 0.002,-0.001 0.004,-0.002 0.006,-0.003 0.002,-0.001 0.004,-0.003 0.006,-0.004 0.002,-0.001 0.004,-0.002 0.006,-0.003 0,0 0,0 0,-0.001 0.002,-0.001 0.004,-0.002 0.006,-0.003 0.002,0 0.004,-0.002 0.006,-0.003 0,0 0.001,0 0.001,0 0.002,-0.001 0.003,-0.002 0.005,-0.003 0.002,-0.001 0.004,-0.002 0.006,-0.003 0.002,-0.001 0.004,-0.002 0.006,-0.004 0,0 0.001,0 0.001,0 0.002,-0.001 0.004,-0.002 0.005,-0.003 0.002,-0.001 0.004,-0.002 0.007,-0.003 0.001,-0.001 0.003,-0.001 0.004,-0.002 0.001,0 0.001,-0.001 0.002,-0.001 0.002,-0.001 0.004,-0.002 0.006,-0.003 0.002,-0.001 0.004,-0.002 0.007,-0.003 0,-0.001 0.001,-0.001 0.001,-0.001 0.002,-0.001 0.004,-0.002 0.005,-0.002 0.002,-0.002 0.005,-0.003 0.006,-0.004 0.002,0 0.004,-0.001 0.006,-0.002l0.001 0 0.007 -0.003c0.002,-0.002 0.004,-0.003 0.006,-0.004l0.003 -0.001 0.004 -0.002 0.007 -0.003c0.001,-0.001 0.004,-0.002 0.006,-0.003 0.001,0 0.003,-0.001 0.004,-0.001l0.003 -0.001 0.003 -0.002c0.001,0 0.002,-0.001 0.004,-0.001 0.001,-0.001 0.002,-0.001 0.003,-0.002 0.003,-0.001 0.006,-0.003 0.009,-0.004l0.001 0 0.002 -0.001c0.002,-0.001 0.003,-0.002 0.005,-0.002 0,-0.001 0.001,-0.001 0.001,-0.001 0.002,-0.001 0.004,-0.001 0.006,-0.002 0.002,-0.001 0.005,-0.002 0.007,-0.003 0.001,-0.001 0.003,-0.001 0.004,-0.002 0.001,0 0.002,-0.001 0.003,-0.001 0.002,-0.001 0.005,-0.002 0.007,-0.003 0.002,-0.001 0.004,-0.002 0.007,-0.003 0,0 0.001,0 0.001,-0.001 0.002,0 0.004,-0.001 0.006,-0.002 0.076,-0.032 0.156,-0.062 0.235,-0.096 0.047,-0.021 0.094,-0.042 0.14,-0.065 0.044,-0.03 0.088,-0.06 0.13,-0.091 0.048,-0.036 0.096,-0.073 0.141,-0.111 -0.088,-0.016 -0.174,-0.044 -0.256,-0.08 -0.052,-0.019 -0.097,-0.04 -0.119,-0.059 -0.438,0.013 -0.745,-0.149 -1.059,-0.336 -1.164,0.171 -2.388,0.655 -2.046,1.12z"/>
    <path class="fil4 str2" d="M31.917 6.799c-0.938,-0.096 -1.416,-0.709 -1.982,-0.879 -2.354,-0.703 -1.808,-3.316 -1.758,-3.594 0.05,-0.278 0.422,0.663 0.733,0.692 0.123,0.519 0.321,1.137 0.307,1.579 0.168,0.893 1.415,1.58 2.7,2.202z"/>
    <path class="fil4 str2" d="M31.917 6.799c-1.285,-0.622 -2.532,-1.309 -2.7,-2.202 0.027,-0.877 -0.782,-2.452 -0.175,-2.56 0.608,-0.108 0.722,0.723 1.278,1.689 0.211,0.366 0.466,0.731 0.711,1.105 -0.039,0.609 0.168,1.288 0.872,1.885 0.005,0.027 0.01,0.055 0.014,0.083z"/>
    <path class="fil4 str3" d="M32.343 6.816c0.048,0.042 0.098,0.077 0.151,0.103 0.286,-0.736 0.523,-1.306 0.4,-0.773 -0.063,0.276 -0.149,0.552 -0.245,0.83 0.094,0.021 0.193,0.024 0.296,0.011 0.273,-0.28 0.511,-0.403 0.612,-0.416 0.839,-0.724 1.582,-1.471 2.251,-2.237 0.073,-0.144 0.111,-0.255 0.105,-0.316 -0.049,-0.461 -0.445,-0.497 -0.507,-0.825 -0.231,-0.987 -0.446,-0.893 -0.65,-1.004 -0.355,-0.058 -0.609,0.251 -0.869,0.612 -0.946,1.318 -0.7,3.295 -1.544,4.015zm0.965 0.068c0.086,-0.036 0.174,-0.08 0.262,-0.131 -0.088,0.041 -0.17,0.079 -0.244,0.113l-0.018 0.018z"/>
    <path class="fil4 str4" d="M35.808 4.333c0.131,-0.159 0.587,0.098 1.303,0.585 -0.026,0.023 -0.052,0.045 -0.078,0.069 -0.486,0.428 -2.752,1.431 -3.707,1.879 0.061,-0.059 0.123,-0.114 0.187,-0.163 0.119,-0.091 0.119,-0.142 0.044,-0.132 0.84,-0.724 1.582,-1.471 2.251,-2.238z"/>
    <path class="fil4 str5" d="M33.326 6.866c0.955,-0.448 3.221,-1.451 3.707,-1.879 0.546,-0.482 0.898,-0.749 1.132,-0.551 0.29,0.245 -0.629,0.71 -0.742,1.161 -0.162,0.525 -0.509,0.958 -1.084,1.282 -0.825,-0.389 -1.739,-0.312 -2.636,0.423 -0.268,-0.045 -0.465,-0.119 -0.582,-0.21 0.067,-0.082 0.135,-0.157 0.205,-0.226z"/>
    <path class="fil4 str6" d="M30.063 3.235c0.386,-0.214 0.595,-0.579 1.132,-0.474 0.302,0.105 0.769,-0.1 0.908,0.313 -0.306,-0.019 -1.007,0.778 -1.072,1.756 -0.003,0.05 -0.005,0.102 -0.005,0.153l-0.963 -1.748z"/>
    <path class="fil4 str7" d="M31.965 6.767c-0.755,-0.609 -0.975,-1.311 -0.934,-1.937 0.065,-0.978 0.766,-1.775 1.072,-1.756 0.617,0.039 1.197,0.131 1.514,0.179 -0.144,0.292 -0.25,0.602 -0.336,0.915 -0.134,0.318 -0.255,0.721 -0.28,1.209 -0.14,0.608 -0.302,1.135 -0.658,1.439 -0.089,0.037 -0.167,0.056 -0.217,0.057 0.018,-0.89 -0.303,-1.119 -0.287,-1.071 0.081,0.258 0.135,0.551 0.126,0.965z"/>
    <path class="fil5 str8" d="M29.091 12.571c-0.111,0 -0.293,0.02 -0.404,0.036 0.093,0.088 0.112,0.272 0.243,0.404 0.056,0.056 0.092,-0.067 0.129,-0.262l0.032 -0.178zm-0.682 0.074c-0.17,0.017 -0.334,0.013 -0.481,-0.061 -0.094,-0.048 -0.708,-0.642 -1.158,-0.428 -0.449,0.214 0.014,2.208 0.849,2.424 0.836,0.217 1.192,0.82 2.023,0.795l0 0c-0.952,-0.539 -1.438,-2.297 -1.233,-2.73z"/>
    <path class="fil5 str9" d="M29.17 17.407c0.031,-0.042 0.064,-0.081 0.097,-0.119 0.413,0.475 1.12,0.851 1.791,0.838 0.279,-0.082 0.308,-0.382 0.672,-0.534 0.364,-0.151 -0.233,-0.425 -0.195,-0.58 0.024,-0.103 0.308,-0.181 0.428,-0.401l0.019 0.006c0.232,0.329 0.518,0.612 0.862,0.809l0 0c-0.318,0.706 0.17,1.227 -0.37,1.541 -0.54,0.315 -1.485,0.453 -1.931,0.297 -0.447,-0.156 -1.486,-1.227 -1.373,-1.857z"/>
    <path class="fil5 str10" d="M31.483 15.623c0.803,-0.697 1.778,-0.617 2.378,-0.143 0.6,0.474 0.74,0.86 0.734,1.193 -0.005,0.332 -0.456,1.045 -0.589,1.047 -0.909,0.012 -1.581,-0.464 -2.036,-1.121 0.055,-0.11 0.07,-0.255 -0.006,-0.454 -0.092,-0.239 -0.251,-0.397 -0.472,-0.498l-0.009 -0.024z"/>
    <path class="fil5 str11" d="M28.99 16.136c0.171,-0.283 0.733,-0.291 1.027,-0.622 1.034,-0.062 1.713,0.018 1.947,0.631 0.234,0.613 -0.392,0.712 -0.429,0.867 -0.038,0.155 0.559,0.429 0.195,0.58 -0.364,0.152 -0.393,0.452 -0.672,0.534 -0.672,0.013 -1.381,-0.364 -1.794,-0.84 -0.321,-0.37 -0.464,-0.798 -0.274,-1.15z"/>
    <path class="fil6 str12" d="M30.017 15.514c0,0 -0.304,-0.078 -0.375,-0.139 -0.734,0.023 -1.097,-0.446 -1.748,-0.704 -0.069,-0.024 -0.138,-0.047 -0.203,-0.067 -0.336,-0.002 -0.651,0.065 -0.936,0.171l-0.032 0.012c-0.854,0.329 -1.425,1 -1.457,1.177 -0.109,0.608 0.799,0.844 1.239,1.08l0 0c0.072,-0.113 0.164,-0.218 0.277,-0.31 0.176,-0.145 0.992,-0.846 2.348,-0.767l0.004 0.027c0.161,-0.105 0.396,-0.166 0.604,-0.273 0.098,-0.065 0.191,-0.133 0.279,-0.207zm-1.001 0.584c-0.003,0.004 -0.006,0.007 -0.008,0.011 0.003,-0.004 0.005,-0.007 0.008,-0.011zm-0.009 0.013l-0.002 0.002 0 0 0.002 -0.002z"/>
    <path class="fil5 str1" d="M32.844 17.426c-0.252,0.559 0.001,1.001 -0.149,1.317 0.159,0.05 1.179,0.348 1.213,0.092 0.034,-0.257 0.294,-0.448 0.277,-1.15 -0.001,-0.036 -0.008,-0.068 -0.02,-0.096 -0.066,0.08 -0.124,0.13 -0.159,0.131 -0.443,0.006 -0.83,-0.104 -1.162,-0.294z"/>
    <path class="fil5 str13" d="M32.468 9.188c0.092,-0.069 0.184,-0.136 0.275,-0.2 1.635,-1.141 3.219,-1.363 4.779,-1.174"/>
    <path class="fil5 str14" d="M33.254 8.11c-0.139,0.03 -0.431,0.345 -0.511,0.878 0.263,0.197 0.581,0.184 0.871,0.276"/>
    <path class="fil5 str15" d="M34.466 7.376c-0.442,0.228 -0.74,0.603 -0.906,1.114"/>
    <path class="fil5 str16" d="M34.96 9.001c-0.427,0.072 -0.957,-0.283 -1.4,-0.511"/>
    <path class="fil5 str17" d="M35.878 7.119c-0.448,0.163 -0.97,0.43 -1.221,0.916 0.581,0.051 1.085,0.599 1.52,0.523"/>
    <path class="fil5 str18" d="M30.951 11.27l-0.081 -0.03c-0.049,-0.014 -0.093,-0.02 -0.132,-0.018l0 -0.001c0.269,-0.617 0.615,-1.241 0.739,-1.865 0.594,-2.14 0.554,-2.944 0.362,-3.554 -0.022,-0.07 0.656,0.44 0.004,2.679 -0.385,1.324 1.342,-3.597 1.051,-2.335 -0.194,0.84 -0.589,1.69 -0.884,2.535 0.631,-2.073 1.968,-2.335 1.503,-1.978 -0.675,0.518 -1.195,1.684 -1.763,2.935l-0.239 0.525c-0.164,0.355 -0.379,0.763 -0.56,1.107z"/>
    <path class="fil7 str19" d="M31.201 10.21c-0.107,-0.099 -0.29,-0.36 -0.272,-0.474 0.644,-4.244 -1.61,-3.806 -2.801,-3.847 -0.534,2.293 2.409,3.494 2.49,3.592 0.273,0.331 0.258,0.677 0.482,0.961l0.101 -0.232z"/>
    <path class="fil5 str20" d="M30.815 9.439c-0.408,-1.297 -1.14,-2.572 -2.633,-3.52"/>
    <path class="fil5 str21" d="M29.648 8.585c0.07,0.034 0.373,0.177 0.932,0.276 0.152,-0.275 0.178,-0.535 0.267,-0.803"/>
    <path class="fil5 str22" d="M28.903 7.683c0.374,0.023 0.748,0.096 1.123,0.07 0.228,-0.126 0.15,-0.682 0.225,-1.023"/>
    <path class="fil5 str23" d="M28.32 6.776c0.33,-0.012 0.639,0.091 0.969,0.031 0.025,-0.217 -0.04,-0.366 -0.004,-0.791"/>
    <path class="fil5 str24" d="M24.131 18.857c-0.663,-1.06 -1.61,-2.026 -3.159,-2.524"/>
    <path class="fil5 str25" d="M22.952 18.403c0.07,0.013 0.373,0.071 0.893,0.03 0.072,-0.28 0.035,-0.518 0.053,-0.777"/>
    <path class="fil5 str26" d="M22.079 17.772c0.339,-0.066 0.689,-0.088 1.017,-0.197 0.174,-0.166 -0.024,-0.643 -0.036,-0.963"/>
    <path class="fil5 str27" d="M21.351 17.099c0.29,-0.087 0.59,-0.067 0.869,-0.197 -0.027,-0.199 -0.12,-0.317 -0.186,-0.703"/>
    <path class="fil5 str28" d="M33.32 11.321c-0.04,0.268 -0.182,0.538 -0.191,0.796 0.294,0.217 0.589,0.17 0.864,0.271"/>
    <path class="fil5 str29" d="M34.519 10.528c0.029,0.148 -0.51,0.722 -0.384,1.013 0.322,0.214 0.7,0.337 0.975,0.534"/>
    <path class="fil5 str30" d="M35.738 10.477c-0.161,0.164 -0.225,0.451 -0.423,0.641 0.203,0.209 0.541,0.349 0.819,0.49"/>
    <path class="fil2 str31" d="M26.596 12.693c-0.669,-0.21 -1.302,-0.565 -1.478,-0.987 -0.15,-0.36 -0.008,-1.163 0.248,-1.727 0.092,-0.201 1.495,0.455 1.85,1.491 0.056,0.163 0.166,0.46 0.203,0.767 -0.511,-0.269 -0.841,-0.153 -0.823,0.456z"/>
    <path class="fil5 str32" d="M26.814 12.134c-0.657,-0.585 -1.174,-1.35 -1.433,-2.174"/>
    <path class="fil5 str33" d="M27.177 12.135c0.009,-0.125 0.001,-0.265 -0.048,-0.489"/>
    <path class="fil5 str34" d="M26.563 10.952c0.029,0.134 -0.047,0.368 -0.061,0.517l-0.02 0.341c-0.321,0.065 -0.582,-0.058 -0.862,-0.047"/>
    <path class="fil5 str35" d="M25.208 10.86c0.219,0.027 0.411,0.141 0.652,0.14 0.134,-0.183 0.091,-0.461 0.137,-0.691"/>
    <path class="fil5 str1" d="M29.482 18.296c-0.215,-0.309 -0.358,-0.635 -0.312,-0.889 0.031,-0.042 0.064,-0.081 0.097,-0.119 -0.001,0 -0.002,-0.001 -0.003,-0.002 -0.321,-0.37 -0.464,-0.798 -0.274,-1.15 0.005,-0.008 0.01,-0.015 0.015,-0.023 0,-0.001 0.001,-0.001 0.002,-0.002 0,-0.001 0,-0.001 0.001,-0.002 0.002,-0.004 0.005,-0.007 0.008,-0.011 0.032,-0.04 0.072,-0.074 0.118,-0.104l0 -0.001 -0.004 -0.026c-0.846,-0.049 -1.482,0.205 -1.883,0.439 -0.242,0.14 -0.399,0.273 -0.465,0.328 -0.113,0.092 -0.205,0.197 -0.277,0.31 -0.223,0.35 -0.252,0.784 -0.122,1.21 0.173,0.564 0.517,0.364 1.252,0.503 0.736,0.139 1.414,0.046 1.847,-0.461z"/>
    <path class="fil2 str36" d="M24.772 19.433c0.395,-0.501 0.788,-1.005 1.015,-1.589 0.152,-0.388 0.185,-0.746 0.139,-1.068 -0.378,-0.182 -0.73,-0.42 -0.66,-0.812 0.008,-0.042 0.047,-0.114 0.114,-0.203 -0.631,0.073 -1.095,0.593 -1.381,1.584l0 0c0.196,0.459 0.361,1.058 0.48,1.834 0.008,0.055 0.145,0.155 0.293,0.254z"/>
    <path class="fil5 str37" d="M24.57 19.287c0.019,-1.42 0.339,-2.468 0.783,-2.93"/>
    <path class="fil5 str38" d="M24.764 16.323c-0.103,0.393 -0.023,0.755 0.044,1.118 0.31,-0.258 0.645,-0.357 0.914,-0.609"/>
    <path class="fil5 str39" d="M24.341 17.268c0.036,0.264 -0.006,0.684 0.312,1 0.339,-0.158 0.629,-0.437 0.892,-0.625"/>
    <path class="fil5 str40" d="M24.401 18.73l0.179 0.236c0.216,-0.099 0.365,-0.33 0.525,-0.422"/>
    <path class="fil6 str1" d="M29.217 4.597c0.168,0.893 1.415,1.58 2.7,2.202 -0.004,-0.028 -0.009,-0.056 -0.014,-0.083 -0.646,-0.547 -0.874,-1.164 -0.877,-1.733l-0.545 -0.99c-0.056,-0.089 -0.11,-0.178 -0.161,-0.267 -0.098,-0.169 -0.182,-0.334 -0.257,-0.491 -0.354,-0.737 -0.52,-1.287 -1.021,-1.198 -0.301,0.053 -0.253,0.469 -0.132,0.981 0.123,0.519 0.321,1.137 0.307,1.579z"/>
    <path class="fil6 str1" d="M31.031 4.831c0,0 0,0 0,0 0,0 0,0 0,0zm0 -0.001c0.065,-0.978 0.766,-1.775 1.072,-1.756 -0.139,-0.413 -0.606,-0.208 -0.908,-0.313 -0.537,-0.105 -0.746,0.26 -1.132,0.474l0.418 0.758 0.545 0.99c0,-0.051 0.002,-0.102 0.005,-0.152 0,0 0,0 0,0 0,-0.001 0,-0.001 0,-0.001z"/>
    <path class="fil6 str1" d="M29.217 4.597c0.014,-0.442 -0.184,-1.06 -0.307,-1.579 -0.311,-0.029 -0.683,-0.97 -0.733,-0.692 -0.05,0.278 -0.596,2.891 1.758,3.594 0.566,0.17 1.044,0.783 1.982,0.879 -1.285,-0.622 -2.532,-1.309 -2.7,-2.202z"/>
    <path class="fil6 str1" d="M32.103 3.074c-0.306,-0.019 -1.007,0.778 -1.072,1.756 0,0 0,0 0,0.001 0,0 0,0 0,0 0,0.003 0,0.006 0,0.009l-0.004 0.134c0,0.003 0,0.006 0,0.009 0.002,0.569 0.23,1.185 0.876,1.733 0,0 0,0 0,0 0.02,0.017 0.041,0.034 0.062,0.051 0.009,-0.414 -0.045,-0.707 -0.126,-0.965 -0.016,-0.048 0.305,0.181 0.287,1.071 0.05,-0.001 0.128,-0.02 0.217,-0.057 0.356,-0.303 0.518,-0.831 0.658,-1.439 0.113,-0.485 0.218,-0.888 0.28,-1.209 0.086,-0.313 0.192,-0.623 0.336,-0.915 -0.317,-0.048 -0.897,-0.14 -1.514,-0.179z"/>
    <path class="fil8 str1" d="M33.617 3.253c-0.144,0.292 -0.25,0.602 -0.336,0.915 -0.114,0.41 -0.192,0.826 -0.28,1.209 -0.14,0.608 -0.302,1.136 -0.658,1.439 0.048,0.042 0.098,0.077 0.151,0.103 0.286,-0.736 0.523,-1.306 0.4,-0.773 -0.063,0.276 -0.149,0.552 -0.245,0.83 0.094,0.021 0.193,0.024 0.296,0.011 0.273,-0.28 0.511,-0.403 0.612,-0.416 0.839,-0.724 1.582,-1.471 2.251,-2.237 0,0 0,-0.001 0,-0.001 0.073,-0.143 0.111,-0.254 0.105,-0.315 -0.049,-0.461 -0.445,-0.497 -0.507,-0.825 -0.231,-0.987 -0.446,-0.893 -0.65,-1.004 -0.355,-0.058 -0.609,0.251 -0.869,0.612 -0.103,0.144 -0.192,0.295 -0.27,0.452z"/>
    <path class="fil3 str1" d="M35.808 4.334c-0.669,0.766 -1.412,1.513 -2.251,2.236 0.076,-0.009 0.075,0.041 -0.044,0.133 -0.064,0.049 -0.126,0.104 -0.187,0.163 0.074,-0.034 0.156,-0.072 0.244,-0.113 1.051,-0.486 3.014,-1.371 3.463,-1.766 0.026,-0.024 0.052,-0.046 0.078,-0.069 -0.716,-0.487 -1.172,-0.744 -1.303,-0.585 0,0.001 0,0.001 0,0.001z"/>
    <path class="fil6 str1" d="M37.033 4.987c-0.234,0.206 -0.881,0.545 -1.595,0.892 0.717,-0.347 1.358,-0.684 1.595,-0.892zm0.078 -0.069c-0.026,0.023 -0.052,0.045 -0.078,0.069 0.026,-0.024 0.052,-0.046 0.078,-0.069zm-3.785 1.948c0,0.001 -0.001,0.002 -0.002,0.002l-0.016 0.016c-0.063,0.064 -0.126,0.133 -0.187,0.208 0.117,0.091 0.314,0.165 0.582,0.21 0.843,-0.69 1.701,-0.8 2.486,-0.489 0.05,0.02 0.1,0.042 0.15,0.066 0.575,-0.324 0.922,-0.757 1.084,-1.282 0.113,-0.451 1.032,-0.916 0.742,-1.161 -0.223,-0.188 -0.552,0.044 -1.054,0.482 -0.716,-0.487 -1.172,-0.744 -1.303,-0.585 0,0.001 0,0.001 0,0.001 -0.669,0.766 -1.412,1.513 -2.251,2.236 0.058,-0.007 0.071,0.021 0.02,0.076 -0.016,0.017 -0.037,0.036 -0.064,0.057 -0.064,0.049 -0.126,0.104 -0.187,0.163zm0.244 -0.113c-0.086,0.04 -0.168,0.078 -0.244,0.113 0.074,-0.034 0.156,-0.072 0.244,-0.113zm1.868 -0.874c-0.654,0.318 -1.366,0.641 -1.868,0.874 0.527,-0.245 1.228,-0.564 1.868,-0.874z"/>
    <path class="fil6 str1" d="M31.964 16.145c-0.092,-0.239 -0.251,-0.397 -0.472,-0.498 -0.132,-0.059 -0.285,-0.098 -0.459,-0.121 -0.222,-0.03 -0.477,-0.035 -0.763,-0.024 -0.082,0.003 -0.166,0.007 -0.253,0.012 -0.06,0.076 -0.139,0.131 -0.226,0.178 -0.017,0.01 -0.035,0.02 -0.053,0.029 -0.053,0.028 -0.108,0.052 -0.164,0.075 -0.001,0 -0.003,0.001 -0.004,0.002 -0.001,0 -0.002,0.001 -0.003,0.001 -0.002,0.001 -0.005,0.002 -0.007,0.003 -0.009,0.004 -0.019,0.007 -0.028,0.011 0,0 -0.001,0.001 -0.002,0.001 -0.002,0.001 -0.005,0.002 -0.007,0.003 -0.003,0.001 -0.005,0.002 -0.007,0.003 -0.001,0 -0.002,0.001 -0.003,0.001 -0.001,0 -0.003,0.001 -0.005,0.002 -0.002,0.001 -0.005,0.002 -0.007,0.003 -0.002,0 -0.004,0.001 -0.006,0.002 -0.001,0 -0.001,0 -0.001,0.001 -0.003,0.001 -0.005,0.002 -0.008,0.002 -0.002,0.002 -0.005,0.002 -0.007,0.003 -0.001,0.001 -0.002,0.001 -0.003,0.002 -0.002,0 -0.003,0.001 -0.004,0.001 -0.003,0.001 -0.005,0.002 -0.008,0.003 -0.002,0.001 -0.005,0.002 -0.007,0.003 -0.002,0.001 -0.005,0.002 -0.007,0.003 -0.003,0.001 -0.005,0.002 -0.007,0.003 -0.002,0 -0.003,0.001 -0.004,0.001 -0.002,0.001 -0.003,0.001 -0.004,0.002 -0.002,0.001 -0.005,0.002 -0.007,0.003 -0.002,0.001 -0.005,0.002 -0.007,0.002 0,0 -0.001,0 -0.001,0.001 -0.002,0 -0.004,0.001 -0.007,0.002 -0.002,0.001 -0.004,0.002 -0.006,0.003 -0.005,0.002 -0.01,0.004 -0.015,0.006 -0.002,0.001 -0.005,0.002 -0.007,0.003 0,0 -0.001,0 -0.002,0 -0.001,0.001 -0.003,0.002 -0.005,0.002 -0.002,0.001 -0.005,0.002 -0.007,0.003 -0.002,0.001 -0.004,0.002 -0.006,0.003 0,0 -0.001,0 -0.001,0 -0.003,0.001 -0.005,0.002 -0.007,0.003 -0.002,0.001 -0.005,0.002 -0.007,0.003 -0.001,0 -0.002,0.001 -0.003,0.001 -0.001,0.001 -0.003,0.001 -0.004,0.002 -0.002,0.001 -0.005,0.002 -0.007,0.003 -0.002,0.001 -0.004,0.001 -0.006,0.002 0,0 -0.001,0.001 -0.001,0.001 -0.002,0.001 -0.004,0.002 -0.007,0.003 0,0 0,0 -0.001,0 -0.003,0.001 -0.006,0.003 -0.009,0.004 -0.001,0.001 -0.002,0.001 -0.003,0.002 -0.002,0 -0.003,0.001 -0.004,0.001 -0.001,0.001 -0.002,0.001 -0.003,0.002 -0.001,0 -0.002,0 -0.003,0.001 -0.001,0 -0.003,0.001 -0.004,0.001 -0.002,0.001 -0.004,0.002 -0.006,0.003 -0.003,0.001 -0.005,0.002 -0.007,0.003 -0.001,0.001 -0.003,0.002 -0.004,0.002 -0.001,0.001 -0.002,0.001 -0.003,0.001 -0.002,0.001 -0.004,0.002 -0.006,0.004 -0.003,0.001 -0.005,0.002 -0.007,0.003 0,0 -0.001,0 -0.001,0 -0.002,0.001 -0.004,0.002 -0.006,0.002 -0.001,0.001 -0.004,0.002 -0.006,0.004 -0.001,0 -0.003,0.001 -0.005,0.002 0,0 -0.001,0 -0.001,0.001 -0.003,0.001 -0.005,0.002 -0.007,0.003 -0.002,0.001 -0.004,0.002 -0.006,0.003 -0.001,0 -0.001,0.001 -0.002,0.001 -0.001,0.001 -0.003,0.001 -0.004,0.002 -0.003,0.001 -0.005,0.002 -0.007,0.003 -0.001,0.001 -0.003,0.002 -0.005,0.003 0,0 -0.001,0 -0.001,0 -0.002,0.002 -0.004,0.003 -0.006,0.004 -0.001,0 -0.001,0 -0.002,0.001l-0.004 0.002 -0.005 0.003c0,0 -0.001,0 -0.001,0 -0.002,0.002 -0.004,0.003 -0.006,0.003 -0.002,0.001 -0.004,0.002 -0.006,0.003 0,0.001 0,0.001 0,0.001 -0.002,0.001 -0.004,0.002 -0.006,0.003l-0.006 0.004 -0.006 0.003 -0.006 0.004 -0.005 0.003 -0.004 0.002 -0.002 0.001c0,0.001 -0.001,0.001 -0.001,0.001l-0.005 0.003c-0.002,0.002 -0.004,0.003 -0.006,0.004 -0.046,0.03 -0.086,0.064 -0.118,0.104 -0.003,0.004 -0.006,0.007 -0.008,0.011 -0.001,0.001 -0.001,0.001 -0.001,0.002l-0.002 0.002c-0.005,0.008 -0.01,0.015 -0.015,0.023 -0.19,0.352 -0.047,0.78 0.274,1.15 0.001,0.001 0.002,0.002 0.003,0.002 0.413,0.475 1.12,0.851 1.791,0.838 0.279,-0.082 0.308,-0.382 0.672,-0.534 0.364,-0.151 -0.233,-0.425 -0.195,-0.58 0.024,-0.103 0.309,-0.181 0.428,-0.401 0.003,-0.004 0.005,-0.008 0.007,-0.012 0.055,-0.11 0.07,-0.255 -0.006,-0.454z"/>
    <path class="fil6 str1" d="M31.73 17.592c-0.364,0.152 -0.393,0.452 -0.672,0.534 -0.671,0.013 -1.341,-0.397 -1.791,-0.838 -0.036,-0.035 -0.084,0.068 -0.097,0.119 -0.065,0.249 0.097,0.58 0.312,0.889 0.317,0.456 0.794,0.875 1.061,0.968 0.446,0.156 1.391,0.018 1.931,-0.297 0.113,-0.065 0.181,-0.14 0.221,-0.224 0.15,-0.316 -0.103,-0.758 0.149,-1.317 -0.004,-0.002 -0.007,-0.004 -0.011,-0.006 0,0 0,0 0,0 -0.041,-0.024 -0.082,-0.049 -0.121,-0.075 -0.286,-0.19 -0.529,-0.442 -0.73,-0.728l-0.019 -0.006c-0.119,0.22 -0.404,0.298 -0.428,0.401 -0.038,0.155 0.559,0.429 0.195,0.58z"/>
    <path class="fil6 str1" d="M29.482 18.296c-0.215,-0.309 -0.393,-0.791 -0.312,-0.889l0.096 -0.119c0,0 -0.001,-0.001 -0.002,-0.002 -0.321,-0.37 -0.464,-0.798 -0.274,-1.15 0.023,-0.041 0.057,-0.077 0.099,-0.11 0.001,0 0.001,-0.001 0.002,-0.001 0.014,-0.011 0.028,-0.021 0.043,-0.031l0 -0.001 -0.004 -0.026c-0.846,-0.049 -1.482,0.205 -1.883,0.439 -0.242,0.14 -0.399,0.273 -0.465,0.328 -0.113,0.092 -0.205,0.197 -0.277,0.31 -0.223,0.35 -0.252,0.784 -0.122,1.21 0.173,0.564 0.517,0.364 1.252,0.503 0.395,0.075 0.774,0.082 1.107,-0.005 0.111,-0.029 0.217,-0.069 0.317,-0.12 0.158,-0.082 0.3,-0.192 0.423,-0.336z"/>
    <path class="fil6 str1" d="M26.782 16.734c0.066,-0.055 0.223,-0.188 0.465,-0.328 -0.276,0.006 -0.605,-0.104 -0.71,-0.247 -0.342,-0.465 0.882,-0.949 2.046,-1.12 -0.212,-0.126 -0.427,-0.264 -0.689,-0.368 -0.069,-0.024 -0.138,-0.047 -0.203,-0.067 -0.019,0 -0.039,0 -0.058,0 -0.155,0.003 -0.306,0.02 -0.451,0.05 -0.021,0.004 -0.042,0.008 -0.062,0.012 -0.126,0.029 -0.248,0.065 -0.365,0.109l-0.032 0.012c-0.648,0.249 -1.132,0.695 -1.343,0.974 -0.067,0.089 -0.106,0.161 -0.114,0.203 -0.027,0.153 0.009,0.282 0.087,0.393 0.121,0.176 0.342,0.308 0.573,0.419 0.208,0.101 0.423,0.184 0.579,0.268 0.072,-0.113 0.164,-0.218 0.277,-0.31z"/>
    <path class="fil6 str1" d="M26.755 14.775c0.119,-0.044 0.241,-0.081 0.365,-0.109 0.02,-0.004 0.041,-0.008 0.062,-0.013 0.057,-0.011 0.116,-0.021 0.175,-0.029 0.08,-0.01 0.161,-0.017 0.244,-0.019 0.011,0 0.021,-0.001 0.032,-0.001l-0.036 -0.03c0,0 0,0 0,0 -0.208,-0.062 -0.392,-0.235 -0.544,-0.461l-0.045 -0.038c-0.27,0.087 -0.794,-0.481 -0.911,-0.369 -0.173,0.163 0.268,0.923 0.626,1.081 0.01,-0.004 0.022,-0.008 0.032,-0.012z"/>
    <path class="fil3 str1" d="M28.409 12.645c-0.195,0.412 0.236,2.024 1.099,2.644l0.004 0.003c0.006,0.003 0.011,0.007 0.016,0.011 0.015,0.01 0.029,0.02 0.044,0.029 0.004,0.003 0.009,0.006 0.013,0.008 0.016,0.01 0.031,0.02 0.047,0.029 0.004,0.002 0.007,0.004 0.01,0.006 0.039,0.022 0.079,0.041 0.119,0.059 0.002,0.001 0.004,0.001 0.005,0.002 0.112,0.042 0.251,0.078 0.251,0.078 0.087,-0.005 0.171,-0.009 0.253,-0.012 -0.047,-0.064 -0.098,-0.125 -0.149,-0.184 -0.052,-0.059 -0.105,-0.116 -0.159,-0.173 -0.199,-0.21 -0.412,-0.417 -0.6,-0.678 -0.259,-0.359 -0.302,-0.669 -0.315,-0.924 -0.012,-0.213 -0.002,-0.388 -0.079,-0.522 -0.012,0.006 -0.024,0.003 -0.038,-0.01 -0.131,-0.132 -0.15,-0.316 -0.243,-0.404 -0.013,-0.013 -0.028,-0.023 -0.044,-0.031 -0.112,-0.057 -0.189,-0.026 -0.234,0.069z"/>
    <path class="fil6 str1" d="M28.687 12.607c0.093,0.088 0.112,0.272 0.243,0.404 0.014,0.013 0.026,0.016 0.038,0.01 0.035,-0.018 0.063,-0.125 0.091,-0.272l0.032 -0.178c-0.111,0 -0.293,0.02 -0.404,0.036z"/>
    <path class="fil3 str1" d="M29.915 13.6c-0.1,0.06 -0.422,-0.082 -0.698,-0.081 -0.06,0 -0.118,0.007 -0.17,0.024 0.013,0.255 0.056,0.565 0.315,0.924 0.188,0.261 0.401,0.468 0.6,0.678 0.023,-1.034 0.523,-1.209 0.862,-1.316 -0.364,-0.125 -0.455,-0.669 -0.601,-0.664 -0.099,0.004 -0.176,0.355 -0.308,0.435z"/>
    <path class="fil3 str1" d="M30.824 13.829c-0.339,0.107 -0.839,0.282 -0.862,1.316 0.054,0.057 0.107,0.114 0.159,0.173 0.425,-0.202 0.972,-0.316 1.307,-0.646 0.063,-0.062 0.118,-0.126 0.166,-0.192 0.095,-0.464 0.094,-0.726 0.045,-0.817 -0.162,-0.258 -0.15,-0.54 -0.179,-0.757 -0.017,-0.134 -0.05,-0.243 -0.148,-0.307 -0.181,-0.118 -0.064,0.429 -0.252,0.608 -0.101,0.096 0.226,0.212 0.048,0.482 -0.044,0.068 -0.152,0.099 -0.284,0.14z"/>
    <path class="fil3 str1" d="M31.594 14.48c-0.048,0.066 -0.103,0.13 -0.166,0.192 -0.335,0.33 -0.882,0.444 -1.307,0.646 0.051,0.059 0.102,0.12 0.149,0.184 0.247,-0.009 0.52,-0.014 0.778,0.024 0.383,-0.005 0.594,-0.028 0.794,-0.166 0.402,-0.35 0.655,-0.737 0.736,-1.256 -0.006,-0.237 -0.351,-0.702 -0.361,-0.833 -0.009,-0.13 0.146,-0.424 -0.116,-0.421 -0.018,0 -0.033,0.005 -0.046,0.014 -0.004,0.004 -0.009,0.008 -0.013,0.012 -0.143,0.154 0.019,0.963 -0.448,1.604z"/>
    <path class="fil6 str41" d="M31.964 16.145c0,0 0,0 0,0 0,0 0,0 0,0zm1.897 -0.665c-0.518,-0.41 -1.317,-0.525 -2.043,-0.099 -0.114,0.067 -0.226,0.147 -0.335,0.242l0.009 0.024c0.221,0.101 0.38,0.259 0.472,0.498 0,0 0,0 0,0 0.076,0.199 0.061,0.344 0.006,0.454 0.004,0.006 0.008,0.012 0.012,0.018 0.008,0.005 0.079,0.118 0.21,0.268 0.013,0.014 0.025,0.028 0.038,0.042 0.118,0.13 0.28,0.283 0.482,0.418 0.001,0 0.002,0.001 0.003,0.002 0.024,0.015 0.049,0.031 0.073,0.046 0.009,0.006 0.019,0.011 0.028,0.017 0.006,0.003 0.011,0.006 0.017,0.01 0,0 0,0 0,0 0.004,0.002 0.007,0.004 0.011,0.006 0.332,0.19 0.719,0.3 1.162,0.294 0.035,-0.001 0.093,-0.051 0.159,-0.131 0.182,-0.222 0.426,-0.672 0.43,-0.916 0.002,-0.115 -0.013,-0.235 -0.058,-0.363 -0.078,-0.222 -0.244,-0.466 -0.565,-0.739 -0.035,-0.03 -0.072,-0.061 -0.111,-0.091z"/>
    <path class="fil3 str1" d="M31.483 15.623c0.109,-0.095 0.221,-0.175 0.335,-0.242l0 0 0.024 -0.021c-0.2,0.138 -0.411,0.161 -0.794,0.166 0.099,0.014 0.195,0.034 0.287,0.063 0.055,0.017 0.107,0.036 0.157,0.058l-0.009 -0.024z"/>
    <path class="fil6 str41" d="M34.006 17.72c-0.005,0 -0.01,0 -0.016,0 0.001,0 0.001,0 0.002,0 0.001,0 0.001,0 0.002,0 0.004,0 0.008,0 0.012,0zm-1.162 -0.294c-0.001,0.001 -0.001,0.002 -0.002,0.003 -0.185,0.414 -0.093,0.764 -0.096,1.046 0,0.005 0,0.009 0,0.013 -0.002,0.093 -0.015,0.178 -0.051,0.255 0.159,0.05 1.179,0.348 1.213,0.092 0.034,-0.257 0.294,-0.448 0.277,-1.15 -0.001,-0.036 -0.008,-0.068 -0.02,-0.096 -0.065,0.08 -0.122,0.13 -0.159,0.131 -0.005,0 -0.01,0 -0.016,0 -0.242,0.002 -0.461,-0.03 -0.664,-0.089 -0.172,-0.05 -0.333,-0.119 -0.482,-0.205zm0.482 0.205c-0.001,-0.001 -0.002,-0.001 -0.003,-0.001 0.001,0 0.002,0 0.003,0.001z"/>
    <path class="fil6 str1" d="M33.972 15.571c0.206,0.175 0.372,0.357 0.482,0.554 0,0.001 0,0.002 0,0.002 0.035,0.063 0.062,0.123 0.083,0.183 0.129,-0.204 0.714,-0.506 0.663,-0.654 -0.036,-0.105 -0.923,0.131 -1.204,-0.104 -0.007,0.006 -0.016,0.012 -0.024,0.019z"/>
    <path class="fil3 str41" d="M32.52 12.94c0.04,0.197 0.065,0.38 0.077,0.551 -0.012,-0.171 -0.037,-0.354 -0.077,-0.551zm0.058 1.164c0.004,-0.165 0.022,-0.389 0.019,-0.613 0.016,0.224 0.009,0.427 -0.019,0.613zm1.418 1.448c0.805,-0.632 0.463,-1.06 0.532,-1.36 0.069,-0.303 0.254,-0.925 0.06,-1.213 -0.113,-0.168 -0.769,-0.051 -0.921,-0.287 -0.153,-0.236 -0.826,0.129 -1.147,0.248 -0.024,-0.066 -0.055,-0.125 -0.094,-0.173 0,-0.001 -0.001,-0.002 -0.002,-0.003 0,0 -0.001,-0.001 -0.002,-0.002l-0.001 -0.002c0,0 -0.001,0 -0.001,-0.001 0,0 -0.001,-0.001 -0.002,-0.002l0 0 -0.002 -0.002c-0.001,-0.001 -0.001,-0.001 -0.002,-0.002l0 0 -0.002 -0.003c-0.001,0 -0.001,-0.001 -0.002,-0.001 0,-0.001 0,-0.001 0,-0.001l-0.002 -0.002c-0.001,-0.001 -0.001,-0.001 -0.001,-0.002l-0.001 -0.001c-0.001,0 -0.002,-0.001 -0.002,-0.002 -0.001,0 -0.001,-0.001 -0.002,-0.001 0,-0.001 0,-0.001 -0.001,-0.001l-0.002 -0.002c0,-0.001 -0.001,-0.001 -0.001,-0.001l-0.001 -0.001c-0.001,-0.001 -0.001,-0.002 -0.002,-0.003l-0.001 -0.001c-0.001,0 -0.001,0 -0.001,-0.001l-0.002 -0.002 -0.001 -0.001 -0.002 -0.001 -0.002 -0.002c0,0 0,-0.001 -0.001,-0.001 0,0 -0.001,-0.001 -0.001,-0.001 -0.001,-0.001 -0.002,-0.002 -0.002,-0.002 -0.001,-0.001 -0.001,-0.001 -0.001,-0.001 -0.001,0 -0.001,-0.001 -0.002,-0.001l-0.002 -0.002c0,0 0,-0.001 -0.001,-0.001 0,0 -0.001,-0.001 -0.001,-0.001l-0.002 -0.002c-0.001,0 -0.001,-0.001 -0.001,-0.001 -0.001,0 -0.001,-0.001 -0.002,-0.001l-0.001 -0.001c0,-0.001 -0.001,-0.001 -0.001,-0.001 -0.001,-0.001 -0.001,-0.001 -0.002,-0.002 0,0 0,0 -0.001,0 0,-0.001 -0.001,-0.002 -0.002,-0.002 -0.001,-0.001 -0.002,-0.001 -0.003,-0.002 0,-0.001 -0.001,-0.001 -0.002,-0.002 -0.001,0 -0.001,-0.001 -0.002,-0.002 -0.001,0 -0.002,-0.001 -0.003,-0.001l-0.002 -0.002 -0.002 -0.002c-0.001,-0.001 -0.002,-0.001 -0.003,-0.002 -0.001,0 -0.002,-0.001 -0.002,-0.001 0,0 -0.001,-0.001 -0.001,-0.001 -0.001,0 -0.002,-0.001 -0.002,-0.001 -0.001,-0.001 -0.002,-0.001 -0.002,-0.002l-0.001 0 -0.002 -0.002 -0.002 -0.001c0,0 -0.001,0 -0.001,0 -0.001,-0.001 -0.002,-0.001 -0.002,-0.002 -0.001,0 -0.002,-0.001 -0.002,-0.001l-0.001 -0.001c-0.001,0 -0.002,-0.001 -0.003,-0.001 0,-0.001 -0.001,-0.001 -0.001,-0.001l-0.002 -0.001c0,0 0,0 -0.001,-0.001l-0.001 0 -0.001 -0.001c-0.001,0 -0.001,-0.001 -0.002,-0.001 0,0 0,0 0,0l-0.002 -0.002 -0.002 0c0,-0.001 -0.001,-0.001 -0.001,-0.001l-0.003 -0.002 -0.001 0 -0.002 -0.001c-0.001,-0.001 -0.002,-0.001 -0.002,-0.001l-0.001 -0.001 -0.002 -0.001c-0.001,0 -0.002,-0.001 -0.003,-0.001 0,0 0,0 -0.001,-0.001 0,0 -0.001,0 -0.002,-0.001 0,0 0,0 -0.001,0l-0.002 -0.001 0 0 -0.002 -0.001c-0.001,-0.001 -0.002,-0.001 -0.003,-0.001l0 -0.001c-0.001,0 -0.001,0 -0.001,0 0,0 -0.001,-0.001 -0.002,-0.001 -0.001,0 -0.002,-0.001 -0.003,-0.001 -0.001,-0.001 -0.002,-0.001 -0.003,-0.002 0,0 0,0 -0.001,0l-0.002 -0.001 -0.003 -0.001 -0.003 -0.001c-0.024,-0.01 -0.485,-0.173 -0.4,-0.644 0.022,-0.122 -0.714,-0.648 -0.918,-0.736l-0.081 -0.03c-0.049,-0.014 -0.093,-0.02 -0.132,-0.018l0 -0.001c-0.222,0.009 -0.311,0.245 -0.642,0.359 -0.365,0.125 -0.275,-0.075 -0.5,-0.042 0.204,-0.001 0.8,0.471 0.833,0.608 0.146,-0.16 0.262,-0.293 0.397,-0.312 0.018,-0.003 0.036,-0.001 0.054,0.005 0.158,0.052 0.292,0.42 0.54,0.682 0.207,0.219 0.463,0.204 0.443,0.688 0.07,-0.052 0.09,-0.245 0.179,-0.333 0.004,-0.005 0.009,-0.008 0.013,-0.012 0.013,-0.009 0.028,-0.014 0.046,-0.014 0.262,-0.003 0.107,0.291 0.116,0.421 0.01,0.131 0.355,0.596 0.361,0.833 -0.081,0.519 -0.333,0.906 -0.736,1.256 -0.008,0.007 -0.016,0.014 -0.024,0.021 0.302,-0.177 0.616,-0.261 0.917,-0.269 0.407,-0.013 0.803,0.112 1.126,0.368 0.038,0.03 0.076,0.06 0.111,0.091 0.008,-0.007 0.017,-0.013 0.024,-0.019z"/>
    <path class="fil3 str1" d="M31.863 13.209c0.02,-0.484 -0.236,-0.469 -0.443,-0.688 -0.248,-0.262 -0.382,-0.63 -0.54,-0.682 -0.001,0.157 -0.226,0.292 -0.271,0.453 -0.064,0.229 -0.143,0.533 -0.257,0.547 -0.293,0.038 -0.476,-0.078 -0.686,-0.026 -0.229,0.216 -0.389,0.442 -0.449,0.706 0.276,-0.001 0.598,0.141 0.698,0.081 0.132,-0.08 0.209,-0.431 0.308,-0.435 0.146,-0.005 0.237,0.539 0.601,0.664 0.132,-0.041 0.24,-0.072 0.284,-0.14 0.178,-0.27 -0.149,-0.386 -0.048,-0.482 0.188,-0.179 0.071,-0.726 0.252,-0.608 0.098,0.064 0.131,0.173 0.148,0.307 0.361,-0.049 0.274,0.399 0.403,0.303z"/>
    <path class="fil3 str42" d="M30.055 12.497c0.151,-0.11 0.271,-0.237 0.374,-0.351 -0.033,-0.137 -0.629,-0.609 -0.833,-0.608 -0.011,0.002 -0.022,0.004 -0.034,0.006 0.045,0.223 0.009,0.407 -0.215,0.712 -0.11,0.149 -0.012,0.397 0.007,0.571 0.011,0.098 -0.148,0.438 -0.137,0.692 0.06,-0.264 0.22,-0.49 0.449,-0.706 0.113,-0.107 0.244,-0.211 0.389,-0.316z"/>
    <path class="fil3 str41" d="M29.347 12.256c0.224,-0.305 0.26,-0.489 0.215,-0.712 -0.026,0.006 -0.055,0.014 -0.089,0.026 -0.223,0.075 -0.313,0.603 -0.382,1.001 -0.011,0.063 -0.022,0.123 -0.032,0.178 -0.028,0.147 -0.056,0.254 -0.091,0.272 0.077,0.134 0.067,0.309 0.079,0.522 0.052,-0.017 0.11,-0.024 0.17,-0.024 -0.011,-0.254 0.148,-0.594 0.137,-0.692 -0.019,-0.174 -0.117,-0.422 -0.007,-0.571z"/>
    <path class="fil3 str1" d="M30.429 12.146c-0.103,0.114 -0.223,0.241 -0.374,0.351 -0.145,0.105 -0.276,0.209 -0.389,0.316 0.21,-0.052 0.393,0.064 0.686,0.026 0.114,-0.014 0.193,-0.318 0.257,-0.547 0.045,-0.161 0.27,-0.296 0.271,-0.453 -0.002,-0.001 -0.004,-0.001 -0.005,-0.002 -0.007,-0.001 -0.013,-0.002 -0.02,-0.003 -0.01,-0.001 -0.019,-0.001 -0.029,0 -0.038,0.005 -0.075,0.02 -0.111,0.041 -0.075,0.047 -0.151,0.124 -0.221,0.199 -0.021,0.024 -0.042,0.047 -0.065,0.072z"/>
    <path class="fil3 str1" d="M31.46 12.906c0.029,0.217 0.017,0.499 0.179,0.757 0.049,0.091 0.05,0.353 -0.045,0.817 0.467,-0.641 0.305,-1.45 0.448,-1.604 -0.02,0.019 -0.036,0.044 -0.051,0.072 -0.019,0.037 -0.035,0.08 -0.05,0.12 -0.024,0.061 -0.045,0.117 -0.078,0.141 -0.129,0.096 -0.042,-0.352 -0.403,-0.303z"/>
    <path class="fil6 str1" d="M28.409 12.645c0,0 0,0 0,0zm0.174 2.394c0.314,0.187 0.621,0.349 1.059,0.336 -0.438,0.013 -0.745,-0.149 -1.059,-0.336zm0.925 0.25c-0.863,-0.62 -1.294,-2.232 -1.099,-2.644 -0.171,0.017 -0.335,0.013 -0.481,-0.061 -0.051,-0.026 -0.259,-0.216 -0.509,-0.347 -0.006,-0.003 -0.011,-0.006 -0.016,-0.009 -0.199,-0.101 -0.423,-0.164 -0.619,-0.078 -0.128,0.079 -0.196,0.256 -0.188,0.543 0.013,0.427 0.182,1.012 0.457,1.42 0.152,0.226 0.336,0.398 0.544,0.461l0 0c0.008,0.002 0.015,0.004 0.022,0.006 0.098,0.025 0.189,0.056 0.276,0.091 0.261,0.104 0.476,0.242 0.688,0.368 0.314,0.187 0.621,0.349 1.059,0.336 -0.003,-0.002 -0.006,-0.004 -0.01,-0.006 -0.016,-0.009 -0.031,-0.019 -0.047,-0.029 -0.004,-0.002 -0.009,-0.005 -0.013,-0.008 -0.015,-0.009 -0.029,-0.019 -0.044,-0.029 -0.005,-0.004 -0.01,-0.008 -0.016,-0.011 -0.001,-0.001 -0.003,-0.002 -0.004,-0.003z"/>
    <path class="fil2 str41" d="M32.234 8.076c-0.077,0.202 -0.153,0.404 -0.224,0.605 0.068,-0.222 0.144,-0.423 0.224,-0.605zm-0.269 -1.309c-0.014,0.564 -0.145,1.354 -0.488,2.589 -0.056,0.284 -0.159,0.568 -0.279,0.852 0.001,0 0.002,0.001 0.003,0.002l-0.101 0.232c-0.001,-0.002 -0.002,-0.003 -0.003,-0.004 -0.119,0.262 -0.246,0.523 -0.359,0.783 0,0 0,0 0,0 0.039,-0.001 0.083,0.005 0.132,0.019 0.025,0.008 0.052,0.017 0.081,0.03 0.18,-0.343 0.393,-0.748 0.557,-1.103 0.001,-0.001 0.002,-0.003 0.002,-0.004l0.24 -0.525c0.001,-0.001 0.001,-0.002 0.002,-0.004 0.452,-0.997 0.874,-1.939 1.369,-2.542 0.061,-0.075 0.124,-0.144 0.187,-0.208 0.006,-0.006 0.012,-0.012 0.018,-0.018 0.061,-0.059 0.123,-0.114 0.187,-0.163 0.034,-0.027 0.086,-0.075 0.095,-0.106 0,0 0,-0.001 0,-0.001 0.004,-0.021 -0.015,-0.03 -0.051,-0.025 -0.101,0.013 -0.339,0.136 -0.612,0.416 -0.233,0.239 -0.491,0.592 -0.711,1.089 0.141,-0.367 0.288,-0.734 0.415,-1.1 0.096,-0.278 0.182,-0.554 0.245,-0.83 0.123,-0.533 -0.114,0.037 -0.4,0.773 -0.391,1.007 -0.874,2.327 -0.651,1.562 0.2,-0.689 0.275,-1.213 0.283,-1.608 0.018,-0.89 -0.303,-1.119 -0.287,-1.071 0.081,0.258 0.135,0.551 0.126,0.965z"/>
    <path class="fil1 str1" d="M24.58 18.966l-0.179 -0.236c0.028,0.142 0.054,0.292 0.078,0.449 0.004,0.027 0.039,0.065 0.091,0.108 0.001,-0.109 0.005,-0.216 0.01,-0.321z"/>
    <path class="fil6 str43" d="M30.951 11.27c-0.405,-0.175 -0.436,0.166 -0.855,0.31 -0.418,0.143 -0.238,-0.141 -0.623,-0.01 -0.385,0.13 -0.374,1.611 -0.543,1.441 -0.149,-0.151 -0.153,-0.368 -0.287,-0.435 -0.693,-0.351 -0.052,2.673 1.374,2.938 0.391,-0.024 0.731,-0.027 1.016,0.012 0.392,-0.004 0.607,-0.026 0.809,-0.166 0.402,-0.35 0.655,-0.737 0.736,-1.256 0.004,-0.165 0.022,-0.389 0.019,-0.613 -0.012,-0.171 -0.037,-0.354 -0.077,-0.551 -0.049,-0.136 -0.128,-0.241 -0.251,-0.29 -0.024,-0.01 -0.485,-0.173 -0.4,-0.644 0.022,-0.122 -0.714,-0.648 -0.918,-0.736z"/>
    <path class="fil6 str44" d="M33.667 12.692c-0.153,-0.236 -0.826,0.129 -1.147,0.248 0.239,1.195 -0.028,1.866 -0.702,2.441 0.726,-0.426 1.525,-0.311 2.043,0.099 0.039,0.03 0.076,0.061 0.111,0.091 0.835,-0.642 0.486,-1.076 0.556,-1.379 0.069,-0.303 0.254,-0.925 0.06,-1.213 -0.113,-0.168 -0.769,-0.051 -0.921,-0.287z"/>
    <path class="fil5 str45" d="M31.594 14.48c0.095,-0.464 0.094,-0.726 0.045,-0.817 -0.261,-0.418 -0.07,-0.895 -0.327,-1.064 -0.181,-0.118 -0.064,0.429 -0.252,0.608 -0.101,0.096 0.226,0.212 0.048,0.482 -0.158,0.241 -1.114,0.017 -1.146,1.456"/>
    <path class="fil5 str46" d="M29.217 13.519c-0.011,-0.254 0.148,-0.594 0.137,-0.692 -0.019,-0.174 -0.117,-0.422 -0.007,-0.571 0.224,-0.305 0.26,-0.489 0.215,-0.712"/>
    <path class="fil5 str47" d="M29.959 13.54c-0.408,-0.265 0.071,-0.711 0.264,-0.375"/>
    <path class="fil5 str1" d="M30.055 12.497c-0.145,0.105 -0.276,0.209 -0.389,0.316 0.21,-0.052 0.393,0.064 0.686,0.026 0.114,-0.014 0.193,-0.318 0.257,-0.547 0.045,-0.161 0.27,-0.296 0.271,-0.453 -0.018,-0.006 -0.036,-0.008 -0.054,-0.005 -0.135,0.019 -0.251,0.152 -0.397,0.312 -0.103,0.114 -0.223,0.241 -0.374,0.351z"/>
    <path class="fil6 str48" d="M31.863 13.209c0.07,-0.052 0.09,-0.245 0.179,-0.333 -0.089,0.088 -0.109,0.281 -0.179,0.333zm-0.983 -1.37c0.158,0.052 0.292,0.42 0.54,0.682 0.207,0.219 0.463,0.204 0.443,0.688 -0.129,0.096 -0.042,-0.352 -0.403,-0.303 0.029,0.217 0.017,0.499 0.179,0.757 0.049,0.091 0.05,0.353 -0.045,0.817 0.467,-0.641 0.305,-1.45 0.448,-1.604 0.004,-0.005 0.009,-0.008 0.013,-0.012 0.013,-0.009 0.028,-0.014 0.046,-0.014 0.262,-0.003 0.107,0.291 0.116,0.421 0.01,0.131 0.355,0.596 0.361,0.833 0.004,-0.165 0.022,-0.389 0.019,-0.613 -0.012,-0.171 -0.037,-0.354 -0.077,-0.551 -0.049,-0.136 -0.128,-0.241 -0.251,-0.29 -0.024,-0.01 -0.485,-0.173 -0.4,-0.644 0.022,-0.122 -0.714,-0.648 -0.918,-0.736 -0.405,-0.175 -0.436,0.166 -0.855,0.31 -0.365,0.125 -0.275,-0.075 -0.5,-0.042 0.204,-0.001 0.8,0.471 0.833,0.608 0.146,-0.16 0.262,-0.293 0.397,-0.312 0.018,-0.003 0.036,-0.001 0.054,0.005z"/>
    <path class="fil5 str49" d="M32.562 12.528c1.339,-1.042 2.729,-1.613 4.187,-1.554"/>
    <path class="fil5 str1" d="M30.824 13.829c-0.364,-0.125 -0.455,-0.669 -0.601,-0.664 -0.099,0.004 -0.176,0.355 -0.308,0.435 -0.1,0.06 -0.422,-0.082 -0.698,-0.081 -0.06,0 -0.118,0.007 -0.17,0.024 0.013,0.255 0.056,0.565 0.315,0.924 0.188,0.261 0.401,0.468 0.6,0.678 0.023,-1.034 0.523,-1.209 0.862,-1.316z"/>
   </g>
  </g>
 </g>
</svg>
