<svg width="24" height="24" viewBox="0 0 24 24" fill="none" xmlns="http://www.w3.org/2000/svg">
<g id="a">
<path id="Vector" d="M23.5999 5.20078V8.80078H0.399902V5.20078C0.399902 3.87678 1.4759 2.80078 2.7999 2.80078H21.1999C22.5239 2.80078 23.5999 3.87678 23.5999 5.20078Z" fill="#2897F3"/>
<path id="Vector_2" d="M23.5999 8.80078V21.2008C23.5999 22.5248 22.5239 23.6008 21.1999 23.6008H2.7999C1.4759 23.6008 0.399902 22.5248 0.399902 21.2008V8.80078H23.5999Z" fill="#DFDDFB"/>
<path id="Vector_3" d="M10.8 4C10.316 4.364 10 4.948 10 5.6C10 6.704 10.896 7.6 12 7.6C13.104 7.6 14 6.704 14 5.6C14 4.948 13.684 4.364 13.2 4H10.8Z" fill="#2897F3"/>
<path id="Vector_4" d="M17.9997 4C17.5157 4.364 17.1997 4.948 17.1997 5.6C17.1997 6.704 18.0957 7.6 19.1997 7.6C20.3037 7.6 21.1997 6.704 21.1997 5.6C21.1997 4.948 20.8837 4.364 20.3997 4H17.9997Z" fill="#2897F3"/>
<path id="Vector_5" d="M3.5998 4C3.1158 4.364 2.7998 4.948 2.7998 5.6C2.7998 6.704 3.6958 7.6 4.7998 7.6C5.9038 7.6 6.7998 6.704 6.7998 5.6C6.7998 4.948 6.4838 4.364 5.9998 4H3.5998Z" fill="#2897F3"/>
<g id="Group">
<path id="Vector_6" d="M10.8001 10.4004H8.0001C7.77918 10.4004 7.6001 10.5795 7.6001 10.8004V12.8004C7.6001 13.0213 7.77918 13.2004 8.0001 13.2004H10.8001C11.021 13.2004 11.2001 13.0213 11.2001 12.8004V10.8004C11.2001 10.5795 11.021 10.4004 10.8001 10.4004Z" fill="#D1D4D1"/>
<path id="Vector_7" d="M15.9998 10.4004H13.1998C12.9789 10.4004 12.7998 10.5795 12.7998 10.8004V12.8004C12.7998 13.0213 12.9789 13.2004 13.1998 13.2004H15.9998C16.2207 13.2004 16.3998 13.0213 16.3998 12.8004V10.8004C16.3998 10.5795 16.2207 10.4004 15.9998 10.4004Z" fill="#D1D4D1"/>
<path id="Vector_8" d="M21.2 10.4004H18.4C18.1791 10.4004 18 10.5795 18 10.8004V12.8004C18 13.0213 18.1791 13.2004 18.4 13.2004H21.2C21.4209 13.2004 21.6 13.0213 21.6 12.8004V10.8004C21.6 10.5795 21.4209 10.4004 21.2 10.4004Z" fill="#D1D4D1"/>
<path id="Vector_9" d="M10.8001 14.8008H8.0001C7.77918 14.8008 7.6001 14.9799 7.6001 15.2008V17.2008C7.6001 17.4217 7.77918 17.6008 8.0001 17.6008H10.8001C11.021 17.6008 11.2001 17.4217 11.2001 17.2008V15.2008C11.2001 14.9799 11.021 14.8008 10.8001 14.8008Z" fill="#D1D4D1"/>
<path id="Vector_10" d="M15.9998 14.8008H13.1998C12.9789 14.8008 12.7998 14.9799 12.7998 15.2008V17.2008C12.7998 17.4217 12.9789 17.6008 13.1998 17.6008H15.9998C16.2207 17.6008 16.3998 17.4217 16.3998 17.2008V15.2008C16.3998 14.9799 16.2207 14.8008 15.9998 14.8008Z" fill="#D1D4D1"/>
<path id="Vector_11" d="M5.5999 14.8008H2.7999C2.57899 14.8008 2.3999 14.9799 2.3999 15.2008V17.2008C2.3999 17.4217 2.57899 17.6008 2.7999 17.6008H5.5999C5.82082 17.6008 5.9999 17.4217 5.9999 17.2008V15.2008C5.9999 14.9799 5.82082 14.8008 5.5999 14.8008Z" fill="#D1D4D1"/>
<path id="Vector_12" d="M21.2 14.8008H18.4C18.1791 14.8008 18 14.9799 18 15.2008V17.2008C18 17.4217 18.1791 17.6008 18.4 17.6008H21.2C21.4209 17.6008 21.6 17.4217 21.6 17.2008V15.2008C21.6 14.9799 21.4209 14.8008 21.2 14.8008Z" fill="#D1D4D1"/>
<path id="Vector_13" d="M10.8001 19.2012H8.0001C7.77918 19.2012 7.6001 19.3803 7.6001 19.6012V21.6012C7.6001 21.8221 7.77918 22.0012 8.0001 22.0012H10.8001C11.021 22.0012 11.2001 21.8221 11.2001 21.6012V19.6012C11.2001 19.3803 11.021 19.2012 10.8001 19.2012Z" fill="#D1D4D1"/>
<path id="Vector_14" d="M15.9998 19.2012H13.1998C12.9789 19.2012 12.7998 19.3803 12.7998 19.6012V21.6012C12.7998 21.8221 12.9789 22.0012 13.1998 22.0012H15.9998C16.2207 22.0012 16.3998 21.8221 16.3998 21.6012V19.6012C16.3998 19.3803 16.2207 19.2012 15.9998 19.2012Z" fill="#D1D4D1"/>
<path id="Vector_15" d="M5.5999 19.2012H2.7999C2.57899 19.2012 2.3999 19.3803 2.3999 19.6012V21.6012C2.3999 21.8221 2.57899 22.0012 2.7999 22.0012H5.5999C5.82082 22.0012 5.9999 21.8221 5.9999 21.6012V19.6012C5.9999 19.3803 5.82082 19.2012 5.5999 19.2012Z" fill="#D1D4D1"/>
</g>
<path id="Vector_16" d="M13.1998 1.60039C13.1998 0.937649 12.6625 0.400391 11.9998 0.400391C11.3371 0.400391 10.7998 0.937649 10.7998 1.60039V4.80039C10.7998 5.46313 11.3371 6.00039 11.9998 6.00039C12.6625 6.00039 13.1998 5.46313 13.1998 4.80039V1.60039Z" fill="#547580"/>
<path id="Vector_17" d="M20.4 1.60039C20.4 0.937649 19.8627 0.400391 19.2 0.400391C18.5373 0.400391 18 0.937649 18 1.60039V4.80039C18 5.46313 18.5373 6.00039 19.2 6.00039C19.8627 6.00039 20.4 5.46313 20.4 4.80039V1.60039Z" fill="#547580"/>
<path id="Vector_18" d="M6.0001 1.60039C6.0001 0.937649 5.46284 0.400391 4.8001 0.400391C4.13736 0.400391 3.6001 0.937649 3.6001 1.60039V4.80039C3.6001 5.46313 4.13736 6.00039 4.8001 6.00039C5.46284 6.00039 6.0001 5.46313 6.0001 4.80039V1.60039Z" fill="#547580"/>
</g>
</svg>
