<svg height="512" viewBox="0 0 520 520" width="512" xmlns="http://www.w3.org/2000/svg"><g id="_42-Test_exam" data-name="42-Test exam"><path d="m463.74 106.467h-252.075a10 10 0 0 1 0-20h252.075a10 10 0 0 1 0 20z"/><path d="m166.26 161.467h-110a10 10 0 0 1 -10-10v-110a10 10 0 0 1 10-10h110a10 10 0 0 1 10 10v110a10 10 0 0 1 -10 10zm-100-20h90v-90h-90z"/><path d="m125.4 96.467 19.009-19.007a10 10 0 0 0 -14.143-14.143l-19.006 19.007-19.007-19.007a10 10 0 0 0 -14.143 14.143l19.007 19.007-19.007 19.007a10 10 0 0 0 14.143 14.142l19.007-19.007 19.006 19.007a10 10 0 0 0 14.143-14.142z"/><path d="m463.74 270h-252.075a10 10 0 1 1 0-20h252.075a10 10 0 0 1 0 20z"/><path d="m166.26 325h-110a10 10 0 0 1 -10-10v-110a10 10 0 0 1 10-10h110a10 10 0 0 1 10 10v110a10 10 0 0 1 -10 10zm-100-20h90v-90h-90z"/><path d="m125.4 260 19.007-19.007a10 10 0 0 0 -14.143-14.142l-19.004 19.006-19.007-19.006a10 10 0 0 0 -14.143 14.142l19.007 19.007-19.007 19.007a10 10 0 0 0 14.143 14.142l19.007-19.006 19.006 19.006a10 10 0 0 0 14.143-14.142z"/><path d="m463.74 433.533h-252.075a10 10 0 1 1 0-20h252.075a10 10 0 0 1 0 20z"/><path d="m166.26 488.533h-110a10 10 0 0 1 -10-10v-110a10 10 0 0 1 10-10h110a10 10 0 0 1 10 10v110a10 10 0 0 1 -10 10zm-100-20h90v-90h-90z"/><path d="m125.4 423.533 19.007-19.007a10 10 0 0 0 -14.143-14.142l-19.004 19.007-19.007-19.007a10 10 0 0 0 -14.143 14.142l19.007 19.007-19.007 19.007a10 10 0 0 0 14.143 14.143l19.007-19.007 19.006 19.007a10 10 0 0 0 14.143-14.143z"/></g></svg>