<svg width="139" height="137" viewBox="0 0 139 137" fill="none" xmlns="http://www.w3.org/2000/svg">
<g clip-path="url(#clip0_4624_10953)">
<path d="M69.5 14.4203V25.2681H58.6406V14.4203H69.5ZM58.6406 78.1509V93.609H69.5V78.1509H58.6406ZM91.2188 137V126.152H80.3594V115.305H69.5V137H91.2188ZM112.938 56.4554H80.3594V67.3032H112.938V56.4554ZM112.938 78.1509H128.141V67.3032H112.938V78.1509ZM112.938 93.609V104.457H139V78.1509H128.141V93.609H112.938ZM80.3594 -1.85132H69.5V14.4203H80.3594V-1.85132ZM69.5 46.9636H80.3594V25.2681H69.5V36.1158H58.6406V67.3032H69.5V46.9636ZM0 56.4554V78.1509H10.8594V67.3032H27.1484V56.4554H0ZM80.3594 78.1509V67.3032H69.5V78.1509H80.3594ZM102.078 88.9987H112.938V78.1509H102.078V88.9987ZM128.141 67.3032H139V56.4554H128.141V67.3032ZM91.2188 78.1509H80.3594V93.609H69.5V104.457H91.2188V78.1509ZM58.6406 115.305H69.5V104.457H58.6406V115.305ZM91.2188 104.457V115.305H112.938V104.457H91.2188ZM123.797 126.152V115.305H112.938V126.152H123.797ZM139 137V126.152H123.797V137H139ZM102.078 137H112.938V126.152H102.078V137ZM48.8672 67.3032V56.4554H38.0078V67.3032H27.1484V78.1509H58.6406V67.3032H48.8672ZM48.8672 46.9636H0V-1.85132H48.8672V46.9636ZM38.0078 8.99644H10.8594V36.1158H38.0078V8.99644ZM29.8633 17.1323H19.0039V27.98H29.8633V17.1323ZM139 -1.85132V46.9636H90.1328V-1.85132H139ZM128.141 8.99644H100.992V36.1158H128.141V8.99644ZM119.996 17.1323H109.137V27.98H119.996V17.1323ZM0 88.1851H48.8672V137H0V88.1851ZM10.8594 126.152H38.0078V99.0329H10.8594V126.152ZM19.0039 118.016H29.8633V107.169H19.0039V118.016Z" fill="#F4F4F4"/>
</g>
<defs>
<clipPath id="clip0_4624_10953">
<rect width="139" height="137" fill="white"/>
</clipPath>
</defs>
</svg>
