<svg width="42" height="37" viewBox="0 0 42 37" fill="none" xmlns="http://www.w3.org/2000/svg">
<path d="M4.84197 0H29.3238C31.9896 0 34.1658 2.17617 34.1658 4.84197V30.0311C34.1658 32.6969 31.9896 34.8731 29.3238 34.8731H4.84197C2.17617 34.8731 0 32.6969 0 30.0311V4.78756C0 2.17617 2.17617 0 4.84197 0Z" fill="#4A566E"/>
<path d="M15.8316 22.7951L8.65026 15.6137L0 24.264V26.0593V29.9764C0 32.6422 2.17617 34.8184 4.84197 34.8184H29.3238C31.9896 34.8184 34.1658 32.6422 34.1658 29.9764V26.0593V20.6733L26.0596 12.5127L15.8316 22.7951Z" fill="#4F46E5"/>
<path d="M15.614 14.5806C17.2966 14.5806 18.6606 13.2165 18.6606 11.5339C18.6606 9.85133 17.2966 8.4873 15.614 8.4873C13.9314 8.4873 12.5674 9.85133 12.5674 11.5339C12.5674 13.2165 13.9314 14.5806 15.614 14.5806Z" fill="#FFCC03"/>
<path d="M34.1659 36.8862C38.4926 36.8862 42.0001 33.3787 42.0001 29.052C42.0001 24.7253 38.4926 21.2178 34.1659 21.2178C29.8392 21.2178 26.3317 24.7253 26.3317 29.052C26.3317 33.3787 29.8392 36.8862 34.1659 36.8862Z" fill="white"/>
</svg>
