<svg width="30" height="29" viewBox="0 0 30 29" fill="none" xmlns="http://www.w3.org/2000/svg">
<path d="M28 14.0001C28 7.37216 22.6274 2 16.0002 2C9.37264 2 4 7.37216 4 14.0001C4 20.6271 9.37264 25.9997 16.0002 25.9997C22.6274 25.9997 28 20.6271 28 14.0001Z" fill="#2897F3"/>
<path d="M19.2491 19.3921C19.182 19.2938 19.0533 19.2589 18.9458 19.3098C17.7568 19.8727 16.4072 20.4678 16.1423 20.5198C16.1356 20.5139 16.125 20.503 16.1112 20.4842C16.0753 20.4355 16.0578 20.372 16.0578 20.2899C16.0578 19.6173 16.5655 17.5712 17.5666 14.2087C18.4107 11.3835 18.5084 10.7986 18.5084 10.6043C18.5084 10.3045 18.3936 10.0512 18.1763 9.8717C17.9699 9.70148 17.6815 9.61523 17.3192 9.61523C16.7165 9.61523 16.018 9.84403 15.1838 10.3147C14.3753 10.771 13.4737 11.5439 12.5042 12.6118C12.4283 12.6954 12.4203 12.8204 12.4851 12.913C12.5499 13.0057 12.6701 13.0409 12.7746 12.9984C13.115 12.8594 14.8257 12.1587 15.075 12.002C15.2792 11.874 15.456 11.8091 15.6004 11.8091C15.6056 11.8091 15.61 11.8093 15.6138 11.8096C15.6155 11.8191 15.6171 11.8338 15.6171 11.8547C15.6171 12.0021 15.5868 12.1766 15.5274 12.3724C14.0696 17.0955 13.361 19.9909 13.361 21.2241C13.361 21.6594 13.482 22.0098 13.7205 22.2655C13.9636 22.5264 14.2915 22.6586 14.695 22.6586C15.1251 22.6586 15.6485 22.479 16.2952 22.1094C16.9209 21.7518 17.876 20.9653 19.215 19.7045C19.3018 19.6229 19.3162 19.4904 19.2491 19.3921Z" fill="white"/>
<path d="M19.2026 5.70928C18.9644 5.46543 18.6595 5.3418 18.2966 5.3418C17.8448 5.3418 17.4513 5.52034 17.1272 5.87248C16.8082 6.21882 16.6465 6.64382 16.6465 7.13561C16.6465 7.52418 16.7656 7.84619 17.0006 8.09265C17.2387 8.34283 17.5394 8.46966 17.8943 8.46966C18.3276 8.46966 18.719 8.2811 19.0575 7.90922C19.3901 7.54387 19.5587 7.11433 19.5587 6.63255C19.5588 6.26231 19.439 5.95172 19.2026 5.70928Z" fill="white"/>
</svg>
