<svg width="30" height="32" viewBox="0 0 30 32" fill="none" xmlns="http://www.w3.org/2000/svg">
<g filter="url(#filter0_d_4624_10969)">
<path d="M25.4382 9.34302C25.4265 8.49097 25.2611 7.64739 24.9494 6.85002C24.6792 6.17744 24.2664 5.56661 23.7374 5.05658C23.2085 4.54654 22.5751 4.1485 21.8776 3.88789C21.0613 3.59242 20.199 3.43265 19.3272 3.41539C18.2049 3.36702 17.8491 3.35352 15.0001 3.35352C12.1511 3.35352 11.7859 3.35352 10.6717 3.41539C9.80043 3.43278 8.93849 3.59254 8.12258 3.88789C7.42498 4.14832 6.79144 4.54629 6.26249 5.05635C5.73353 5.56641 5.32082 6.17733 5.05075 6.85002C4.74372 7.63654 4.57839 8.46789 4.56192 9.30814C4.51175 10.3915 4.49658 10.7346 4.49658 13.4819C4.49658 16.2291 4.49658 16.5801 4.56192 17.6556C4.57942 18.4971 4.74392 19.3274 5.05075 20.116C5.32127 20.7885 5.73429 21.3992 6.26342 21.909C6.79255 22.4189 7.42616 22.8167 8.12375 23.077C8.93742 23.3844 9.79952 23.5556 10.6729 23.5833C11.7964 23.6316 12.1522 23.6463 15.0012 23.6463C17.8502 23.6463 18.2154 23.6463 19.3296 23.5833C20.2013 23.5667 21.0637 23.4073 21.8799 23.1119C22.5772 22.851 23.2105 22.4528 23.7394 21.9428C24.2683 21.4328 24.6812 20.8222 24.9517 20.1498C25.2586 19.3623 25.4231 18.532 25.4406 17.6894C25.4907 16.6071 25.5059 16.264 25.5059 13.5156C25.5036 10.7684 25.5036 10.4196 25.4382 9.34302ZM14.9931 18.6771C12.0134 18.6771 9.59958 16.3495 9.59958 13.4763C9.59958 10.603 12.0134 8.27539 14.9931 8.27539C16.4235 8.27539 17.7954 8.82334 18.8069 9.79869C19.8183 10.774 20.3866 12.0969 20.3866 13.4763C20.3866 14.8556 19.8183 16.1785 18.8069 17.1538C17.7954 18.1292 16.4235 18.6771 14.9931 18.6771ZM20.6012 9.29577C20.436 9.29591 20.2724 9.26465 20.1198 9.20375C19.9671 9.14286 19.8284 9.05353 19.7116 8.94089C19.5948 8.82825 19.5022 8.69449 19.439 8.54729C19.3759 8.40009 19.3434 8.24232 19.3436 8.08302C19.3436 7.92383 19.3761 7.7662 19.4393 7.61913C19.5024 7.47206 19.595 7.33843 19.7118 7.22587C19.8285 7.11331 19.9671 7.02402 20.1196 6.9631C20.2721 6.90218 20.4356 6.87083 20.6007 6.87083C20.7657 6.87083 20.9292 6.90218 21.0817 6.9631C21.2342 7.02402 21.3728 7.11331 21.4896 7.22587C21.6063 7.33843 21.6989 7.47206 21.7621 7.61913C21.8252 7.7662 21.8577 7.92383 21.8577 8.08302C21.8577 8.75352 21.2954 9.29577 20.6012 9.29577Z" fill="#F4F4F4"/>
<path d="M14.9932 16.8547C16.9282 16.8547 18.4967 15.3421 18.4967 13.4763C18.4967 11.6105 16.9282 10.0979 14.9932 10.0979C13.0583 10.0979 11.4897 11.6105 11.4897 13.4763C11.4897 15.3421 13.0583 16.8547 14.9932 16.8547Z" fill="#F4F4F4"/>
</g>
<defs>
<filter id="filter0_d_4624_10969" x="-3" y="0" width="36" height="35" filterUnits="userSpaceOnUse" color-interpolation-filters="sRGB">
<feFlood flood-opacity="0" result="BackgroundImageFix"/>
<feColorMatrix in="SourceAlpha" type="matrix" values="0 0 0 0 0 0 0 0 0 0 0 0 0 0 0 0 0 0 127 0" result="hardAlpha"/>
<feOffset dy="4"/>
<feGaussianBlur stdDeviation="2"/>
<feComposite in2="hardAlpha" operator="out"/>
<feColorMatrix type="matrix" values="0 0 0 0 0 0 0 0 0 0 0 0 0 0 0 0 0 0 0.25 0"/>
<feBlend mode="normal" in2="BackgroundImageFix" result="effect1_dropShadow_4624_10969"/>
<feBlend mode="normal" in="SourceGraphic" in2="effect1_dropShadow_4624_10969" result="shape"/>
</filter>
</defs>
</svg>
