<svg width="22" height="28" viewBox="0 0 22 28" fill="none" xmlns="http://www.w3.org/2000/svg">
<path id="Vector" d="M11.0026 13.667C11.6451 13.667 12.1941 13.4382 12.6497 12.9807C13.1052 12.5232 13.333 11.9732 13.333 11.3307C13.333 10.6882 13.1042 10.1392 12.6467 9.68366C12.1892 9.2281 11.6392 9.00033 10.9967 9.00033C10.3542 9.00033 9.80523 9.22909 9.34968 9.68663C8.89412 10.1441 8.66634 10.6941 8.66634 11.3366C8.66634 11.9791 8.89511 12.5281 9.35264 12.9837C9.81015 13.4392 10.3602 13.667 11.0026 13.667ZM10.9997 27.3337C7.4219 24.2892 4.74967 21.4614 2.98301 18.8503C1.21634 16.2392 0.333008 13.8225 0.333008 11.6003C0.333008 8.26699 1.40523 5.61144 3.54967 3.63366C5.69412 1.65588 8.17745 0.666992 10.9997 0.666992C13.8219 0.666992 16.3052 1.65588 18.4497 3.63366C20.5941 5.61144 21.6663 8.26699 21.6663 11.6003C21.6663 13.8225 20.783 16.2392 19.0163 18.8503C17.2497 21.4614 14.5775 24.2892 10.9997 27.3337Z" fill="#F4F4F4"/>
</svg>
