<svg width="28" height="28" viewBox="0 0 28 28" fill="none" xmlns="http://www.w3.org/2000/svg">
<path id="Vector" d="M13.0337 23.567H14.867V21.8337C16.2225 21.6781 17.2781 21.2614 18.0337 20.5837C18.7892 19.9059 19.167 19.0003 19.167 17.867C19.167 16.7337 18.8448 15.8114 18.2003 15.1003C17.5559 14.3892 16.467 13.7114 14.9337 13.067C13.6448 12.5337 12.7114 12.0559 12.1337 11.6337C11.5559 11.2114 11.267 10.6448 11.267 9.93366C11.267 9.24477 11.517 8.70033 12.017 8.30032C12.517 7.90033 13.2003 7.70033 14.067 7.70033C14.7337 7.70033 15.3114 7.85588 15.8003 8.16699C16.2892 8.4781 16.7003 8.94477 17.0337 9.56699L18.6337 8.80033C18.2559 8.02255 17.7559 7.41144 17.1337 6.96699C16.5114 6.52255 15.7781 6.25588 14.9337 6.16699V4.46699H13.1003V6.16699C11.967 6.32255 11.0725 6.73921 10.417 7.41699C9.76144 8.09477 9.43366 8.93366 9.43366 9.93366C9.43366 11.0225 9.76699 11.8892 10.4337 12.5337C11.1003 13.1781 12.1003 13.7781 13.4337 14.3337C14.9225 14.9559 15.9448 15.517 16.5003 16.017C17.0559 16.517 17.3337 17.1337 17.3337 17.867C17.3337 18.5781 17.0392 19.1503 16.4503 19.5837C15.8614 20.017 15.1225 20.2337 14.2337 20.2337C13.367 20.2337 12.5948 19.9892 11.917 19.5003C11.2392 19.0114 10.767 18.3448 10.5003 17.5003L8.80033 18.067C9.26699 19.0892 9.83921 19.8948 10.517 20.4837C11.1948 21.0725 12.0337 21.5003 13.0337 21.767V23.567ZM14.0003 27.3337C12.1781 27.3337 10.4559 26.9837 8.83366 26.2837C7.21144 25.5837 5.79477 24.6281 4.58366 23.417C3.37255 22.2059 2.41699 20.7892 1.71699 19.167C1.01699 17.5448 0.666992 15.8225 0.666992 14.0003C0.666992 12.1559 1.01699 10.4225 1.71699 8.80033C2.41699 7.1781 3.37255 5.76699 4.58366 4.56699C5.79477 3.36699 7.21144 2.41699 8.83366 1.71699C10.4559 1.01699 12.1781 0.666992 14.0003 0.666992C15.8448 0.666992 17.5781 1.01699 19.2003 1.71699C20.8225 2.41699 22.2337 3.36699 23.4337 4.56699C24.6337 5.76699 25.5837 7.1781 26.2837 8.80033C26.9837 10.4225 27.3337 12.1559 27.3337 14.0003C27.3337 15.8225 26.9837 17.5448 26.2837 19.167C25.5837 20.7892 24.6337 22.2059 23.4337 23.417C22.2337 24.6281 20.8225 25.5837 19.2003 26.2837C17.5781 26.9837 15.8448 27.3337 14.0003 27.3337Z" fill="#F4F4F4"/>
</svg>
