<svg width="24" height="25" viewBox="0 0 24 25" fill="none" xmlns="http://www.w3.org/2000/svg">
<g id="atom/icon/pay/default" clip-path="url(#clip0_3749_7992)">
<path id="Vector" d="M17.27 5.50877L15.147 1.87177C15.046 1.69877 14.88 1.57277 14.686 1.52277C14.493 1.47477 14.286 1.50277 14.114 1.60577L7.62402 5.49977L17.27 5.50877Z" fill="white"/>
<path id="Vector_2" d="M3 6.5C2.45 6.5 2 6.05 2 5.5C2 4.95 2.45 4.5 3 4.5H6.37L9.71 2.5H3C1.52 2.5 0.29 3.58 0.05 5C0.03 5.08 0 5.16 0 5.25V20.5C0 22.15 1.35 23.5 3 23.5H20C21.1 23.5 22 22.6 22 21.5V19.5H19.5C17.02 19.5 15 17.48 15 15C15 12.52 17.02 10.5 19.5 10.5H22V8.5C22 7.4 21.1 6.5 20 6.5H3ZM19 4.5C19 3.49 18.25 2.65 17.27 2.52L19 5.5V4.5Z" fill="#2897F3"/>
<path id="Vector_3" d="M23.25 12H19.5C17.846 12 16.5 13.346 16.5 15C16.5 16.654 17.846 18 19.5 18H23.25C23.664 18 24 17.664 24 17.25V12.75C24 12.336 23.664 12 23.25 12ZM19.5 16C18.948 16 18.5 15.552 18.5 15C18.5 14.448 18.948 14 19.5 14C20.052 14 20.5 14.448 20.5 15C20.5 15.552 20.052 16 19.5 16Z" fill="white"/>
</g>
<defs>
<clipPath id="clip0_3749_7992">
<rect width="24" height="24" fill="white" transform="translate(0 0.5)"/>
</clipPath>
</defs>
</svg>
