<?xml version="1.0"?>
<svg xmlns="http://www.w3.org/2000/svg" viewBox="0 0 32 32"><g id="Layer_13" data-name="Layer 13"><path d="M28,4H26V3a1,1,0,0,0-2,0V4H20V3a1,1,0,0,0-2,0V4H14V3a1,1,0,0,0-2,0V4H8V3A1,1,0,0,0,6,3V4H4A2,2,0,0,0,2,6V28a2,2,0,0,0,2,2H28a2,2,0,0,0,2-2V6A2,2,0,0,0,28,4ZM6,6A1,1,0,0,0,8,6h4a1,1,0,0,0,2,0h4a1,1,0,0,0,2,0h4a1,1,0,0,0,2,0h2v4H4V6ZM4,28V12H28V28Z"/><path d="M21.27,17.13A6,6,0,0,0,10,19.61l-.31-.32a1,1,0,0,0-1.42,1.42l2,2a1,1,0,0,0,1.42,0l2-2a1,1,0,0,0-1.42-1.42l-.24.25a4,4,0,0,1,7.46-1.45A3.85,3.85,0,0,1,20,20a4,4,0,0,1-4,4,3.85,3.85,0,0,1-1.91-.49,1,1,0,0,0-1,1.76,6,6,0,0,0,8.14-8.14Z"/></g></svg>
