<svg width="27" height="19" viewBox="0 0 27 19" fill="none" xmlns="http://www.w3.org/2000/svg">
<path id="Vector" d="M3 0.5C1.34531 0.5 0 1.84531 0 3.5L0 6.5C0 6.9125 0.346875 7.23594 0.735937 7.37188C1.61719 7.67656 2.25 8.51562 2.25 9.5C2.25 10.4844 1.61719 11.3234 0.735937 11.6281C0.346875 11.7641 0 12.0875 0 12.5L0 15.5C0 17.1547 1.34531 18.5 3 18.5L24 18.5C25.6547 18.5 27 17.1547 27 15.5V12.5C27 12.0875 26.6531 11.7641 26.2641 11.6281C25.3828 11.3234 24.75 10.4844 24.75 9.5C24.75 8.51562 25.3828 7.67656 26.2641 7.37188C26.6531 7.23594 27 6.9125 27 6.5V3.5C27 1.84531 25.6547 0.5 24 0.5L3 0.5ZM6 5.75L6 13.25C6 13.6625 6.3375 14 6.75 14L20.25 14C20.6625 14 21 13.6625 21 13.25L21 5.75C21 5.3375 20.6625 5 20.25 5L6.75 5C6.3375 5 6 5.3375 6 5.75ZM4.5 5C4.5 4.17031 5.17031 3.5 6 3.5L21 3.5C21.8297 3.5 22.5 4.17031 22.5 5L22.5 14C22.5 14.8297 21.8297 15.5 21 15.5L6 15.5C5.17031 15.5 4.5 14.8297 4.5 14L4.5 5Z" fill="#F4F4F4"/>
</svg>
