<svg xmlns="http://www.w3.org/2000/svg" xmlns:xlink="http://www.w3.org/1999/xlink" width="1080" zoomAndPan="magnify" viewBox="0 0 810 809.999993" height="1080" preserveAspectRatio="xMidYMid meet" version="1.0"><defs><clipPath id="d19d22eea8"><path d="M 84 733 L 809.921875 733 L 809.921875 737.292969 L 84 737.292969 Z M 84 733 " clip-rule="nonzero"/></clipPath></defs><path fill="#f0f0f0" d="M 178.257812 627.328125 C 178.257812 628.273438 178.210938 629.21875 178.117188 630.160156 C 178.027344 631.105469 177.886719 632.039062 177.703125 632.96875 C 177.519531 633.894531 177.289062 634.8125 177.011719 635.71875 C 176.738281 636.625 176.421875 637.515625 176.058594 638.390625 C 175.695312 639.265625 175.292969 640.117188 174.847656 640.953125 C 174.398438 641.789062 173.914062 642.601562 173.386719 643.386719 C 172.863281 644.175781 172.300781 644.933594 171.699219 645.664062 C 171.097656 646.398438 170.464844 647.097656 169.792969 647.765625 C 169.125 648.4375 168.425781 649.070312 167.695312 649.671875 C 166.960938 650.273438 166.203125 650.835938 165.414062 651.363281 C 164.628906 651.886719 163.816406 652.375 162.984375 652.820312 C 162.148438 653.265625 161.292969 653.671875 160.421875 654.03125 C 159.546875 654.394531 158.65625 654.714844 157.75 654.988281 C 156.84375 655.261719 155.929688 655.492188 155 655.675781 C 154.070312 655.863281 153.136719 656 152.195312 656.09375 C 151.253906 656.1875 150.308594 656.234375 149.363281 656.234375 C 148.417969 656.234375 147.472656 656.1875 146.53125 656.09375 C 145.589844 656 144.652344 655.863281 143.726562 655.675781 C 142.796875 655.492188 141.878906 655.261719 140.976562 654.988281 C 140.070312 654.714844 139.179688 654.394531 138.304688 654.03125 C 137.429688 653.671875 136.574219 653.265625 135.742188 652.820312 C 134.90625 652.375 134.097656 651.886719 133.308594 651.363281 C 132.523438 650.835938 131.761719 650.273438 131.03125 649.671875 C 130.300781 649.070312 129.601562 648.4375 128.929688 647.765625 C 128.261719 647.097656 127.625 646.398438 127.027344 645.664062 C 126.425781 644.933594 125.863281 644.175781 125.335938 643.386719 C 124.8125 642.601562 124.324219 641.789062 123.878906 640.953125 C 123.433594 640.117188 123.027344 639.265625 122.667969 638.390625 C 122.304688 637.515625 121.984375 636.625 121.710938 635.71875 C 121.4375 634.8125 121.207031 633.894531 121.023438 632.96875 C 120.835938 632.039062 120.699219 631.105469 120.605469 630.160156 C 120.511719 629.21875 120.46875 628.273438 120.46875 627.328125 C 120.46875 626.382812 120.511719 625.4375 120.605469 624.496094 C 120.699219 623.554688 120.835938 622.617188 121.023438 621.6875 C 121.207031 620.761719 121.4375 619.84375 121.710938 618.9375 C 121.984375 618.03125 122.304688 617.140625 122.667969 616.265625 C 123.027344 615.390625 123.433594 614.539062 123.878906 613.703125 C 124.324219 612.867188 124.8125 612.058594 125.335938 611.269531 C 125.863281 610.480469 126.425781 609.722656 127.027344 608.992188 C 127.625 608.257812 128.261719 607.558594 128.929688 606.890625 C 129.601562 606.21875 130.300781 605.585938 131.03125 604.984375 C 131.761719 604.382812 132.523438 603.820312 133.308594 603.292969 C 134.097656 602.769531 134.90625 602.28125 135.742188 601.835938 C 136.574219 601.390625 137.429688 600.984375 138.304688 600.625 C 139.179688 600.261719 140.070312 599.941406 140.976562 599.667969 C 141.878906 599.394531 142.796875 599.164062 143.726562 598.980469 C 144.652344 598.792969 145.589844 598.65625 146.53125 598.5625 C 147.472656 598.46875 148.417969 598.421875 149.363281 598.421875 C 150.308594 598.421875 151.253906 598.46875 152.195312 598.5625 C 153.136719 598.65625 154.070312 598.792969 155 598.980469 C 155.929688 599.164062 156.84375 599.394531 157.75 599.667969 C 158.65625 599.941406 159.546875 600.261719 160.421875 600.625 C 161.292969 600.984375 162.148438 601.390625 162.984375 601.835938 C 163.816406 602.28125 164.628906 602.769531 165.414062 603.292969 C 166.203125 603.820312 166.960938 604.382812 167.695312 604.984375 C 168.425781 605.585938 169.125 606.21875 169.792969 606.890625 C 170.464844 607.558594 171.097656 608.257812 171.699219 608.992188 C 172.300781 609.722656 172.863281 610.480469 173.386719 611.269531 C 173.914062 612.058594 174.398438 612.867188 174.847656 613.703125 C 175.292969 614.539062 175.695312 615.390625 176.058594 616.265625 C 176.421875 617.140625 176.738281 618.03125 177.011719 618.9375 C 177.289062 619.84375 177.519531 620.761719 177.703125 621.6875 C 177.886719 622.617188 178.027344 623.554688 178.117188 624.496094 C 178.210938 625.4375 178.257812 626.382812 178.257812 627.328125 Z M 178.257812 627.328125 " fill-opacity="1" fill-rule="nonzero"/><path fill="#f0f0f0" d="M 144.660156 676.003906 L 152.816406 676.003906 L 152.816406 733.117188 L 144.660156 733.117188 Z M 144.660156 676.003906 " fill-opacity="1" fill-rule="nonzero"/><path fill="#3f3d56" d="M 669.824219 388.449219 C 669.824219 392.273438 669.730469 396.09375 669.542969 399.910156 C 669.355469 403.730469 669.074219 407.542969 668.699219 411.34375 C 668.324219 415.148438 667.859375 418.941406 667.296875 422.726562 C 666.734375 426.507812 666.082031 430.273438 665.335938 434.019531 C 664.589844 437.769531 663.753906 441.5 662.824219 445.207031 C 661.898438 448.917969 660.878906 452.597656 659.769531 456.257812 C 658.660156 459.914062 657.460938 463.542969 656.171875 467.144531 C 654.886719 470.742188 653.511719 474.308594 652.050781 477.839844 C 650.585938 481.371094 649.039062 484.867188 647.40625 488.324219 C 645.769531 491.777344 644.050781 495.191406 642.25 498.5625 C 640.449219 501.933594 638.566406 505.261719 636.601562 508.539062 C 634.636719 511.820312 632.59375 515.046875 630.46875 518.226562 C 628.347656 521.40625 626.148438 524.527344 623.871094 527.601562 C 621.59375 530.671875 619.242188 533.683594 616.820312 536.636719 C 614.394531 539.59375 611.898438 542.488281 609.332031 545.320312 C 606.765625 548.152344 604.132812 550.921875 601.429688 553.625 C 598.726562 556.328125 595.960938 558.960938 593.128906 561.527344 C 590.296875 564.097656 587.40625 566.59375 584.449219 569.019531 C 581.496094 571.441406 578.484375 573.792969 575.414062 576.070312 C 572.34375 578.347656 569.222656 580.550781 566.042969 582.671875 C 562.867188 584.796875 559.640625 586.84375 556.359375 588.808594 C 553.082031 590.773438 549.757812 592.65625 546.386719 594.457031 C 543.019531 596.261719 539.605469 597.980469 536.152344 599.613281 C 532.695312 601.246094 529.203125 602.796875 525.671875 604.257812 C 522.140625 605.722656 518.578125 607.097656 514.980469 608.386719 C 511.382812 609.671875 507.753906 610.871094 504.097656 611.980469 C 500.441406 613.09375 496.757812 614.109375 493.050781 615.039062 C 489.34375 615.96875 485.617188 616.804688 481.867188 617.550781 C 478.121094 618.296875 474.355469 618.953125 470.574219 619.511719 C 466.792969 620.074219 463.003906 620.542969 459.199219 620.914062 C 455.398438 621.289062 451.585938 621.570312 447.769531 621.757812 C 443.953125 621.945312 440.132812 622.039062 436.3125 622.039062 C 432.488281 622.039062 428.671875 621.945312 424.855469 621.757812 C 421.035156 621.570312 417.226562 621.289062 413.421875 620.914062 C 409.621094 620.542969 405.828125 620.074219 402.046875 619.511719 C 398.269531 618.953125 394.503906 618.296875 390.753906 617.550781 C 387.007812 616.804688 383.28125 615.96875 379.574219 615.039062 C 375.867188 614.109375 372.183594 613.09375 368.527344 611.980469 C 364.871094 610.871094 361.242188 609.671875 357.644531 608.386719 C 354.046875 607.097656 350.480469 605.722656 346.949219 604.257812 C 343.417969 602.796875 339.925781 601.246094 336.472656 599.613281 C 333.015625 597.980469 329.605469 596.261719 326.234375 594.457031 C 322.863281 592.65625 319.539062 590.773438 316.261719 588.808594 C 312.984375 586.84375 309.757812 584.796875 306.578125 582.671875 C 303.402344 580.550781 300.277344 578.347656 297.207031 576.070312 C 294.140625 573.792969 291.125 571.441406 288.171875 569.019531 C 285.21875 566.59375 282.324219 564.097656 279.492188 561.527344 C 276.664062 558.960938 273.894531 556.328125 271.191406 553.625 C 268.492188 550.921875 265.855469 548.152344 263.289062 545.320312 C 260.722656 542.488281 258.226562 539.59375 255.804688 536.636719 C 253.378906 533.683594 251.027344 530.671875 248.753906 527.601562 C 246.476562 524.527344 244.277344 521.40625 242.152344 518.226562 C 240.03125 515.046875 237.984375 511.820312 236.019531 508.539062 C 234.054688 505.261719 232.171875 501.933594 230.371094 498.5625 C 228.570312 495.191406 226.851562 491.777344 225.21875 488.324219 C 223.585938 484.867188 222.035156 481.371094 220.574219 477.839844 C 219.113281 474.308594 217.738281 470.742188 216.449219 467.144531 C 215.160156 463.542969 213.964844 459.914062 212.855469 456.257812 C 211.746094 452.597656 210.726562 448.914062 209.796875 445.207031 C 208.867188 441.5 208.03125 437.769531 207.285156 434.019531 C 206.539062 430.273438 205.886719 426.507812 205.328125 422.726562 C 204.765625 418.941406 204.296875 415.148438 203.921875 411.34375 C 203.550781 407.542969 203.269531 403.730469 203.082031 399.910156 C 202.894531 396.09375 202.800781 392.273438 202.800781 388.449219 C 202.800781 384.625 202.894531 380.804688 203.082031 376.988281 C 203.269531 373.167969 203.546875 369.359375 203.921875 365.554688 C 204.296875 361.75 204.765625 357.957031 205.328125 354.175781 C 205.886719 350.394531 206.539062 346.628906 207.285156 342.878906 C 208.03125 339.128906 208.867188 335.398438 209.796875 331.691406 C 210.726562 327.984375 211.746094 324.300781 212.855469 320.640625 C 213.964844 316.984375 215.160156 313.355469 216.449219 309.753906 C 217.738281 306.15625 219.113281 302.589844 220.574219 299.058594 C 222.035156 295.527344 223.585938 292.03125 225.21875 288.578125 C 226.851562 285.121094 228.570312 281.707031 230.371094 278.335938 C 232.171875 274.964844 234.054688 271.640625 236.019531 268.359375 C 237.984375 265.082031 240.03125 261.851562 242.152344 258.671875 C 244.277344 255.496094 246.476562 252.371094 248.753906 249.300781 C 251.027344 246.230469 253.378906 243.214844 255.804688 240.261719 C 258.226562 237.304688 260.722656 234.414062 263.289062 231.578125 C 265.855469 228.746094 268.492188 225.980469 271.191406 223.277344 C 273.894531 220.574219 276.664062 217.9375 279.492188 215.371094 C 282.324219 212.804688 285.21875 210.308594 288.171875 207.882812 C 291.125 205.457031 294.140625 203.105469 297.207031 200.828125 C 300.277344 198.550781 303.402344 196.351562 306.578125 194.226562 C 309.757812 192.101562 312.984375 190.058594 316.261719 188.09375 C 319.539062 186.128906 322.863281 184.242188 326.234375 182.441406 C 329.605469 180.640625 333.015625 178.921875 336.472656 177.285156 C 339.925781 175.652344 343.417969 174.101562 346.949219 172.640625 C 350.480469 171.175781 354.046875 169.800781 357.644531 168.515625 C 361.242188 167.226562 364.871094 166.027344 368.527344 164.917969 C 372.183594 163.808594 375.867188 162.789062 379.574219 161.859375 C 383.28125 160.929688 387.007812 160.09375 390.753906 159.347656 C 394.503906 158.601562 398.269531 157.949219 402.046875 157.386719 C 405.828125 156.828125 409.621094 156.359375 413.421875 155.984375 C 417.226562 155.609375 421.035156 155.328125 424.855469 155.140625 C 428.671875 154.953125 432.488281 154.859375 436.3125 154.859375 C 440.132812 154.859375 443.953125 154.953125 447.769531 155.140625 C 451.585938 155.328125 455.398438 155.609375 459.199219 155.984375 C 463.003906 156.359375 466.792969 156.828125 470.574219 157.386719 C 474.355469 157.949219 478.121094 158.601562 481.867188 159.347656 C 485.617188 160.09375 489.34375 160.929688 493.050781 161.859375 C 496.757812 162.789062 500.441406 163.808594 504.097656 164.917969 C 507.753906 166.027344 511.382812 167.226562 514.980469 168.515625 C 518.578125 169.800781 522.140625 171.175781 525.671875 172.640625 C 529.203125 174.101562 532.695312 175.652344 536.152344 177.285156 C 539.605469 178.921875 543.019531 180.640625 546.386719 182.441406 C 549.757812 184.242188 553.082031 186.128906 556.359375 188.09375 C 559.640625 190.058594 562.867188 192.101562 566.042969 194.226562 C 569.222656 196.351562 572.34375 198.550781 575.414062 200.828125 C 578.484375 203.105469 581.496094 205.457031 584.449219 207.882812 C 587.40625 210.308594 590.296875 212.804688 593.128906 215.371094 C 595.960938 217.9375 598.726562 220.574219 601.429688 223.277344 C 604.132812 225.980469 606.765625 228.746094 609.332031 231.578125 C 611.898438 234.414062 614.394531 237.304688 616.820312 240.261719 C 619.242188 243.214844 621.59375 246.230469 623.871094 249.300781 C 626.148438 252.371094 628.347656 255.496094 630.46875 258.671875 C 632.59375 261.851562 634.636719 265.082031 636.601562 268.359375 C 638.566406 271.640625 640.449219 274.964844 642.25 278.335938 C 644.054688 281.707031 645.769531 285.121094 647.40625 288.578125 C 649.039062 292.03125 650.585938 295.527344 652.050781 299.058594 C 653.511719 302.589844 654.886719 306.15625 656.175781 309.753906 C 657.460938 313.355469 658.660156 316.984375 659.769531 320.640625 C 660.878906 324.300781 661.898438 327.984375 662.824219 331.691406 C 663.753906 335.398438 664.589844 339.128906 665.335938 342.878906 C 666.082031 346.628906 666.734375 350.394531 667.296875 354.175781 C 667.859375 357.957031 668.324219 361.75 668.699219 365.554688 C 669.074219 369.359375 669.355469 373.167969 669.542969 376.988281 C 669.730469 380.804688 669.824219 384.625 669.824219 388.449219 Z M 669.824219 388.449219 " fill-opacity="1" fill-rule="nonzero"/><path fill="#ffffff" d="M 289.300781 407.203125 C 290.023438 406.335938 290.769531 405.492188 291.539062 404.667969 C 292.304688 403.84375 293.097656 403.042969 293.90625 402.261719 C 294.71875 401.480469 295.554688 400.722656 296.40625 399.988281 C 297.261719 399.25 298.132812 398.539062 299.027344 397.851562 C 299.917969 397.164062 300.832031 396.503906 301.757812 395.863281 C 302.6875 395.226562 303.632812 394.613281 304.59375 394.027344 C 305.558594 393.441406 306.535156 392.882812 307.527344 392.351562 C 308.519531 391.820312 309.527344 391.3125 310.546875 390.835938 C 311.570312 390.359375 312.601562 389.910156 313.648438 389.488281 C 314.691406 389.066406 315.746094 388.675781 316.8125 388.3125 C 317.878906 387.949219 318.957031 387.617188 320.039062 387.3125 C 321.125 387.007812 322.21875 386.734375 323.316406 386.488281 C 324.417969 386.246094 325.523438 386.03125 326.632812 385.847656 C 327.746094 385.660156 328.863281 385.507812 329.980469 385.386719 C 331.101562 385.261719 332.222656 385.167969 333.347656 385.109375 C 334.472656 385.046875 335.597656 385.015625 336.726562 385.015625 C 337.851562 385.015625 338.976562 385.046875 340.101562 385.109375 C 341.226562 385.171875 342.351562 385.261719 343.46875 385.386719 C 344.589844 385.507812 345.707031 385.660156 346.816406 385.847656 C 347.929688 386.03125 349.035156 386.246094 350.132812 386.488281 C 351.234375 386.734375 352.324219 387.007812 353.410156 387.3125 C 354.496094 387.617188 355.570312 387.949219 356.636719 388.3125 C 357.703125 388.675781 358.757812 389.066406 359.804688 389.488281 C 360.847656 389.910156 361.882812 390.359375 362.902344 390.835938 C 363.921875 391.3125 364.929688 391.820312 365.921875 392.351562 C 366.914062 392.882812 367.894531 393.441406 368.855469 394.027344 C 369.816406 394.613281 370.761719 395.226562 371.691406 395.863281 C 372.621094 396.503906 373.53125 397.164062 374.425781 397.851562 C 375.316406 398.539062 376.191406 399.25 377.042969 399.988281 C 377.898438 400.722656 378.730469 401.480469 379.542969 402.261719 C 380.355469 403.042969 381.144531 403.84375 381.914062 404.667969 C 382.683594 405.492188 383.425781 406.335938 384.148438 407.203125 C 384.960938 406.425781 385.757812 405.628906 386.53125 404.816406 C 387.304688 404 388.058594 403.164062 388.789062 402.3125 C 389.523438 401.460938 390.234375 400.589844 390.925781 399.703125 C 391.617188 398.816406 392.285156 397.914062 392.929688 396.992188 C 393.574219 396.070312 394.199219 395.136719 394.800781 394.1875 C 395.398438 393.234375 395.976562 392.269531 396.527344 391.292969 C 397.082031 390.3125 397.609375 389.320312 398.113281 388.316406 C 398.617188 387.308594 399.097656 386.292969 399.550781 385.265625 C 400.003906 384.234375 400.433594 383.195312 400.835938 382.148438 C 401.238281 381.097656 401.617188 380.039062 401.96875 378.972656 C 402.320312 377.902344 402.644531 376.828125 402.941406 375.742188 C 403.242188 374.660156 403.511719 373.566406 403.757812 372.472656 C 404 371.375 404.21875 370.269531 404.410156 369.164062 C 404.601562 368.054688 404.765625 366.941406 404.898438 365.828125 C 405.035156 364.710938 405.144531 363.589844 405.226562 362.46875 C 405.308594 361.347656 405.359375 360.226562 405.386719 359.101562 C 405.414062 357.976562 405.410156 356.855469 405.382812 355.730469 C 405.351562 354.605469 405.296875 353.484375 405.210938 352.363281 C 405.128906 351.242188 405.015625 350.121094 404.878906 349.007812 C 404.738281 347.890625 404.570312 346.777344 404.378906 345.671875 C 404.183594 344.5625 403.964844 343.460938 403.714844 342.363281 C 403.46875 341.269531 403.195312 340.179688 402.894531 339.09375 C 402.589844 338.011719 402.265625 336.9375 401.910156 335.871094 C 401.554688 334.800781 401.175781 333.746094 400.769531 332.695312 C 400.363281 331.648438 399.933594 330.609375 399.476562 329.582031 C 399.019531 328.554688 398.539062 327.539062 398.03125 326.535156 C 397.523438 325.53125 396.992188 324.542969 396.4375 323.5625 C 395.882812 322.585938 395.304688 321.625 394.699219 320.675781 C 394.097656 319.726562 393.472656 318.792969 392.824219 317.871094 C 392.175781 316.953125 391.503906 316.050781 390.8125 315.167969 C 390.121094 314.28125 389.40625 313.414062 388.671875 312.5625 C 387.933594 311.710938 387.179688 310.882812 386.402344 310.066406 C 385.628906 309.253906 384.832031 308.460938 384.015625 307.6875 C 383.203125 306.914062 382.367188 306.160156 381.515625 305.425781 C 380.664062 304.691406 379.792969 303.980469 378.90625 303.289062 C 378.019531 302.597656 377.117188 301.929688 376.195312 301.285156 C 375.277344 300.636719 374.339844 300.015625 373.390625 299.414062 C 372.441406 298.8125 371.476562 298.238281 370.496094 297.683594 C 369.519531 297.132812 368.527344 296.601562 367.523438 296.097656 C 366.519531 295.59375 365.5 295.117188 364.472656 294.660156 C 363.445312 294.207031 362.40625 293.777344 361.355469 293.375 C 360.308594 292.972656 359.25 292.59375 358.179688 292.242188 C 357.113281 291.890625 356.039062 291.566406 354.953125 291.269531 C 353.871094 290.96875 352.78125 290.699219 351.683594 290.453125 C 350.585938 290.210938 349.484375 289.992188 348.375 289.800781 C 347.269531 289.609375 346.15625 289.445312 345.042969 289.308594 C 343.925781 289.175781 342.808594 289.066406 341.6875 288.984375 C 340.566406 288.902344 339.441406 288.847656 338.320312 288.824219 C 337.195312 288.796875 336.070312 288.800781 334.949219 288.828125 C 333.824219 288.855469 332.703125 288.914062 331.582031 288.996094 C 330.460938 289.082031 329.34375 289.195312 328.226562 289.332031 C 327.113281 289.472656 326 289.636719 324.894531 289.832031 C 323.785156 290.027344 322.683594 290.246094 321.585938 290.496094 C 320.492188 290.742188 319.402344 291.015625 318.320312 291.316406 C 317.234375 291.621094 316.160156 291.949219 315.09375 292.300781 C 314.027344 292.65625 312.96875 293.035156 311.921875 293.441406 C 310.875 293.847656 309.835938 294.277344 308.808594 294.734375 C 307.78125 295.191406 306.765625 295.675781 305.765625 296.183594 C 304.761719 296.6875 303.769531 297.21875 302.792969 297.777344 C 301.816406 298.332031 300.851562 298.910156 299.902344 299.511719 C 298.957031 300.117188 298.023438 300.742188 297.101562 301.390625 C 296.183594 302.039062 295.285156 302.710938 294.398438 303.402344 C 293.511719 304.097656 292.644531 304.808594 291.796875 305.546875 C 290.945312 306.28125 290.113281 307.039062 289.300781 307.8125 C 288.488281 308.589844 287.695312 309.386719 286.921875 310.199219 C 286.148438 311.015625 285.394531 311.851562 284.660156 312.703125 C 283.925781 313.554688 283.214844 314.425781 282.523438 315.3125 C 281.835938 316.199219 281.167969 317.101562 280.519531 318.023438 C 279.875 318.945312 279.25 319.878906 278.652344 320.828125 C 278.050781 321.78125 277.476562 322.746094 276.921875 323.722656 C 276.371094 324.703125 275.839844 325.695312 275.335938 326.699219 C 274.832031 327.707031 274.355469 328.722656 273.898438 329.75 C 273.445312 330.78125 273.015625 331.820312 272.613281 332.867188 C 272.210938 333.917969 271.835938 334.976562 271.484375 336.042969 C 271.132812 337.113281 270.808594 338.1875 270.507812 339.273438 C 270.210938 340.355469 269.9375 341.449219 269.695312 342.542969 C 269.449219 343.640625 269.230469 344.746094 269.039062 345.851562 C 268.851562 346.960938 268.6875 348.074219 268.550781 349.1875 C 268.414062 350.304688 268.304688 351.425781 268.226562 352.546875 C 268.144531 353.667969 268.089844 354.789062 268.0625 355.914062 C 268.039062 357.039062 268.039062 358.160156 268.070312 359.285156 C 268.097656 360.410156 268.152344 361.53125 268.238281 362.652344 C 268.324219 363.773438 268.433594 364.894531 268.574219 366.007812 C 268.710938 367.125 268.878906 368.238281 269.074219 369.34375 C 269.265625 370.453125 269.488281 371.554688 269.734375 372.652344 C 269.980469 373.746094 270.257812 374.835938 270.558594 375.921875 C 270.859375 377.003906 271.1875 378.078125 271.539062 379.144531 C 271.894531 380.214844 272.273438 381.269531 272.679688 382.320312 C 273.085938 383.367188 273.519531 384.40625 273.976562 385.433594 C 274.433594 386.460938 274.914062 387.476562 275.421875 388.480469 C 275.925781 389.484375 276.457031 390.472656 277.011719 391.453125 C 277.570312 392.429688 278.148438 393.390625 278.75 394.339844 C 279.351562 395.289062 279.976562 396.222656 280.625 397.144531 C 281.273438 398.0625 281.945312 398.964844 282.636719 399.847656 C 283.332031 400.734375 284.046875 401.601562 284.78125 402.453125 C 285.515625 403.304688 286.269531 404.132812 287.046875 404.949219 C 287.78125 405.714844 288.53125 406.46875 289.300781 407.203125 Z M 289.300781 407.203125 " fill-opacity="1" fill-rule="nonzero"/><path fill="#ffffff" d="M 474.738281 407.203125 C 475.460938 406.335938 476.203125 405.492188 476.972656 404.667969 C 477.742188 403.84375 478.53125 403.042969 479.34375 402.261719 C 480.15625 401.480469 480.988281 400.722656 481.84375 399.988281 C 482.695312 399.25 483.570312 398.539062 484.460938 397.851562 C 485.355469 397.164062 486.265625 396.503906 487.195312 395.863281 C 488.125 395.226562 489.070312 394.613281 490.03125 394.027344 C 490.992188 393.441406 491.972656 392.882812 492.964844 392.351562 C 493.957031 391.820312 494.964844 391.3125 495.984375 390.835938 C 497.003906 390.359375 498.039062 389.910156 499.082031 389.488281 C 500.128906 389.070312 501.183594 388.675781 502.25 388.3125 C 503.316406 387.949219 504.390625 387.617188 505.476562 387.3125 C 506.5625 387.007812 507.652344 386.734375 508.753906 386.488281 C 509.851562 386.246094 510.957031 386.03125 512.070312 385.847656 C 513.179688 385.660156 514.296875 385.507812 515.417969 385.386719 C 516.535156 385.261719 517.660156 385.171875 518.785156 385.109375 C 519.910156 385.046875 521.035156 385.015625 522.160156 385.015625 C 523.289062 385.015625 524.414062 385.046875 525.539062 385.109375 C 526.664062 385.171875 527.785156 385.261719 528.90625 385.386719 C 530.027344 385.507812 531.140625 385.660156 532.253906 385.847656 C 533.363281 386.03125 534.46875 386.246094 535.570312 386.488281 C 536.667969 386.734375 537.761719 387.007812 538.847656 387.3125 C 539.929688 387.617188 541.007812 387.949219 542.074219 388.3125 C 543.140625 388.675781 544.195312 389.066406 545.238281 389.488281 C 546.285156 389.910156 547.316406 390.359375 548.339844 390.835938 C 549.359375 391.3125 550.367188 391.820312 551.359375 392.351562 C 552.351562 392.882812 553.328125 393.441406 554.292969 394.027344 C 555.253906 394.613281 556.199219 395.226562 557.128906 395.863281 C 558.058594 396.503906 558.96875 397.164062 559.859375 397.851562 C 560.753906 398.539062 561.625 399.25 562.480469 399.988281 C 563.332031 400.722656 564.167969 401.480469 564.980469 402.261719 C 565.789062 403.042969 566.582031 403.84375 567.351562 404.667969 C 568.117188 405.492188 568.863281 406.335938 569.585938 407.203125 C 570.398438 406.425781 571.191406 405.628906 571.964844 404.816406 C 572.738281 404 573.492188 403.164062 574.226562 402.3125 C 574.960938 401.460938 575.671875 400.589844 576.363281 399.703125 C 577.050781 398.816406 577.71875 397.914062 578.367188 396.992188 C 579.011719 396.070312 579.636719 395.136719 580.234375 394.1875 C 580.835938 393.234375 581.410156 392.269531 581.964844 391.292969 C 582.515625 390.3125 583.046875 389.320312 583.550781 388.316406 C 584.054688 387.308594 584.53125 386.292969 584.988281 385.265625 C 585.441406 384.238281 585.871094 383.199219 586.273438 382.148438 C 586.675781 381.097656 587.050781 380.039062 587.402344 378.972656 C 587.753906 377.902344 588.078125 376.828125 588.378906 375.742188 C 588.675781 374.660156 588.949219 373.566406 589.191406 372.472656 C 589.4375 371.375 589.65625 370.269531 589.847656 369.164062 C 590.035156 368.054688 590.199219 366.941406 590.335938 365.828125 C 590.472656 364.710938 590.582031 363.589844 590.660156 362.46875 C 590.742188 361.347656 590.796875 360.226562 590.824219 359.101562 C 590.847656 357.976562 590.847656 356.855469 590.816406 355.730469 C 590.789062 354.605469 590.734375 353.484375 590.648438 352.363281 C 590.5625 351.242188 590.453125 350.121094 590.3125 349.007812 C 590.175781 347.890625 590.007812 346.777344 589.8125 345.671875 C 589.621094 344.5625 589.398438 343.460938 589.152344 342.363281 C 588.90625 341.269531 588.628906 340.179688 588.328125 339.09375 C 588.027344 338.011719 587.699219 336.9375 587.347656 335.871094 C 586.992188 334.800781 586.613281 333.746094 586.207031 332.695312 C 585.800781 331.648438 585.367188 330.609375 584.910156 329.582031 C 584.457031 328.554688 583.972656 327.539062 583.464844 326.535156 C 582.960938 325.53125 582.429688 324.542969 581.875 323.5625 C 581.316406 322.585938 580.738281 321.625 580.136719 320.675781 C 579.535156 319.726562 578.910156 318.792969 578.261719 317.871094 C 577.613281 316.953125 576.941406 316.050781 576.25 315.167969 C 575.554688 314.28125 574.839844 313.414062 574.105469 312.5625 C 573.371094 311.710938 572.617188 310.882812 571.839844 310.066406 C 571.0625 309.253906 570.265625 308.460938 569.453125 307.6875 C 568.636719 306.914062 567.804688 306.160156 566.953125 305.425781 C 566.097656 304.691406 565.230469 303.980469 564.34375 303.289062 C 563.457031 302.597656 562.550781 301.929688 561.632812 301.285156 C 560.710938 300.636719 559.777344 300.015625 558.828125 299.414062 C 557.875 298.816406 556.914062 298.238281 555.933594 297.683594 C 554.953125 297.132812 553.964844 296.605469 552.957031 296.097656 C 551.953125 295.59375 550.9375 295.117188 549.910156 294.660156 C 548.882812 294.207031 547.84375 293.777344 546.792969 293.375 C 545.742188 292.972656 544.683594 292.59375 543.617188 292.242188 C 542.550781 291.890625 541.472656 291.566406 540.390625 291.269531 C 539.308594 290.96875 538.214844 290.699219 537.121094 290.453125 C 536.023438 290.210938 534.921875 289.992188 533.8125 289.800781 C 532.703125 289.609375 531.59375 289.445312 530.476562 289.308594 C 529.363281 289.175781 528.242188 289.066406 527.121094 288.984375 C 526 288.902344 524.878906 288.847656 523.753906 288.824219 C 522.632812 288.796875 521.507812 288.800781 520.382812 288.828125 C 519.261719 288.855469 518.136719 288.914062 517.015625 288.996094 C 515.894531 289.082031 514.777344 289.195312 513.664062 289.332031 C 512.546875 289.472656 511.4375 289.636719 510.328125 289.832031 C 509.222656 290.027344 508.121094 290.246094 507.023438 290.496094 C 505.925781 290.742188 504.835938 291.015625 503.753906 291.316406 C 502.671875 291.621094 501.597656 291.949219 500.53125 292.300781 C 499.464844 292.65625 498.40625 293.035156 497.359375 293.441406 C 496.308594 293.847656 495.273438 294.277344 494.246094 294.734375 C 493.21875 295.191406 492.203125 295.675781 491.199219 296.183594 C 490.195312 296.6875 489.207031 297.21875 488.230469 297.777344 C 487.25 298.332031 486.289062 298.910156 485.339844 299.511719 C 484.390625 300.117188 483.457031 300.742188 482.539062 301.390625 C 481.621094 302.039062 480.71875 302.710938 479.835938 303.402344 C 478.949219 304.097656 478.082031 304.808594 477.230469 305.546875 C 476.382812 306.28125 475.550781 307.035156 474.738281 307.8125 C 473.925781 308.589844 473.128906 309.386719 472.355469 310.199219 C 471.582031 311.015625 470.828125 311.851562 470.097656 312.703125 C 469.363281 313.554688 468.652344 314.425781 467.960938 315.3125 C 467.269531 316.199219 466.601562 317.101562 465.957031 318.023438 C 465.3125 318.945312 464.6875 319.878906 464.085938 320.828125 C 463.488281 321.78125 462.910156 322.746094 462.359375 323.722656 C 461.804688 324.703125 461.277344 325.695312 460.773438 326.699219 C 460.269531 327.707031 459.789062 328.722656 459.335938 329.75 C 458.882812 330.78125 458.453125 331.820312 458.050781 332.867188 C 457.648438 333.917969 457.269531 334.976562 456.917969 336.042969 C 456.566406 337.113281 456.242188 338.1875 455.945312 339.273438 C 455.644531 340.355469 455.375 341.449219 455.128906 342.542969 C 454.886719 343.640625 454.667969 344.746094 454.476562 345.851562 C 454.285156 346.960938 454.121094 348.074219 453.988281 349.1875 C 453.851562 350.304688 453.742188 351.425781 453.660156 352.546875 C 453.578125 353.667969 453.527344 354.789062 453.5 355.914062 C 453.472656 357.039062 453.476562 358.160156 453.503906 359.285156 C 453.535156 360.410156 453.589844 361.53125 453.675781 362.652344 C 453.757812 363.773438 453.871094 364.894531 454.007812 366.007812 C 454.148438 367.125 454.316406 368.238281 454.507812 369.34375 C 454.703125 370.453125 454.921875 371.554688 455.171875 372.652344 C 455.417969 373.746094 455.691406 374.835938 455.992188 375.921875 C 456.296875 377.003906 456.621094 378.078125 456.976562 379.144531 C 457.332031 380.214844 457.710938 381.269531 458.117188 382.320312 C 458.523438 383.367188 458.953125 384.40625 459.410156 385.433594 C 459.867188 386.460938 460.347656 387.476562 460.855469 388.480469 C 461.363281 389.484375 461.894531 390.472656 462.449219 391.453125 C 463.003906 392.429688 463.582031 393.390625 464.1875 394.339844 C 464.789062 395.289062 465.414062 396.222656 466.0625 397.144531 C 466.710938 398.0625 467.382812 398.964844 468.074219 399.847656 C 468.765625 400.734375 469.480469 401.601562 470.214844 402.453125 C 470.953125 403.304688 471.707031 404.132812 472.484375 404.949219 C 473.21875 405.714844 473.96875 406.46875 474.738281 407.203125 Z M 474.738281 407.203125 " fill-opacity="1" fill-rule="nonzero"/><path fill="#3f3d56" d="M 336.917969 334.113281 C 336.917969 334.886719 336.882812 335.660156 336.804688 336.429688 C 336.730469 337.199219 336.617188 337.964844 336.464844 338.722656 C 336.316406 339.480469 336.125 340.230469 335.902344 340.972656 C 335.675781 341.714844 335.417969 342.441406 335.121094 343.15625 C 334.824219 343.871094 334.496094 344.570312 334.128906 345.253906 C 333.765625 345.933594 333.367188 346.597656 332.9375 347.242188 C 332.507812 347.886719 332.046875 348.507812 331.558594 349.105469 C 331.066406 349.703125 330.546875 350.277344 330 350.824219 C 329.453125 351.371094 328.878906 351.890625 328.28125 352.378906 C 327.683594 352.871094 327.0625 353.332031 326.421875 353.761719 C 325.777344 354.191406 325.113281 354.589844 324.429688 354.953125 C 323.75 355.320312 323.050781 355.648438 322.335938 355.945312 C 321.621094 356.242188 320.894531 356.503906 320.152344 356.726562 C 319.414062 356.953125 318.664062 357.140625 317.902344 357.289062 C 317.144531 357.441406 316.378906 357.554688 315.609375 357.632812 C 314.839844 357.707031 314.070312 357.746094 313.296875 357.746094 C 312.519531 357.746094 311.75 357.707031 310.980469 357.632812 C 310.210938 357.554688 309.445312 357.441406 308.6875 357.289062 C 307.925781 357.140625 307.175781 356.953125 306.4375 356.726562 C 305.695312 356.503906 304.96875 356.242188 304.253906 355.945312 C 303.539062 355.648438 302.839844 355.320312 302.160156 354.953125 C 301.476562 354.589844 300.8125 354.191406 300.167969 353.761719 C 299.527344 353.332031 298.90625 352.871094 298.308594 352.378906 C 297.710938 351.890625 297.136719 351.371094 296.589844 350.824219 C 296.042969 350.277344 295.523438 349.703125 295.03125 349.105469 C 294.542969 348.507812 294.082031 347.886719 293.652344 347.242188 C 293.222656 346.597656 292.824219 345.933594 292.460938 345.253906 C 292.09375 344.570312 291.765625 343.871094 291.46875 343.15625 C 291.171875 342.441406 290.914062 341.714844 290.6875 340.972656 C 290.464844 340.230469 290.273438 339.480469 290.125 338.722656 C 289.972656 337.964844 289.859375 337.199219 289.785156 336.429688 C 289.707031 335.660156 289.671875 334.886719 289.671875 334.113281 C 289.671875 333.339844 289.707031 332.566406 289.785156 331.796875 C 289.859375 331.027344 289.972656 330.261719 290.125 329.503906 C 290.273438 328.742188 290.464844 327.992188 290.6875 327.253906 C 290.914062 326.511719 291.171875 325.785156 291.46875 325.070312 C 291.765625 324.355469 292.09375 323.65625 292.460938 322.972656 C 292.824219 322.289062 293.222656 321.625 293.652344 320.984375 C 294.082031 320.339844 294.542969 319.71875 295.03125 319.121094 C 295.523438 318.523438 296.042969 317.949219 296.589844 317.402344 C 297.136719 316.855469 297.710938 316.335938 298.308594 315.84375 C 298.90625 315.351562 299.527344 314.894531 300.167969 314.460938 C 300.8125 314.03125 301.476562 313.636719 302.160156 313.269531 C 302.839844 312.90625 303.539062 312.574219 304.253906 312.277344 C 304.96875 311.984375 305.695312 311.722656 306.4375 311.496094 C 307.175781 311.273438 307.925781 311.085938 308.6875 310.933594 C 309.445312 310.78125 310.210938 310.667969 310.980469 310.59375 C 311.75 310.519531 312.519531 310.480469 313.296875 310.480469 C 314.070312 310.480469 314.839844 310.519531 315.609375 310.59375 C 316.378906 310.667969 317.144531 310.78125 317.902344 310.933594 C 318.664062 311.085938 319.414062 311.273438 320.152344 311.496094 C 320.894531 311.722656 321.621094 311.984375 322.335938 312.277344 C 323.050781 312.574219 323.75 312.90625 324.429688 313.269531 C 325.113281 313.636719 325.777344 314.03125 326.421875 314.460938 C 327.0625 314.894531 327.683594 315.351562 328.28125 315.84375 C 328.878906 316.335938 329.453125 316.855469 330 317.402344 C 330.546875 317.949219 331.066406 318.523438 331.558594 319.121094 C 332.046875 319.71875 332.507812 320.339844 332.9375 320.984375 C 333.367188 321.625 333.765625 322.289062 334.128906 322.972656 C 334.496094 323.65625 334.824219 324.355469 335.121094 325.070312 C 335.417969 325.785156 335.675781 326.511719 335.902344 327.253906 C 336.125 327.992188 336.316406 328.742188 336.464844 329.503906 C 336.617188 330.261719 336.730469 331.027344 336.804688 331.796875 C 336.882812 332.566406 336.917969 333.339844 336.917969 334.113281 Z M 336.917969 334.113281 " fill-opacity="1" fill-rule="nonzero"/><path fill="#3f3d56" d="M 522.351562 334.113281 C 522.351562 334.886719 522.3125 335.660156 522.234375 336.429688 C 522.160156 337.199219 522.046875 337.964844 521.894531 338.722656 C 521.746094 339.480469 521.558594 340.230469 521.332031 340.972656 C 521.109375 341.714844 520.847656 342.441406 520.550781 343.15625 C 520.253906 343.871094 519.925781 344.570312 519.558594 345.253906 C 519.195312 345.933594 518.796875 346.597656 518.367188 347.242188 C 517.9375 347.886719 517.476562 348.507812 516.988281 349.105469 C 516.496094 349.703125 515.976562 350.277344 515.429688 350.824219 C 514.882812 351.371094 514.3125 351.890625 513.710938 352.378906 C 513.113281 352.871094 512.492188 353.332031 511.851562 353.761719 C 511.207031 354.191406 510.542969 354.589844 509.863281 354.953125 C 509.179688 355.320312 508.480469 355.648438 507.765625 355.945312 C 507.050781 356.242188 506.324219 356.503906 505.582031 356.726562 C 504.84375 356.953125 504.09375 357.140625 503.335938 357.289062 C 502.574219 357.441406 501.8125 357.554688 501.039062 357.632812 C 500.269531 357.707031 499.5 357.746094 498.726562 357.746094 C 497.953125 357.746094 497.179688 357.707031 496.410156 357.632812 C 495.640625 357.554688 494.875 357.441406 494.117188 357.289062 C 493.355469 357.140625 492.609375 356.953125 491.867188 356.726562 C 491.128906 356.503906 490.398438 356.242188 489.683594 355.945312 C 488.96875 355.648438 488.269531 355.320312 487.589844 354.953125 C 486.90625 354.589844 486.242188 354.191406 485.601562 353.761719 C 484.957031 353.332031 484.335938 352.871094 483.738281 352.378906 C 483.140625 351.890625 482.566406 351.371094 482.019531 350.824219 C 481.472656 350.277344 480.953125 349.703125 480.464844 349.105469 C 479.972656 348.507812 479.511719 347.886719 479.082031 347.242188 C 478.652344 346.597656 478.253906 345.933594 477.890625 345.253906 C 477.527344 344.570312 477.195312 343.871094 476.898438 343.15625 C 476.601562 342.441406 476.34375 341.714844 476.117188 340.972656 C 475.894531 340.230469 475.707031 339.480469 475.554688 338.722656 C 475.402344 337.964844 475.289062 337.199219 475.214844 336.429688 C 475.140625 335.660156 475.101562 334.886719 475.101562 334.113281 C 475.101562 333.339844 475.140625 332.566406 475.214844 331.796875 C 475.289062 331.027344 475.402344 330.261719 475.554688 329.503906 C 475.707031 328.742188 475.894531 327.992188 476.117188 327.253906 C 476.34375 326.511719 476.601562 325.785156 476.898438 325.070312 C 477.195312 324.355469 477.527344 323.65625 477.890625 322.972656 C 478.253906 322.289062 478.652344 321.625 479.082031 320.984375 C 479.511719 320.339844 479.972656 319.71875 480.464844 319.121094 C 480.953125 318.523438 481.472656 317.949219 482.019531 317.402344 C 482.566406 316.855469 483.140625 316.335938 483.738281 315.84375 C 484.335938 315.351562 484.957031 314.894531 485.601562 314.460938 C 486.242188 314.03125 486.90625 313.636719 487.589844 313.269531 C 488.269531 312.90625 488.96875 312.574219 489.683594 312.277344 C 490.398438 311.984375 491.128906 311.722656 491.867188 311.496094 C 492.609375 311.273438 493.355469 311.085938 494.117188 310.933594 C 494.875 310.78125 495.640625 310.667969 496.410156 310.59375 C 497.179688 310.519531 497.953125 310.480469 498.726562 310.480469 C 499.5 310.480469 500.269531 310.519531 501.039062 310.59375 C 501.8125 310.667969 502.574219 310.78125 503.335938 310.933594 C 504.09375 311.085938 504.84375 311.273438 505.582031 311.496094 C 506.324219 311.722656 507.050781 311.984375 507.765625 312.277344 C 508.480469 312.574219 509.179688 312.90625 509.863281 313.269531 C 510.542969 313.636719 511.207031 314.03125 511.851562 314.460938 C 512.492188 314.894531 513.113281 315.351562 513.710938 315.84375 C 514.3125 316.335938 514.882812 316.855469 515.429688 317.402344 C 515.976562 317.949219 516.496094 318.523438 516.988281 319.121094 C 517.476562 319.71875 517.9375 320.339844 518.367188 320.984375 C 518.796875 321.625 519.195312 322.289062 519.558594 322.972656 C 519.925781 323.65625 520.253906 324.355469 520.550781 325.070312 C 520.847656 325.785156 521.109375 326.511719 521.332031 327.253906 C 521.558594 327.992188 521.746094 328.742188 521.894531 329.503906 C 522.046875 330.261719 522.160156 331.027344 522.234375 331.796875 C 522.3125 332.566406 522.351562 333.339844 522.351562 334.113281 Z M 522.351562 334.113281 " fill-opacity="1" fill-rule="nonzero"/><path fill="#2196f3" d="M 295.515625 446.847656 C 295.515625 447.75 295.472656 448.648438 295.382812 449.542969 C 295.292969 450.4375 295.164062 451.328125 294.988281 452.210938 C 294.8125 453.09375 294.59375 453.964844 294.332031 454.824219 C 294.070312 455.6875 293.769531 456.535156 293.425781 457.363281 C 293.078125 458.195312 292.695312 459.007812 292.269531 459.804688 C 291.847656 460.597656 291.386719 461.367188 290.886719 462.117188 C 290.386719 462.863281 289.851562 463.585938 289.28125 464.28125 C 288.707031 464.976562 288.105469 465.644531 287.46875 466.28125 C 286.832031 466.917969 286.167969 467.519531 285.472656 468.089844 C 284.777344 468.664062 284.054688 469.199219 283.304688 469.699219 C 282.558594 470.199219 281.789062 470.660156 280.992188 471.085938 C 280.199219 471.507812 279.386719 471.894531 278.554688 472.238281 C 277.726562 472.582031 276.878906 472.882812 276.019531 473.144531 C 275.15625 473.40625 274.285156 473.625 273.402344 473.800781 C 272.519531 473.976562 271.632812 474.109375 270.738281 474.195312 C 269.839844 474.285156 268.945312 474.328125 268.042969 474.328125 C 267.144531 474.328125 266.246094 474.285156 265.351562 474.195312 C 264.457031 474.109375 263.566406 473.976562 262.683594 473.800781 C 261.800781 473.625 260.929688 473.40625 260.070312 473.144531 C 259.207031 472.882812 258.363281 472.582031 257.53125 472.238281 C 256.699219 471.894531 255.886719 471.507812 255.09375 471.085938 C 254.300781 470.660156 253.53125 470.199219 252.78125 469.699219 C 252.035156 469.199219 251.3125 468.664062 250.617188 468.089844 C 249.921875 467.519531 249.253906 466.917969 248.617188 466.28125 C 247.984375 465.644531 247.378906 464.976562 246.808594 464.28125 C 246.238281 463.585938 245.703125 462.863281 245.203125 462.117188 C 244.703125 461.367188 244.242188 460.597656 243.816406 459.804688 C 243.390625 459.007812 243.007812 458.195312 242.664062 457.363281 C 242.320312 456.535156 242.015625 455.6875 241.753906 454.824219 C 241.496094 453.964844 241.277344 453.09375 241.101562 452.210938 C 240.925781 451.328125 240.792969 450.4375 240.707031 449.542969 C 240.617188 448.648438 240.574219 447.75 240.574219 446.847656 C 240.574219 445.949219 240.617188 445.050781 240.707031 444.15625 C 240.792969 443.257812 240.925781 442.371094 241.101562 441.488281 C 241.277344 440.605469 241.496094 439.734375 241.753906 438.871094 C 242.015625 438.011719 242.320312 437.164062 242.664062 436.332031 C 243.007812 435.5 243.390625 434.6875 243.816406 433.894531 C 244.242188 433.101562 244.703125 432.328125 245.203125 431.582031 C 245.703125 430.832031 246.238281 430.109375 246.808594 429.414062 C 247.378906 428.71875 247.984375 428.054688 248.617188 427.417969 C 249.253906 426.78125 249.921875 426.175781 250.617188 425.605469 C 251.3125 425.035156 252.035156 424.5 252.78125 424 C 253.53125 423.5 254.300781 423.039062 255.09375 422.613281 C 255.886719 422.1875 256.699219 421.804688 257.53125 421.460938 C 258.363281 421.117188 259.207031 420.8125 260.070312 420.550781 C 260.929688 420.289062 261.800781 420.070312 262.683594 419.898438 C 263.566406 419.722656 264.457031 419.589844 265.351562 419.5 C 266.246094 419.414062 267.144531 419.367188 268.042969 419.367188 C 268.945312 419.367188 269.839844 419.414062 270.738281 419.5 C 271.632812 419.589844 272.519531 419.722656 273.402344 419.898438 C 274.285156 420.070312 275.15625 420.289062 276.019531 420.550781 C 276.878906 420.8125 277.726562 421.117188 278.554688 421.460938 C 279.386719 421.804688 280.199219 422.1875 280.992188 422.613281 C 281.789062 423.039062 282.558594 423.5 283.304688 424 C 284.054688 424.5 284.777344 425.035156 285.472656 425.605469 C 286.167969 426.175781 286.832031 426.78125 287.46875 427.417969 C 288.105469 428.054688 288.707031 428.71875 289.28125 429.414062 C 289.851562 430.109375 290.386719 430.832031 290.886719 431.582031 C 291.386719 432.328125 291.847656 433.101562 292.269531 433.894531 C 292.695312 434.6875 293.078125 435.5 293.421875 436.332031 C 293.769531 437.164062 294.070312 438.011719 294.332031 438.871094 C 294.59375 439.734375 294.8125 440.605469 294.988281 441.488281 C 295.164062 442.371094 295.292969 443.257812 295.382812 444.15625 C 295.472656 445.050781 295.515625 445.949219 295.515625 446.847656 Z M 295.515625 446.847656 " fill-opacity="1" fill-rule="nonzero"/><path fill="#2196f3" d="M 611.441406 446.847656 C 611.441406 447.75 611.398438 448.648438 611.3125 449.542969 C 611.222656 450.4375 611.089844 451.328125 610.914062 452.210938 C 610.738281 453.09375 610.519531 453.964844 610.261719 454.824219 C 610 455.6875 609.695312 456.535156 609.351562 457.363281 C 609.007812 458.195312 608.625 459.007812 608.199219 459.804688 C 607.773438 460.597656 607.3125 461.367188 606.8125 462.117188 C 606.3125 462.863281 605.777344 463.585938 605.207031 464.28125 C 604.636719 464.976562 604.03125 465.644531 603.398438 466.28125 C 602.761719 466.917969 602.09375 467.519531 601.398438 468.089844 C 600.703125 468.664062 599.980469 469.199219 599.234375 469.699219 C 598.484375 470.199219 597.714844 470.660156 596.921875 471.085938 C 596.128906 471.507812 595.316406 471.894531 594.484375 472.238281 C 593.652344 472.582031 592.808594 472.882812 591.945312 473.144531 C 591.085938 473.40625 590.214844 473.625 589.332031 473.800781 C 588.449219 473.976562 587.558594 474.109375 586.664062 474.195312 C 585.769531 474.285156 584.871094 474.328125 583.972656 474.328125 C 583.070312 474.328125 582.175781 474.285156 581.277344 474.195312 C 580.382812 474.109375 579.496094 473.976562 578.613281 473.800781 C 577.730469 473.625 576.859375 473.40625 575.996094 473.144531 C 575.136719 472.882812 574.289062 472.582031 573.457031 472.238281 C 572.628906 471.894531 571.816406 471.507812 571.023438 471.085938 C 570.226562 470.660156 569.457031 470.199219 568.710938 469.699219 C 567.960938 469.199219 567.238281 468.664062 566.542969 468.089844 C 565.847656 467.519531 565.183594 466.917969 564.546875 466.28125 C 563.910156 465.644531 563.308594 464.976562 562.734375 464.28125 C 562.164062 463.585938 561.628906 462.863281 561.128906 462.117188 C 560.628906 461.367188 560.167969 460.597656 559.746094 459.804688 C 559.320312 459.007812 558.9375 458.195312 558.589844 457.363281 C 558.246094 456.535156 557.945312 455.6875 557.683594 454.824219 C 557.421875 453.964844 557.203125 453.09375 557.027344 452.210938 C 556.851562 451.328125 556.722656 450.4375 556.632812 449.542969 C 556.542969 448.648438 556.5 447.75 556.5 446.847656 C 556.5 445.949219 556.542969 445.050781 556.632812 444.15625 C 556.722656 443.257812 556.851562 442.371094 557.027344 441.488281 C 557.203125 440.605469 557.421875 439.734375 557.683594 438.871094 C 557.945312 438.011719 558.246094 437.164062 558.589844 436.332031 C 558.9375 435.5 559.320312 434.6875 559.746094 433.894531 C 560.167969 433.101562 560.628906 432.328125 561.128906 431.582031 C 561.628906 430.832031 562.164062 430.109375 562.734375 429.414062 C 563.308594 428.71875 563.910156 428.054688 564.546875 427.417969 C 565.183594 426.78125 565.847656 426.175781 566.542969 425.605469 C 567.238281 425.035156 567.960938 424.5 568.710938 424 C 569.457031 423.5 570.226562 423.039062 571.023438 422.613281 C 571.816406 422.1875 572.628906 421.804688 573.457031 421.460938 C 574.289062 421.117188 575.136719 420.8125 575.996094 420.550781 C 576.859375 420.289062 577.730469 420.070312 578.613281 419.898438 C 579.496094 419.722656 580.382812 419.589844 581.277344 419.5 C 582.175781 419.414062 583.070312 419.367188 583.972656 419.367188 C 584.871094 419.367188 585.769531 419.414062 586.664062 419.5 C 587.558594 419.589844 588.449219 419.722656 589.332031 419.898438 C 590.214844 420.070312 591.085938 420.289062 591.945312 420.550781 C 592.808594 420.8125 593.652344 421.117188 594.484375 421.460938 C 595.316406 421.804688 596.128906 422.1875 596.921875 422.613281 C 597.714844 423.039062 598.484375 423.5 599.234375 424 C 599.980469 424.5 600.703125 425.035156 601.398438 425.605469 C 602.09375 426.175781 602.761719 426.78125 603.398438 427.417969 C 604.03125 428.054688 604.636719 428.71875 605.207031 429.414062 C 605.777344 430.109375 606.3125 430.832031 606.8125 431.582031 C 607.3125 432.328125 607.773438 433.101562 608.199219 433.894531 C 608.625 434.6875 609.007812 435.5 609.351562 436.332031 C 609.695312 437.164062 610 438.011719 610.261719 438.871094 C 610.519531 439.734375 610.738281 440.605469 610.914062 441.488281 C 611.089844 442.371094 611.222656 443.257812 611.3125 444.15625 C 611.398438 445.050781 611.441406 445.949219 611.441406 446.847656 Z M 611.441406 446.847656 " fill-opacity="1" fill-rule="nonzero"/><path fill="#2196f3" d="M 426.007812 391.882812 L 405.40625 481.199219 L 439.742188 446.847656 Z M 426.007812 391.882812 " fill-opacity="1" fill-rule="nonzero"/><path fill="#3f3d56" d="M 531.878906 735.398438 L 508.484375 715.761719 L 509.03125 735.398438 L 501.765625 735.398438 L 501.183594 714.632812 L 469.601562 735.398438 L 456.378906 735.398438 L 500.949219 706.09375 L 499.222656 644.5625 L 497.933594 598.089844 L 505.179688 597.890625 L 506.488281 644.5625 L 508.210938 706.039062 L 543.171875 735.398438 Z M 531.878906 735.398438 " fill-opacity="1" fill-rule="nonzero"/><path fill="#3f3d56" d="M 421.980469 735.398438 L 398.589844 715.761719 L 399.132812 735.398438 L 391.886719 735.398438 L 391.308594 714.632812 L 359.722656 735.398438 L 346.5 735.398438 L 391.054688 706.09375 L 389.328125 644.5625 L 388.039062 598.089844 L 395.300781 597.890625 L 396.609375 644.5625 L 398.316406 706.039062 L 433.277344 735.398438 Z M 421.980469 735.398438 " fill-opacity="1" fill-rule="nonzero"/><path fill="#3f3d56" d="M 439.746094 137.683594 C 433.339844 137.683594 427.6875 142.664062 423.90625 150.3125 C 420.574219 138.8125 413.578125 130.816406 405.40625 130.816406 C 404.847656 130.871094 404.300781 130.960938 403.757812 131.09375 C 400.613281 118.816406 393.3125 110.203125 384.800781 110.203125 C 373.421875 110.203125 364.199219 125.585938 364.199219 144.554688 C 364.199219 163.527344 373.421875 178.90625 384.800781 178.90625 C 385.355469 178.851562 385.90625 178.757812 386.449219 178.628906 C 389.59375 190.90625 396.894531 199.519531 405.40625 199.519531 C 411.8125 199.519531 417.464844 194.539062 421.242188 186.890625 C 424.574219 198.390625 431.574219 206.386719 439.746094 206.386719 C 451.125 206.386719 460.347656 191.007812 460.347656 172.035156 C 460.347656 153.066406 451.125 137.683594 439.746094 137.683594 Z M 439.746094 137.683594 " fill-opacity="1" fill-rule="nonzero"/><path fill="#3f3d56" d="M 216.148438 395.71875 L 87.515625 374.847656 C 81.03125 373.796875 74.433594 372.742188 67.929688 373.65625 C 61.425781 374.574219 54.917969 377.777344 51.601562 383.445312 C 51.207031 384.125 50.859375 384.828125 50.5625 385.554688 C 50.269531 386.28125 50.027344 387.027344 49.839844 387.789062 C 49.652344 388.550781 49.519531 389.324219 49.441406 390.105469 C 49.363281 390.886719 49.34375 391.667969 49.378906 392.453125 C 49.410156 393.238281 49.503906 394.015625 49.648438 394.785156 C 49.796875 395.558594 50 396.316406 50.253906 397.058594 C 50.507812 397.800781 50.816406 398.519531 51.175781 399.21875 C 51.535156 399.917969 51.941406 400.585938 52.398438 401.226562 C 52.851562 401.863281 53.351562 402.46875 53.894531 403.035156 C 54.433594 403.605469 55.015625 404.132812 55.632812 404.617188 C 56.25 405.101562 56.898438 405.539062 57.578125 405.929688 C 58.261719 406.320312 58.964844 406.660156 59.695312 406.953125 C 60.425781 407.242188 61.171875 407.476562 61.933594 407.660156 C 62.695312 407.84375 63.46875 407.96875 64.25 408.042969 C 65.03125 408.113281 65.816406 408.128906 66.601562 408.085938 C 67.382812 408.046875 68.160156 407.949219 68.929688 407.796875 C 61.910156 407.570312 54.527344 407.417969 48.296875 410.664062 C 42.066406 413.910156 37.65625 421.796875 40.695312 428.132812 C 41.613281 429.898438 42.824219 431.429688 44.328125 432.734375 C 45.496094 433.78125 46.730469 434.738281 48.03125 435.609375 C 49.332031 436.484375 50.6875 437.257812 52.097656 437.941406 C 53.507812 438.621094 54.960938 439.199219 56.453125 439.675781 C 57.945312 440.152344 59.464844 440.519531 61.007812 440.78125 C 62.554688 441.042969 64.109375 441.195312 65.675781 441.238281 C 67.238281 441.28125 68.800781 441.214844 70.355469 441.039062 C 71.914062 440.859375 73.449219 440.574219 74.964844 440.179688 C 76.480469 439.785156 77.964844 439.289062 79.410156 438.6875 C 74.671875 445.480469 65.277344 446.488281 57.148438 448.0625 C 49.019531 449.632812 39.621094 454.234375 39.320312 462.511719 C 38.980469 471.808594 50.042969 476.753906 59.152344 478.644531 C 71.25 481.136719 83.460938 482.757812 95.789062 483.507812 C 108.117188 484.257812 120.4375 484.132812 132.746094 483.128906 C 145.054688 482.125 157.234375 480.253906 169.277344 477.515625 C 181.320312 474.777344 193.109375 471.199219 204.644531 466.785156 C 209.882812 464.980469 214.765625 462.484375 219.296875 459.300781 C 220.554688 458.34375 221.734375 457.304688 222.84375 456.179688 C 223.953125 455.054688 224.972656 453.859375 225.910156 452.585938 C 226.847656 451.316406 227.6875 449.984375 228.433594 448.59375 C 229.179688 447.203125 229.820312 445.765625 230.359375 444.28125 C 230.898438 442.796875 231.328125 441.28125 231.652344 439.734375 C 231.972656 438.191406 232.183594 436.628906 232.28125 435.054688 C 232.378906 433.476562 232.367188 431.902344 232.238281 430.332031 C 232.109375 428.757812 231.871094 427.199219 231.519531 425.660156 C 231.171875 424.121094 230.710938 422.613281 230.144531 421.140625 C 229.578125 419.667969 228.910156 418.242188 228.140625 416.863281 C 227.367188 415.488281 226.503906 414.171875 225.542969 412.917969 C 224.585938 411.664062 223.539062 410.484375 222.410156 409.382812 C 221.285156 408.277344 220.082031 407.261719 218.808594 406.328125 C 217.535156 405.398438 216.199219 404.5625 214.804688 403.820312 C 213.410156 403.082031 211.972656 402.445312 210.484375 401.910156 C 209 401.378906 207.484375 400.953125 205.9375 400.636719 " fill-opacity="1" fill-rule="nonzero"/><path fill="#3f3d56" d="M 771.378906 501.191406 C 766.097656 490.023438 760.054688 479.285156 753.246094 468.976562 C 746.433594 458.671875 738.929688 448.898438 730.730469 439.660156 C 722.53125 430.417969 713.71875 421.808594 704.292969 413.824219 C 694.867188 405.839844 684.925781 398.566406 674.464844 391.996094 C 669.875 388.894531 664.945312 386.488281 659.675781 384.78125 C 658.160156 384.347656 656.617188 384.027344 655.054688 383.816406 C 653.488281 383.609375 651.917969 383.511719 650.339844 383.527344 C 648.761719 383.542969 647.191406 383.667969 645.632812 383.910156 C 644.074219 384.148438 642.539062 384.5 641.027344 384.960938 C 639.519531 385.421875 638.050781 385.988281 636.621094 386.660156 C 635.195312 387.332031 633.820312 388.101562 632.503906 388.96875 C 631.183594 389.835938 629.933594 390.796875 628.753906 391.84375 C 627.574219 392.890625 626.472656 394.015625 625.453125 395.222656 C 624.433594 396.425781 623.507812 397.699219 622.667969 399.039062 C 621.832031 400.375 621.09375 401.769531 620.457031 403.210938 C 619.820312 404.65625 619.289062 406.140625 618.863281 407.660156 C 618.441406 409.179688 618.125 410.722656 617.921875 412.289062 C 617.71875 413.855469 617.628906 415.425781 617.648438 417.003906 C 617.671875 418.582031 617.804688 420.152344 618.050781 421.710938 C 618.296875 423.269531 618.652344 424.804688 619.121094 426.3125 C 619.585938 427.820312 620.160156 429.289062 620.835938 430.714844 L 610.769531 425.507812 C 630.980469 463.96875 651.191406 502.433594 671.398438 540.898438 C 674.453125 546.710938 677.582031 552.621094 682.21875 557.269531 C 686.859375 561.921875 693.332031 565.199219 699.851562 564.441406 C 700.5 564.371094 701.136719 564.257812 701.769531 564.109375 C 702.402344 563.960938 703.019531 563.777344 703.628906 563.554688 C 704.242188 563.328125 704.835938 563.070312 705.414062 562.777344 C 705.992188 562.484375 706.550781 562.15625 707.089844 561.796875 C 707.628906 561.433594 708.148438 561.042969 708.640625 560.621094 C 709.132812 560.195312 709.597656 559.746094 710.035156 559.269531 C 710.476562 558.789062 710.882812 558.285156 711.261719 557.757812 C 711.640625 557.230469 711.988281 556.683594 712.300781 556.117188 C 712.613281 555.546875 712.894531 554.960938 713.136719 554.359375 C 713.378906 553.757812 713.585938 553.144531 713.757812 552.515625 C 713.925781 551.890625 714.058594 551.253906 714.152344 550.613281 C 714.246094 549.96875 714.300781 549.324219 714.320312 548.675781 C 714.335938 548.027344 714.3125 547.378906 714.253906 546.730469 C 714.195312 546.085938 714.09375 545.445312 713.957031 544.808594 C 713.820312 544.175781 713.644531 543.550781 713.433594 542.9375 C 713.222656 542.324219 712.976562 541.722656 712.691406 541.140625 C 715.566406 545.195312 719.199219 548.390625 723.585938 550.726562 C 729.925781 553.757812 738.875 552.546875 742.113281 546.308594 C 742.96875 544.511719 743.46875 542.621094 743.605469 540.636719 C 743.738281 539.074219 743.765625 537.511719 743.679688 535.949219 C 743.59375 534.382812 743.398438 532.832031 743.09375 531.296875 C 742.789062 529.757812 742.378906 528.25 741.863281 526.769531 C 741.347656 525.292969 740.730469 523.855469 740.011719 522.464844 C 739.292969 521.070312 738.480469 519.738281 737.574219 518.460938 C 736.664062 517.179688 735.671875 515.972656 734.597656 514.835938 C 733.519531 513.699219 732.367188 512.640625 731.140625 511.667969 C 729.917969 510.691406 728.628906 509.804688 727.277344 509.011719 C 735.550781 508.714844 742.003906 515.621094 748.148438 521.175781 C 754.289062 526.730469 763.609375 531.480469 770.40625 526.746094 C 778.039062 521.429688 775.339844 509.613281 771.378906 501.191406 Z M 771.378906 501.191406 " fill-opacity="1" fill-rule="nonzero"/><g clip-path="url(#d19d22eea8)"><path fill="#cacaca" d="M 807.492188 737.296875 L 85.914062 737.296875 C 85.664062 737.296875 85.421875 737.246094 85.191406 737.152344 C 84.960938 737.054688 84.753906 736.917969 84.578125 736.742188 C 84.398438 736.5625 84.261719 736.359375 84.167969 736.125 C 84.070312 735.894531 84.023438 735.652344 84.023438 735.402344 C 84.023438 735.148438 84.070312 734.910156 84.167969 734.675781 C 84.261719 734.445312 84.398438 734.238281 84.578125 734.0625 C 84.753906 733.882812 84.960938 733.746094 85.191406 733.652344 C 85.421875 733.554688 85.664062 733.507812 85.914062 733.507812 L 807.492188 733.507812 C 807.746094 733.507812 807.984375 733.554688 808.21875 733.652344 C 808.449219 733.746094 808.65625 733.882812 808.832031 734.0625 C 809.011719 734.238281 809.148438 734.445312 809.242188 734.675781 C 809.339844 734.910156 809.386719 735.148438 809.386719 735.402344 C 809.386719 735.652344 809.339844 735.894531 809.242188 736.125 C 809.148438 736.359375 809.011719 736.5625 808.832031 736.742188 C 808.65625 736.917969 808.449219 737.054688 808.21875 737.152344 C 807.984375 737.246094 807.746094 737.296875 807.492188 737.296875 Z M 807.492188 737.296875 " fill-opacity="1" fill-rule="nonzero"/></g></svg>