<svg width="30" height="30" viewBox="0 0 30 30" fill="none" xmlns="http://www.w3.org/2000/svg">
<g clip-path="url(#clip0_2032_2698)" filter="url(#filter0_di_2032_2698)">
<path d="M14.2499 1H6.74994C5.78497 1 5 1.78497 5 2.74994V7.24994C5 8.21509 5.78497 9.00006 6.74994 9.00006H14.2499C15.2151 9.00006 16.0001 8.21509 16.0001 7.24994V2.74994C16.0001 1.78497 15.2151 1 14.2499 1Z" fill="#C5C5C5"/>
<path d="M14.2499 11H6.74994C5.78497 11 5 11.785 5 12.7501V23.2501C5 24.2151 5.78497 25.0001 6.74994 25.0001H14.2499C15.2151 25.0001 16.0001 24.2151 16.0001 23.2501V12.7501C16.0001 11.785 15.2151 11 14.2499 11Z" fill="#8B8E92"/>
<path d="M27.2501 17H19.7501C18.785 17 18 17.785 18 18.7501V23.2501C18 24.2151 18.785 25.0001 19.7501 25.0001H27.2501C28.2151 25.0001 29.0001 24.2151 29.0001 23.2501V18.7501C29.0001 17.785 28.2151 17 27.2501 17Z" fill="#C5C5C5"/>
<path d="M27.2501 1H19.7501C18.785 1 18 1.78497 18 2.74994V13.2499C18 14.2151 18.785 15.0001 19.7501 15.0001H27.2501C28.2151 15.0001 29.0001 14.2151 29.0001 13.2499V2.74994C29.0001 1.78497 28.2151 1 27.2501 1Z" fill="#8B8E92"/>
</g>
<defs>
<filter id="filter0_di_2032_2698" x="0" y="0" width="30" height="30" filterUnits="userSpaceOnUse" color-interpolation-filters="sRGB">
<feFlood flood-opacity="0" result="BackgroundImageFix"/>
<feColorMatrix in="SourceAlpha" type="matrix" values="0 0 0 0 0 0 0 0 0 0 0 0 0 0 0 0 0 0 127 0" result="hardAlpha"/>
<feOffset dx="-2" dy="2"/>
<feGaussianBlur stdDeviation="1.5"/>
<feComposite in2="hardAlpha" operator="out"/>
<feColorMatrix type="matrix" values="0 0 0 0 0 0 0 0 0 0 0 0 0 0 0 0 0 0 0.4 0"/>
<feBlend mode="normal" in2="BackgroundImageFix" result="effect1_dropShadow_2032_2698"/>
<feBlend mode="normal" in="SourceGraphic" in2="effect1_dropShadow_2032_2698" result="shape"/>
<feColorMatrix in="SourceAlpha" type="matrix" values="0 0 0 0 0 0 0 0 0 0 0 0 0 0 0 0 0 0 127 0" result="hardAlpha"/>
<feOffset dy="1"/>
<feGaussianBlur stdDeviation="1"/>
<feComposite in2="hardAlpha" operator="arithmetic" k2="-1" k3="1"/>
<feColorMatrix type="matrix" values="0 0 0 0 0 0 0 0 0 0 0 0 0 0 0 0 0 0 0.6 0"/>
<feBlend mode="normal" in2="shape" result="effect2_innerShadow_2032_2698"/>
</filter>
<clipPath id="clip0_2032_2698">
<rect width="24" height="24" fill="white" transform="translate(5 1)"/>
</clipPath>
</defs>
</svg>
