<svg id="Layer_1" enable-background="new 0 0 153.074 229.184" height="512" viewBox="0 0 153.074 229.184" width="512" xmlns="http://www.w3.org/2000/svg"><g><ellipse cx="47.7" cy="22.5" rx="22.495" ry="22.495" transform="matrix(.974 -.227 .227 .974 -3.86 11.404)"/><path d="m20.654 133.554v57.284c-2.607 2.622-5.443 5.296-8.54 8.021-5.392 4.742-5.92 12.958-1.178 18.35 2.569 2.921 6.16 4.414 9.768 4.415.302 0 .603-.019.904-.04 1.865 4.463 6.271 7.6 11.411 7.6 6.826 0 12.363-5.535 12.363-12.363v-14.323c9.402-10.51 16.108-20.691 20.726-30.278 6.924-14.341 9.111-27.294 9.097-37.46-.002-2.907-.181-5.567-.459-7.991v-43.509c3.407 3.61 7.333 7.188 11.835 10.143 5.301 3.46 11.563 6.168 18.683 6.19.011 0 .022-.001.033-.001v-16c-.011 0-.022.002-.033.002-2.833.02-6.271-1.178-9.92-3.577-5.466-3.542-10.946-9.552-14.802-14.641-1.941-2.541-3.506-4.847-4.567-6.489-.531-.821-.936-1.477-1.2-1.913-.133-.219-.229-.382-.29-.486-.06-.103-.068-.118-.068-.118-.369-.645-.819-1.212-1.323-1.71-1.415-1.8-3.607-2.96-6.075-2.96h-38.636c-.639 0-1.256.086-1.849.232-1.144.047-6.827.177-13.268 3.94-3.329 1.971-6.813 5.083-9.31 9.539-2.515 4.444-3.967 10.07-3.956 16.703.041 11.68 4.184 26.596 14.874 47.247 1.203 2.319 3.387 3.79 5.78 4.193zm24.729 21.052v-19.059h3.811c-.092 5.099-.986 11.484-3.811 19.059zm-27.486-81.341c.788-1.385 1.734-2.37 2.758-3.114v33.147c-3.452-9.352-4.679-16.318-4.652-21.184.01-4.399.897-7.065 1.894-8.849z"/><path d="m84.855 179.729c-15.737 4.831-25.252 19.346-21.234 32.406 4.008 13.071 20.022 19.751 35.763 14.915 15.729-4.826 25.226-19.331 21.232-32.404v-86.5c4.345 4.152 13.956 13.506 17.052 18.132 4.044 6.066 8.083 24.245 8.083 29.297 0 5.061 5.05 3.033 5.05-3.037 0-6.047 9.094-39.39-9.089-57.576-18.186-18.188-25.259-24.245-27.275-34.345-2.025-10.111-7.138 8.063-7.138 15.146v7.655 16.092 81.044c-6.504-2.765-14.507-3.253-22.444-.825zm22.443 11.052c-6.503-2.765-14.506-3.253-22.443-.825-8.283 2.541-14.81 7.777-18.578 14.059.4-3.014 1.521-6.027 3.387-8.874 3.578-5.457 9.325-9.629 16.184-11.733 3.072-.935 6.211-1.415 9.325-1.415 3.804 0 7.537.735 10.8 2.119l1.326.563v6.106zm26.541-98.438c1.698 1.695 3.523 3.504 5.475 5.46 4.579 4.578 7.25 10.268 8.738 16.239-1.608-3.189-3.674-6.187-6.341-8.854-18.186-18.187-25.259-24.245-27.275-34.348-.035-.187-.075-.346-.116-.516 3.42 6.021 9.439 11.999 19.519 22.019z"/></g></svg>