<svg id="Layer_1" height="512" viewBox="0 0 36 36" width="512" xmlns="http://www.w3.org/2000/svg" data-name="Layer 1"><circle cx="18" cy="13.72" r="2.86"/><path d="m27.87 6.11a9.14 9.14 0 0 1 -4.37-1.11l-5.5-3-5.5 3a9.14 9.14 0 0 1 -4.37 1.11h-4.07v12.69a13.71 13.71 0 0 0 8 12.46l5.94 2.74 5.95-2.73a13.71 13.71 0 0 0 8-12.46v-12.7zm-9.87 2.46a5.14 5.14 0 1 1 -5.14 5.14 5.15 5.15 0 0 1 5.14-5.14zm4.57 16.57a2.29 2.29 0 0 0 -2.29-2.29h-4.57a2.28 2.28 0 0 0 -2.28 2.28h-2.29a4.57 4.57 0 0 1 4.57-4.57h4.57a4.58 4.58 0 0 1 4.57 4.57z" fill-rule="evenodd"/></svg>