<svg width="24" height="25" viewBox="0 0 24 25" fill="none" xmlns="http://www.w3.org/2000/svg">
<g id="atom/icon/publish/default">
<path id="Vector" d="M13.0728 3.44552C12.9731 3.24646 12.8199 3.07909 12.6304 2.96212C12.4409 2.84515 12.2226 2.7832 12 2.7832C11.7774 2.7832 11.5591 2.84515 11.3696 2.96212C11.1802 3.07909 11.027 3.24646 10.9272 3.44552L2.52723 20.2456C2.423 20.4539 2.38165 20.688 2.40823 20.9194C2.4348 21.1507 2.52813 21.3695 2.67686 21.5488C2.82559 21.7279 3.02328 21.86 3.24579 21.9289C3.46832 21.9977 3.70607 22.0003 3.93003 21.9364L9.93003 20.2216C10.1808 20.1498 10.4014 19.9984 10.5584 19.79C10.7153 19.5817 10.8002 19.3279 10.8 19.0672V13.582C10.8 13.2637 10.9265 12.9584 11.1515 12.7334C11.3765 12.5083 11.6818 12.3819 12 12.3819C12.3183 12.3819 12.6236 12.5083 12.8486 12.7334C13.0736 12.9584 13.2 13.2637 13.2 13.582V19.0672C13.1999 19.3279 13.2848 19.5817 13.4417 19.79C13.5987 19.9984 13.8192 20.1498 14.07 20.2216L20.07 21.9352C20.294 21.9992 20.5317 21.9968 20.7542 21.9282C20.9768 21.8594 21.1745 21.7276 21.3233 21.5484C21.4721 21.3692 21.5656 21.1507 21.5924 20.9194C21.6192 20.688 21.5781 20.4539 21.474 20.2456L13.0728 3.44552Z" fill="#2897F3"/>
</g>
</svg>
