<svg width="32" height="33" viewBox="0 0 32 33" fill="none" xmlns="http://www.w3.org/2000/svg">
<g clip-path="url(#clip0_2037_1405)" filter="url(#filter0_di_2037_1405)">
<g filter="url(#filter1_di_2037_1405)">
<path d="M27.5999 5.70078V9.30078H4.3999V5.70078C4.3999 4.37678 5.4759 3.30078 6.7999 3.30078H25.1999C26.5239 3.30078 27.5999 4.37678 27.5999 5.70078Z" fill="#8B8E92"/>
<path d="M27.5999 9.30078V21.7008C27.5999 23.0248 26.5239 24.1008 25.1999 24.1008H6.7999C5.4759 24.1008 4.3999 23.0248 4.3999 21.7008V9.30078H27.5999Z" fill="#C5C5C5"/>
<path d="M14.8 4.5C14.316 4.864 14 5.448 14 6.1C14 7.204 14.896 8.1 16 8.1C17.104 8.1 18 7.204 18 6.1C18 5.448 17.684 4.864 17.2 4.5H14.8Z" fill="#8B8E92"/>
<path d="M22 4.5C21.516 4.864 21.2 5.448 21.2 6.1C21.2 7.204 22.096 8.1 23.2 8.1C24.304 8.1 25.2 7.204 25.2 6.1C25.2 5.448 24.884 4.864 24.4 4.5H22Z" fill="#8B8E92"/>
<path d="M7.5998 4.5C7.1158 4.864 6.7998 5.448 6.7998 6.1C6.7998 7.204 7.6958 8.1 8.7998 8.1C9.9038 8.1 10.7998 7.204 10.7998 6.1C10.7998 5.448 10.4838 4.864 9.9998 4.5H7.5998Z" fill="#8B8E92"/>
<path d="M14.7999 10.9004H11.9999C11.7789 10.9004 11.5999 11.0795 11.5999 11.3004V13.3004C11.5999 13.5213 11.7789 13.7004 11.9999 13.7004H14.7999C15.0208 13.7004 15.1999 13.5213 15.1999 13.3004V11.3004C15.1999 11.0795 15.0208 10.9004 14.7999 10.9004Z" fill="#8B8E92"/>
<path d="M19.9998 10.9004H17.1998C16.9789 10.9004 16.7998 11.0795 16.7998 11.3004V13.3004C16.7998 13.5213 16.9789 13.7004 17.1998 13.7004H19.9998C20.2207 13.7004 20.3998 13.5213 20.3998 13.3004V11.3004C20.3998 11.0795 20.2207 10.9004 19.9998 10.9004Z" fill="#8B8E92"/>
<path d="M25.2 10.9004H22.4C22.1791 10.9004 22 11.0795 22 11.3004V13.3004C22 13.5213 22.1791 13.7004 22.4 13.7004H25.2C25.4209 13.7004 25.6 13.5213 25.6 13.3004V11.3004C25.6 11.0795 25.4209 10.9004 25.2 10.9004Z" fill="#8B8E92"/>
<path d="M14.7999 15.3008H11.9999C11.7789 15.3008 11.5999 15.4799 11.5999 15.7008V17.7008C11.5999 17.9217 11.7789 18.1008 11.9999 18.1008H14.7999C15.0208 18.1008 15.1999 17.9217 15.1999 17.7008V15.7008C15.1999 15.4799 15.0208 15.3008 14.7999 15.3008Z" fill="#8B8E92"/>
<path d="M19.9998 15.3008H17.1998C16.9789 15.3008 16.7998 15.4799 16.7998 15.7008V17.7008C16.7998 17.9217 16.9789 18.1008 17.1998 18.1008H19.9998C20.2207 18.1008 20.3998 17.9217 20.3998 17.7008V15.7008C20.3998 15.4799 20.2207 15.3008 19.9998 15.3008Z" fill="#8B8E92"/>
<path d="M9.5999 15.3008H6.7999C6.57899 15.3008 6.3999 15.4799 6.3999 15.7008V17.7008C6.3999 17.9217 6.57899 18.1008 6.7999 18.1008H9.5999C9.82082 18.1008 9.9999 17.9217 9.9999 17.7008V15.7008C9.9999 15.4799 9.82082 15.3008 9.5999 15.3008Z" fill="#8B8E92"/>
<path d="M25.2 15.3008H22.4C22.1791 15.3008 22 15.4799 22 15.7008V17.7008C22 17.9217 22.1791 18.1008 22.4 18.1008H25.2C25.4209 18.1008 25.6 17.9217 25.6 17.7008V15.7008C25.6 15.4799 25.4209 15.3008 25.2 15.3008Z" fill="#8B8E92"/>
<path d="M14.7999 19.7002H11.9999C11.7789 19.7002 11.5999 19.8793 11.5999 20.1002V22.1002C11.5999 22.3211 11.7789 22.5002 11.9999 22.5002H14.7999C15.0208 22.5002 15.1999 22.3211 15.1999 22.1002V20.1002C15.1999 19.8793 15.0208 19.7002 14.7999 19.7002Z" fill="#8B8E92"/>
<path d="M19.9998 19.7002H17.1998C16.9789 19.7002 16.7998 19.8793 16.7998 20.1002V22.1002C16.7998 22.3211 16.9789 22.5002 17.1998 22.5002H19.9998C20.2207 22.5002 20.3998 22.3211 20.3998 22.1002V20.1002C20.3998 19.8793 20.2207 19.7002 19.9998 19.7002Z" fill="#8B8E92"/>
<path d="M9.5999 19.7002H6.7999C6.57899 19.7002 6.3999 19.8793 6.3999 20.1002V22.1002C6.3999 22.3211 6.57899 22.5002 6.7999 22.5002H9.5999C9.82082 22.5002 9.9999 22.3211 9.9999 22.1002V20.1002C9.9999 19.8793 9.82082 19.7002 9.5999 19.7002Z" fill="#8B8E92"/>
<path d="M17.1998 2.10039C17.1998 1.43765 16.6625 0.900391 15.9998 0.900391C15.3371 0.900391 14.7998 1.43765 14.7998 2.10039V5.30039C14.7998 5.96313 15.3371 6.50039 15.9998 6.50039C16.6625 6.50039 17.1998 5.96313 17.1998 5.30039V2.10039Z" fill="#C5C5C5"/>
<path d="M24.4 2.10039C24.4 1.43765 23.8627 0.900391 23.2 0.900391C22.5373 0.900391 22 1.43765 22 2.10039V5.30039C22 5.96313 22.5373 6.50039 23.2 6.50039C23.8627 6.50039 24.4 5.96313 24.4 5.30039V2.10039Z" fill="#C5C5C5"/>
<path d="M9.99985 2.10039C9.99985 1.43765 9.4626 0.900391 8.79985 0.900391C8.13711 0.900391 7.59985 1.43765 7.59985 2.10039V5.30039C7.59985 5.96313 8.13711 6.50039 8.79985 6.50039C9.4626 6.50039 9.99985 5.96313 9.99985 5.30039V2.10039Z" fill="#C5C5C5"/>
</g>
</g>
<defs>
<filter id="filter0_di_2037_1405" x="0" y="0.5" width="32" height="32" filterUnits="userSpaceOnUse" color-interpolation-filters="sRGB">
<feFlood flood-opacity="0" result="BackgroundImageFix"/>
<feColorMatrix in="SourceAlpha" type="matrix" values="0 0 0 0 0 0 0 0 0 0 0 0 0 0 0 0 0 0 127 0" result="hardAlpha"/>
<feOffset dy="4"/>
<feGaussianBlur stdDeviation="2"/>
<feComposite in2="hardAlpha" operator="out"/>
<feColorMatrix type="matrix" values="0 0 0 0 0 0 0 0 0 0 0 0 0 0 0 0 0 0 0.25 0"/>
<feBlend mode="normal" in2="BackgroundImageFix" result="effect1_dropShadow_2037_1405"/>
<feBlend mode="normal" in="SourceGraphic" in2="effect1_dropShadow_2037_1405" result="shape"/>
<feColorMatrix in="SourceAlpha" type="matrix" values="0 0 0 0 0 0 0 0 0 0 0 0 0 0 0 0 0 0 127 0" result="hardAlpha"/>
<feOffset dy="4"/>
<feGaussianBlur stdDeviation="2"/>
<feComposite in2="hardAlpha" operator="arithmetic" k2="-1" k3="1"/>
<feColorMatrix type="matrix" values="0 0 0 0 0 0 0 0 0 0 0 0 0 0 0 0 0 0 0.25 0"/>
<feBlend mode="normal" in2="shape" result="effect2_innerShadow_2037_1405"/>
</filter>
<filter id="filter1_di_2037_1405" x="0.399902" y="0.900391" width="31.2" height="31.2002" filterUnits="userSpaceOnUse" color-interpolation-filters="sRGB">
<feFlood flood-opacity="0" result="BackgroundImageFix"/>
<feColorMatrix in="SourceAlpha" type="matrix" values="0 0 0 0 0 0 0 0 0 0 0 0 0 0 0 0 0 0 127 0" result="hardAlpha"/>
<feOffset dy="4"/>
<feGaussianBlur stdDeviation="2"/>
<feComposite in2="hardAlpha" operator="out"/>
<feColorMatrix type="matrix" values="0 0 0 0 0 0 0 0 0 0 0 0 0 0 0 0 0 0 0.25 0"/>
<feBlend mode="normal" in2="BackgroundImageFix" result="effect1_dropShadow_2037_1405"/>
<feBlend mode="normal" in="SourceGraphic" in2="effect1_dropShadow_2037_1405" result="shape"/>
<feColorMatrix in="SourceAlpha" type="matrix" values="0 0 0 0 0 0 0 0 0 0 0 0 0 0 0 0 0 0 127 0" result="hardAlpha"/>
<feOffset dx="1" dy="2"/>
<feGaussianBlur stdDeviation="2"/>
<feComposite in2="hardAlpha" operator="arithmetic" k2="-1" k3="1"/>
<feColorMatrix type="matrix" values="0 0 0 0 0 0 0 0 0 0 0 0 0 0 0 0 0 0 0.4 0"/>
<feBlend mode="normal" in2="shape" result="effect2_innerShadow_2037_1405"/>
</filter>
<clipPath id="clip0_2037_1405">
<rect width="24" height="24" fill="white" transform="translate(4 0.5)"/>
</clipPath>
</defs>
</svg>
