<svg height="512" viewBox="0 0 60 60" width="512" xmlns="http://www.w3.org/2000/svg"><g id="a"><path d="m59 13v9h-58v-9c0-3.31 2.69-6 6-6h46c3.31 0 6 2.69 6 6z" fill="#e64c3c"/><path d="m59 22v31c0 3.31-2.69 6-6 6h-46c-3.31 0-6-2.69-6-6v-31z" fill="#ecf0f1"/><path d="m27 10c-1.21.91-2 2.37-2 4 0 2.76 2.24 5 5 5s5-2.24 5-5c0-1.63-.79-3.09-2-4z" fill="#802f34"/><path d="m45 10c-1.21.91-2 2.37-2 4 0 2.76 2.24 5 5 5s5-2.24 5-5c0-1.63-.79-3.09-2-4z" fill="#802f34"/><path d="m9 10c-1.21.91-2 2.37-2 4 0 2.76 2.24 5 5 5s5-2.24 5-5c0-1.63-.79-3.09-2-4z" fill="#802f34"/><g fill="#d1d4d1"><rect height="7" rx="1" width="9" x="19" y="26"/><rect height="7" rx="1" width="9" x="32" y="26"/><rect height="7" rx="1" width="9" x="45" y="26"/><rect height="7" rx="1" width="9" x="19" y="37"/><rect height="7" rx="1" width="9" x="32" y="37"/><rect height="7" rx="1" width="9" x="6" y="37"/><rect height="7" rx="1" width="9" x="45" y="37"/><rect height="7" rx="1" width="9" x="19" y="48"/><rect height="7" rx="1" width="9" x="32" y="48"/><rect height="7" rx="1" width="9" x="6" y="48"/></g><rect fill="#547580" height="14" rx="3" width="6" x="27" y="1"/><rect fill="#547580" height="14" rx="3" width="6" x="45" y="1"/><rect fill="#547580" height="14" rx="3" width="6" x="9" y="1"/></g></svg>