<svg width="24" height="25" viewBox="0 0 24 25" fill="none" xmlns="http://www.w3.org/2000/svg">
<g id="atom/icon/dashboard2/default" clip-path="url(#clip0_3748_1259)">
<path id="Vector" d="M9.24994 0.5H1.74994C0.784973 0.5 0 1.28497 0 2.24994V6.74994C0 7.71509 0.784973 8.50006 1.74994 8.50006H9.24994C10.2151 8.50006 11.0001 7.71509 11.0001 6.74994V2.24994C11.0001 1.28497 10.2151 0.5 9.24994 0.5Z" fill="#DFDDFB" fill-opacity="0.87451"/>
<path id="Vector_2" d="M9.24994 10.5H1.74994C0.784973 10.5 0 11.285 0 12.2501V22.7501C0 23.7151 0.784973 24.5001 1.74994 24.5001H9.24994C10.2151 24.5001 11.0001 23.7151 11.0001 22.7501V12.2501C11.0001 11.285 10.2151 10.5 9.24994 10.5Z" fill="#2897F3"/>
<path id="Vector_3" d="M22.2501 16.5H14.7501C13.7849 16.5 12.9999 17.285 12.9999 18.2501V22.7501C12.9999 23.7151 13.7849 24.5001 14.7501 24.5001H22.2501C23.215 24.5001 24 23.7151 24 22.7501V18.2501C24 17.285 23.215 16.5 22.2501 16.5Z" fill="#DFDDFB"/>
<path id="Vector_4" d="M22.2501 0.5H14.7501C13.7849 0.5 12.9999 1.28497 12.9999 2.24994V12.7499C12.9999 13.7151 13.7849 14.5001 14.7501 14.5001H22.2501C23.215 14.5001 24 13.7151 24 12.7499V2.24994C24 1.28497 23.215 0.5 22.2501 0.5Z" fill="#2897F3"/>
</g>
<defs>
<clipPath id="clip0_3748_1259">
<rect width="24" height="24" fill="white" transform="translate(0 0.5)"/>
</clipPath>
</defs>
</svg>
