<svg width="24" height="25" viewBox="0 0 24 25" fill="none" xmlns="http://www.w3.org/2000/svg">
<path d="M19 7.26562C18.7348 7.26562 18.4804 7.37098 18.2929 7.55852C18.1054 7.74605 18 8.00041 18 8.26562V19.4566C17.9713 19.9623 17.744 20.4362 17.3675 20.775C16.991 21.1138 16.4959 21.2902 15.99 21.2656H8.01C7.5041 21.2902 7.00898 21.1138 6.63251 20.775C6.25603 20.4362 6.02869 19.9623 6 19.4566V8.26562C6 8.00041 5.89464 7.74605 5.70711 7.55852C5.51957 7.37098 5.26522 7.26562 5 7.26562C4.73478 7.26562 4.48043 7.37098 4.29289 7.55852C4.10536 7.74605 4 8.00041 4 8.26562V19.4566C4.02854 20.4929 4.46658 21.4755 5.21818 22.1895C5.96978 22.9034 6.97367 23.2904 8.01 23.2656H15.99C17.0263 23.2904 18.0302 22.9034 18.7818 22.1895C19.5334 21.4755 19.9715 20.4929 20 19.4566V8.26562C20 8.00041 19.8946 7.74605 19.7071 7.55852C19.5196 7.37098 19.2652 7.26562 19 7.26562Z" fill="white"/>
<path d="M20 4.26562H16V2.26562C16 2.00041 15.8946 1.74605 15.7071 1.55852C15.5196 1.37098 15.2652 1.26563 15 1.26562H9C8.73478 1.26563 8.48043 1.37098 8.29289 1.55852C8.10536 1.74605 8 2.00041 8 2.26562V4.26562H4C3.73478 4.26562 3.48043 4.37098 3.29289 4.55852C3.10536 4.74605 3 5.00041 3 5.26562C3 5.53084 3.10536 5.7852 3.29289 5.97273C3.48043 6.16027 3.73478 6.26562 4 6.26562H20C20.2652 6.26562 20.5196 6.16027 20.7071 5.97273C20.8946 5.7852 21 5.53084 21 5.26562C21 5.00041 20.8946 4.74605 20.7071 4.55852C20.5196 4.37098 20.2652 4.26562 20 4.26562ZM10 4.26562V3.26562H14V4.26562H10Z" fill="white"/>
<path d="M11 17.2656V10.2656C11 10.0004 10.8946 9.74605 10.7071 9.55852C10.5196 9.37098 10.2652 9.26562 10 9.26562C9.73478 9.26562 9.48043 9.37098 9.29289 9.55852C9.10536 9.74605 9 10.0004 9 10.2656V17.2656C9 17.5308 9.10536 17.7852 9.29289 17.9727C9.48043 18.1603 9.73478 18.2656 10 18.2656C10.2652 18.2656 10.5196 18.1603 10.7071 17.9727C10.8946 17.7852 11 17.5308 11 17.2656Z" fill="white"/>
<path d="M15 17.2656V10.2656C15 10.0004 14.8946 9.74605 14.7071 9.55852C14.5196 9.37098 14.2652 9.26562 14 9.26562C13.7348 9.26562 13.4804 9.37098 13.2929 9.55852C13.1054 9.74605 13 10.0004 13 10.2656V17.2656C13 17.5308 13.1054 17.7852 13.2929 17.9727C13.4804 18.1603 13.7348 18.2656 14 18.2656C14.2652 18.2656 14.5196 18.1603 14.7071 17.9727C14.8946 17.7852 15 17.5308 15 17.2656Z" fill="white"/>
</svg>
