<svg width="147" height="147" viewBox="0 0 147 147" fill="none" xmlns="http://www.w3.org/2000/svg">
<g clip-path="url(#clip0_2961_7553)">
<path d="M125.661 71.1905C126.857 66.6556 127.499 61.8904 127.499 56.9723C127.499 26.6966 103.323 2.15332 73.5001 2.15332C43.6774 2.15332 19.5011 26.6966 19.5011 56.9723C19.5011 61.8904 20.1428 66.6556 21.3392 71.1905H125.661Z" fill="#555A66"/>
<path d="M73.5001 23.4698C67.6137 23.4698 62.842 18.698 62.842 12.8117C62.842 6.92537 67.6137 2.15332 73.5001 2.15332C43.6774 2.15332 19.5011 26.6966 19.5011 56.9723C19.5011 61.8904 20.1428 66.6556 21.3392 71.1905H73.5001V23.4698Z" fill="#414952"/>
<path d="M119.903 130.573C113.808 110.733 95.3381 96.3105 73.5 96.3105C51.6618 96.3105 33.1921 110.733 27.0968 130.573C24.9156 137.672 30.2891 144.847 37.7155 144.847H109.284C116.711 144.847 122.084 137.672 119.903 130.573Z" fill="#4F46E5"/>
<path d="M50.0655 130.573C55.0563 114.328 68.3446 101.717 84.9843 97.6798C81.3022 96.7863 77.4569 96.3105 73.5 96.3105C51.6616 96.3105 33.1921 110.733 27.0968 130.573C24.9156 137.672 30.2891 144.847 37.7155 144.847H60.6843C53.2576 144.847 47.8843 137.672 50.0655 130.573Z" fill="#3D36BD"/>
<path d="M104.795 135.718C107.966 135.718 110.537 133.147 110.537 129.976C110.537 126.804 107.966 124.233 104.795 124.233C101.624 124.233 99.0527 126.804 99.0527 129.976C99.0527 133.147 101.624 135.718 104.795 135.718Z" fill="#636978"/>
<path d="M103.145 99.8495L96.5325 94.3936H50.4678L43.8557 99.8495C42.4488 101.01 41.8758 102.901 42.3926 104.65C46.2111 117.574 54.6533 124.185 59.8278 127.147C62.0865 128.44 64.9648 127.593 66.1466 125.275L73.5 110.843L80.8537 125.275C82.0355 127.593 84.9137 128.44 87.1724 127.147C92.347 124.185 100.789 117.574 104.608 104.65C105.124 102.901 104.551 101.01 103.145 99.8495Z" fill="#4F46E5"/>
<path d="M39.881 39.3658L75.701 71.1905H110.394L116.919 58.2441C112.63 38.3664 94.9526 23.4697 73.7923 23.4697C60.1607 23.47 47.9746 29.6529 39.881 39.3658Z" fill="#CFA388"/>
<path d="M39.881 39.3655L55.138 52.9205C59.9359 39.3116 71.219 28.762 85.2764 24.9825C81.6143 23.9977 77.7651 23.4697 73.792 23.4697C60.1607 23.4697 47.9746 29.6526 39.881 39.3655Z" fill="#B2876D"/>
<path d="M96.1435 61.5281C80.2307 61.5281 66.285 48.7612 58.3748 39.3481C53.543 33.5984 44.6895 33.5961 39.8809 39.3653C33.2858 47.2783 29.4083 57.5356 29.6834 68.7047C30.2754 92.7504 50.2625 111.99 74.3137 111.711C98.4415 111.432 117.914 91.786 117.914 67.5919C117.914 64.384 117.569 61.2574 116.919 58.2439C110.706 60.3409 103.64 61.5281 96.1435 61.5281Z" fill="#FFEEE5"/>
<path d="M52.6384 67.5919C52.6384 58.0845 55.6455 49.2797 60.7604 42.0762C59.9143 41.1462 59.1178 40.2324 58.3748 39.3481C53.543 33.5984 44.6895 33.5961 39.8809 39.3653C33.2858 47.2783 29.4083 57.5356 29.6834 68.7047C30.2754 92.7504 50.2625 111.99 74.3137 111.711C78.1038 111.667 81.7785 111.145 85.2815 110.203C66.4799 105.15 52.6384 87.9887 52.6384 67.5919Z" fill="#FFDECF"/>
<path d="M133.362 86.9814C139.705 86.9814 144.847 81.8396 144.847 75.4971V66.8838C144.847 60.5413 139.705 55.3994 133.362 55.3994C127.02 55.3994 121.878 60.5413 121.878 66.8838V75.4971C121.878 81.8396 127.02 86.9814 133.362 86.9814Z" fill="#555A66"/>
<path d="M121.878 97.0303C128.22 97.0303 133.362 91.8884 133.362 85.5459V56.835C133.362 50.4924 128.22 45.3506 121.878 45.3506C115.535 45.3506 110.394 50.4924 110.394 56.835V85.5459C110.394 91.8884 115.535 97.0303 121.878 97.0303Z" fill="#707789"/>
<path d="M121.878 85.5459V56.835C121.878 52.5849 124.188 48.8769 127.62 46.8909C125.93 45.913 123.97 45.3506 121.878 45.3506C115.535 45.3506 110.394 50.4924 110.394 56.835V85.5459C110.394 91.8884 115.535 97.0303 121.878 97.0303C123.97 97.0303 125.93 96.4678 127.62 95.4899C124.188 93.504 121.878 89.796 121.878 85.5459Z" fill="#636978"/>
<path d="M13.6377 86.9814C7.29516 86.9814 2.15332 81.8396 2.15332 75.4971V66.8838C2.15332 60.5413 7.29516 55.3994 13.6377 55.3994C19.9802 55.3994 25.1221 60.5413 25.1221 66.8838V75.4971C25.1221 81.8396 19.9802 86.9814 13.6377 86.9814Z" fill="#555A66"/>
<path d="M25.1221 97.0303C18.7795 97.0303 13.6377 91.8884 13.6377 85.5459V56.835C13.6377 50.4924 18.7795 45.3506 25.1221 45.3506C31.4646 45.3506 36.6064 50.4924 36.6064 56.835V85.5459C36.6064 91.8884 31.4646 97.0303 25.1221 97.0303Z" fill="#707789"/>
<path d="M25.1221 85.5459V56.835C25.1221 52.5849 27.4324 48.8769 30.8643 46.8909C29.1746 45.913 27.2145 45.3506 25.1221 45.3506C18.7795 45.3506 13.6377 50.4924 13.6377 56.835V85.5459C13.6377 91.8884 18.7795 97.0303 25.1221 97.0303C27.2145 97.0303 29.1746 96.4678 30.8643 95.4899C27.4324 93.504 25.1221 89.796 25.1221 85.5459Z" fill="#636978"/>
<path d="M135.064 53.3561C134.096 49.6886 131.636 46.6208 128.374 44.8462C125.72 32.4382 118.943 21.1577 109.232 13.0221C99.2101 4.62447 86.5201 0 73.5 0C60.4805 0 47.7911 4.62418 37.769 13.0207C28.0581 21.1562 21.2803 32.4376 18.6262 44.8459C15.3641 46.6205 12.9041 49.6886 11.9357 53.3558C5.21678 54.1968 0 59.9407 0 66.8839V75.4971C0 82.4403 5.21678 88.1839 11.9357 89.0249C13.4778 94.8647 18.8042 99.1837 25.1221 99.1837C29.456 99.1837 33.3213 97.1489 35.8212 93.9875C37.3495 96.1742 39.0555 98.2063 40.9082 100.075C40.0328 101.626 39.802 103.482 40.3274 105.261C40.4267 105.597 40.5301 105.932 40.6366 106.264C33.2625 112.548 27.8737 120.711 25.0382 129.941C23.8028 133.963 24.5332 138.217 27.0423 141.613C29.572 145.036 33.4623 147 37.7155 147H109.284C113.538 147 117.428 145.036 119.958 141.613C122.467 138.217 123.197 133.963 121.962 129.941C121.359 127.98 120.636 126.07 119.808 124.212C122.474 121.683 124.031 118.152 124.031 114.337V99.012C129.38 98.1598 133.701 94.1874 135.064 89.0249C141.783 88.1839 147 82.44 147 75.4971V66.8839C147 59.9407 141.783 54.1968 135.064 53.3561ZM40.5347 16.3219C49.7828 8.57366 61.4899 4.30664 73.5 4.30664C85.5107 4.30664 97.2184 8.57423 106.467 16.323C114.803 23.3075 120.802 32.8005 123.581 43.3076C123.022 43.2378 122.455 43.1976 121.878 43.1976C119.125 43.1976 116.563 44.0199 114.417 45.4279C111.525 40.1471 107.576 35.4037 102.889 31.6093C101.965 30.8608 100.609 31.0035 99.8609 31.9277C99.1124 32.8519 99.2551 34.2079 100.179 34.9561C104.71 38.6248 108.483 43.2694 111.143 48.4399C109.327 50.7563 108.24 53.6702 108.24 56.835V58.27C104.326 59.001 100.264 59.3748 96.1435 59.3748C89.3737 59.3748 75.6792 56.593 60.0234 37.9627C57.527 34.992 53.9662 33.193 50.1316 32.9234C57.0285 28.2085 65.2379 25.6228 73.7923 25.6228C80.6909 25.6228 87.5302 27.3322 93.5698 30.566C94.6178 31.1272 95.923 30.7328 96.4845 29.684C97.0458 28.6357 96.6511 27.3305 95.6025 26.7692C88.9396 23.2016 81.3978 21.3159 73.7923 21.3159C60.0179 21.3159 47.0549 27.3922 38.2269 37.9866C36.2283 40.3845 34.4824 42.9791 33.0093 45.7193C30.7807 44.1333 28.0595 43.1968 25.1221 43.1968C24.545 43.1968 23.9777 43.2369 23.4192 43.3067C26.1984 32.7997 32.1979 23.3064 40.5347 16.3219ZM4.30664 75.4971V66.8839C4.30664 62.4799 7.3744 58.7813 11.4844 57.8063V84.5747C7.3744 83.5994 4.30664 79.9008 4.30664 75.4971ZM25.1221 94.877C19.9771 94.877 15.791 90.691 15.791 85.546V56.835C15.791 51.69 19.9771 47.504 25.1221 47.504C30.2671 47.504 34.4531 51.69 34.4531 56.835V85.546C34.4531 90.691 30.2671 94.877 25.1221 94.877ZM36.2076 48.9062C37.6578 45.9964 39.444 43.2536 41.5332 40.7463L41.535 40.7443C43.4124 38.4919 46.1715 37.1967 49.1055 37.1907C52.0478 37.1858 54.829 38.4761 56.7262 40.7336C63.9281 49.3039 78.6258 63.6814 96.1435 63.6814C100.252 63.6814 104.311 63.3312 108.24 62.6461V85.5457C108.24 87.2141 108.543 88.8127 109.094 90.2913C101.423 102.205 88.475 109.394 74.289 109.558C59.674 109.725 45.8815 102.115 38.1255 89.6559C38.5367 88.3582 38.7598 86.9775 38.7598 85.5454V56.8344C38.7598 53.8792 37.8114 51.1425 36.2076 48.9062ZM102.543 104.04C98.8828 116.427 90.6717 122.664 86.1027 125.279C85.5227 125.611 84.852 125.69 84.2143 125.5C83.5836 125.311 83.0717 124.885 82.7725 124.298L77.3875 113.73C86.7182 113.015 95.4455 109.537 102.586 103.851C102.572 103.914 102.561 103.978 102.543 104.04ZM116.494 139.053C114.785 141.367 112.157 142.693 109.284 142.693H37.7155C34.843 142.693 32.2154 141.367 30.5059 139.053C28.8175 136.768 28.3248 133.908 29.1551 131.206C31.5984 123.253 36.1152 116.165 42.2705 110.561C43.6891 113.772 45.4744 116.74 47.6122 119.426C48.0374 119.96 48.665 120.238 49.2984 120.238C49.7684 120.238 50.2418 120.085 50.6383 119.769C51.5689 119.028 51.7225 117.674 50.9817 116.743C48.0581 113.071 45.8631 108.797 44.4577 104.04C44.3791 103.774 44.3547 103.501 44.3696 103.231C51.5146 109.118 60.3246 112.816 69.6421 113.672L64.2278 124.297C63.9286 124.884 63.4167 125.311 62.7859 125.499C62.1488 125.689 61.4782 125.611 60.8973 125.279C59.4704 124.462 58.0748 123.52 56.7495 122.477C55.8149 121.742 54.4612 121.903 53.7256 122.838C52.9903 123.773 53.152 125.127 54.0868 125.862C55.5772 127.034 57.1491 128.096 58.7581 129.017C59.7825 129.603 60.9424 129.904 62.1069 129.904C62.7495 129.904 63.3935 129.812 64.0165 129.626C65.7877 129.098 67.2255 127.9 68.065 126.253L73.5 115.587L78.9353 126.253C79.7745 127.9 81.2123 129.098 82.9838 129.626C83.6068 129.812 84.2508 129.904 84.8934 129.904C86.0579 129.904 87.2178 129.603 88.2422 129.017C92.6694 126.483 100.137 120.924 104.727 110.56C108.618 114.1 111.851 118.234 114.321 122.806L110.623 124.655C109.178 123.075 107.101 122.081 104.796 122.081C100.442 122.081 96.9 125.623 96.9 129.977C96.9 134.33 100.442 137.872 104.796 137.872C109.149 137.872 112.691 134.33 112.691 129.977C112.691 129.474 112.642 128.983 112.551 128.506L116.191 126.686C116.817 128.158 117.372 129.665 117.845 131.207C118.675 133.908 118.183 136.768 116.494 139.053ZM108.384 129.976C108.384 131.955 106.774 133.565 104.795 133.565C102.816 133.565 101.206 131.955 101.206 129.976C101.206 127.997 102.816 126.387 104.795 126.387C106.774 126.387 108.384 127.997 108.384 129.976ZM106.361 106.261C106.467 105.931 106.573 105.599 106.673 105.261C107.139 103.683 106.992 101.992 106.315 100.528C108.204 98.6557 109.948 96.6112 111.518 94.4001C113.578 96.8075 116.459 98.4917 119.724 99.012V114.337C119.724 116.476 119.005 118.483 117.743 120.091C114.823 114.874 110.983 110.199 106.361 106.261ZM121.878 94.877C116.733 94.877 112.547 90.691 112.547 85.546V56.835C112.547 51.69 116.733 47.504 121.878 47.504C127.023 47.504 131.209 51.69 131.209 56.835V85.546C131.209 90.691 127.023 94.877 121.878 94.877ZM142.693 75.4971C142.693 79.9011 139.626 83.5996 135.516 84.5747V57.8063C139.626 58.7813 142.693 62.4799 142.693 66.8839V75.4971Z" fill="black"/>
<path d="M50.6584 85.2526C55.3131 85.2526 59.0865 82.2477 59.0865 78.5409C59.0865 74.8341 55.3131 71.8291 50.6584 71.8291C46.0037 71.8291 42.2303 74.8341 42.2303 78.5409C42.2303 82.2477 46.0037 85.2526 50.6584 85.2526Z" fill="#FFA1AC"/>
<path d="M96.3416 85.2526C100.996 85.2526 104.77 82.2477 104.77 78.5409C104.77 74.8341 100.996 71.8291 96.3416 71.8291C91.6868 71.8291 87.9135 74.8341 87.9135 78.5409C87.9135 82.2477 91.6868 85.2526 96.3416 85.2526Z" fill="#FFA1AC"/>
<path d="M55.5703 74.2334C54.3811 74.2334 53.417 73.2693 53.417 72.0801V68.6348C53.417 67.4456 54.3811 66.4814 55.5703 66.4814C56.7595 66.4814 57.7236 67.4456 57.7236 68.6348V72.0801C57.7236 73.2693 56.7595 74.2334 55.5703 74.2334Z" fill="black"/>
<path d="M91.4297 74.2334C90.2405 74.2334 89.2764 73.2693 89.2764 72.0801V68.6348C89.2764 67.4456 90.2405 66.4814 91.4297 66.4814C92.6189 66.4814 93.583 67.4456 93.583 68.6348V72.0801C93.583 73.2693 92.6189 74.2334 91.4297 74.2334Z" fill="black"/>
<path d="M73.5 76.2844C71.0659 76.2844 68.7512 75.2304 67.1494 73.3923C66.3682 72.4957 66.4615 71.1357 67.3582 70.3541C68.2548 69.5729 69.6148 69.6662 70.3964 70.5629C71.1799 71.4621 72.3111 71.9777 73.5 71.9777C74.6889 71.9777 75.8201 71.4621 76.6037 70.5629C77.3849 69.6662 78.7452 69.5729 79.6418 70.3541C80.5385 71.1357 80.6318 72.4957 79.8506 73.3923C78.2488 75.2304 75.9341 76.2844 73.5 76.2844Z" fill="black"/>
</g>
<defs>
<clipPath id="clip0_2961_7553">
<rect width="147" height="147" fill="white"/>
</clipPath>
</defs>
</svg>
