<svg width="24" height="25" viewBox="0 0 24 25" fill="none" xmlns="http://www.w3.org/2000/svg">
<path d="M11.9936 17.9193C11.7859 17.9193 11.5781 17.9133 11.3692 17.902C7.71562 17.6977 4.35149 15.7424 2.36962 12.6715C2.14499 12.3235 2.24512 11.8593 2.59312 11.6347C2.94187 11.41 3.40537 11.5105 3.62999 11.8582C5.35199 14.5274 8.27662 16.2269 11.4529 16.4043C14.8714 16.5967 18.2179 14.9632 20.1784 12.1439C20.2436 12.0502 20.3074 11.9549 20.3696 11.8582C20.5939 11.5102 21.0577 11.41 21.4065 11.6343C21.7545 11.8589 21.8546 12.3228 21.6304 12.6712C21.5591 12.7818 21.4856 12.8913 21.4102 12.9997C19.2742 16.0717 15.7102 17.9193 11.9936 17.9193Z" fill="white"/>
<path d="M21.0007 13.0145C20.7544 13.0145 20.5132 12.8933 20.3696 12.671C18.6476 10.0017 15.723 8.30221 12.5467 8.12483C9.12337 7.92946 5.78137 9.56596 3.82125 12.3852C3.756 12.479 3.69225 12.5742 3.63 12.671C3.40575 13.019 2.9415 13.1191 2.59312 12.8948C2.24512 12.6702 2.145 12.2063 2.36925 11.858C2.4405 11.7473 2.514 11.6378 2.58937 11.5295C4.845 8.28571 8.69062 6.41183 12.6304 6.62708C16.284 6.83146 19.6481 8.78671 21.63 11.8576C21.8546 12.2056 21.7545 12.6698 21.4065 12.8945C21.2809 12.9758 21.1399 13.0145 21.0007 13.0145Z" fill="white"/>
<path d="M12 15.2646C10.3459 15.2646 9 13.9188 9 12.2646C9 10.6105 10.3459 9.26465 12 9.26465C13.6541 9.26465 15 10.6105 15 12.2646C15 13.9188 13.6541 15.2646 12 15.2646ZM12 10.7646C11.187 10.7646 10.5 11.4516 10.5 12.2646C10.5 13.0776 11.187 13.7646 12 13.7646C12.813 13.7646 13.5 13.0776 13.5 12.2646C13.5 11.4516 12.813 10.7646 12 10.7646Z" fill="white"/>
</svg>
