<svg width="24" height="25" viewBox="0 0 24 25" fill="none" xmlns="http://www.w3.org/2000/svg">
<g id="atom/icon/galeria2/default">
<path id="Vector" d="M3.40127 0H20.5987C22.4713 0 24 1.52149 24 3.38532V20.9966C24 22.8604 22.4713 24.3819 20.5987 24.3819H3.40127C1.52866 24.3819 0 22.8604 0 20.9966V3.34729C0 1.52149 1.52866 0 3.40127 0Z" fill="#DFDDFB"/>
<path id="Vector_2" d="M11.0828 15.9381L6.07643 10.9172L0 16.9651V18.2584V20.9971C0 22.8609 1.52866 24.3824 3.40127 24.3824H20.5987C22.4713 24.3824 24 22.8609 24 20.9971V18.2584V14.4927L18.3057 8.78711L11.0828 15.9381Z" fill="#2897F3"/>
<path id="Vector_3" d="M10.9683 10.1938C12.1502 10.1938 13.1084 9.2401 13.1084 8.06368C13.1084 6.88727 12.1502 5.93359 10.9683 5.93359C9.78629 5.93359 8.82812 6.88727 8.82812 8.06368C8.82812 9.2401 9.78629 10.1938 10.9683 10.1938Z" fill="#FFCC03"/>
</g>
</svg>
