<svg width="24" height="25" viewBox="0 0 24 25" fill="none" xmlns="http://www.w3.org/2000/svg">
<g id="Group">
<g id="Group_2">
<g id="Group_3">
<path id="Vector" d="M5.21049 4.60524H7.10523C7.19245 4.60524 7.26311 4.53452 7.26311 4.44736V0.65788C7.26311 0.570659 7.19245 0.5 7.10523 0.5H5.21049C5.12327 0.5 5.05261 0.57072 5.05261 0.65788V4.44736C5.05261 4.53458 5.12327 4.60524 5.21049 4.60524Z" fill="#2897F3"/>
<path id="Vector_2" d="M22.2316 3.3418H19.8947V4.3523C19.8947 4.95233 19.4526 5.5523 18.8526 5.5523H16.9895C16.3465 5.50672 15.8351 4.99525 15.7895 4.3523V3.3418H8.21052V4.3523C8.16495 4.99525 7.65347 5.50672 7.01052 5.5523H5.14734C4.54731 5.5523 4.10522 4.95227 4.10522 4.3523V3.3418H1.76839C0.961036 3.35902 0.315554 4.01853 0.315735 4.82606V8.71026H23.6842V4.82606C23.6844 4.01853 23.0389 3.35902 22.2316 3.3418Z" fill="#2897F3"/>
<path id="Vector_3" d="M16.8947 4.60524H18.7894C18.8767 4.60524 18.9473 4.53452 18.9473 4.44736V0.65788C18.9473 0.570659 18.8766 0.5 18.7894 0.5H16.8947C16.8075 0.5 16.7368 0.57072 16.7368 0.65788V4.44736C16.7368 4.53458 16.8075 4.60524 16.8947 4.60524Z" fill="#2897F3"/>
<path id="Vector_4" d="M9.63155 18.1207L9.18946 20.6786L11.4631 19.4786L11.6842 19.4154L11.9052 19.4786L14.1789 20.6786L13.7368 18.1207C13.7199 17.9722 13.7657 17.8235 13.8631 17.7102L15.7263 15.9417L13.1684 15.5628C13.0189 15.5389 12.8898 15.4451 12.8211 15.3102L11.6842 13.0049L10.5474 15.3102C10.4786 15.4451 10.3496 15.5389 10.2 15.5628L7.64215 15.9417L9.50534 17.7102C9.60266 17.8234 9.64841 17.9722 9.63155 18.1207Z" fill="#2897F3"/>
<path id="Vector_5" d="M0.315735 23.0793C0.332901 23.8692 0.978263 24.5005 1.76839 24.5003H22.2316C23.0216 24.5005 23.667 23.8692 23.6842 23.0793V9.6582H0.315735V23.0793ZM6.18945 15.4688C6.23986 15.2962 6.38964 15.1714 6.56838 15.153L9.821 14.6477L11.2736 11.7109C11.4041 11.4842 11.6938 11.4062 11.9205 11.5367C11.9929 11.5784 12.053 11.6385 12.0947 11.7109L13.5474 14.6477L16.8 15.153C16.9787 15.1714 17.1286 15.2963 17.1789 15.4688C17.2362 15.6377 17.1864 15.8245 17.0526 15.9425L14.7158 18.2161L15.2842 21.4687C15.3061 21.6396 15.2335 21.8089 15.0947 21.9108C15.0117 21.9704 14.9126 22.0034 14.8105 22.0055C14.7315 22.013 14.6525 21.9905 14.5894 21.9424L11.6842 20.4266L8.77894 21.9424C8.62057 22.0389 8.41881 22.0263 8.27369 21.9108C8.13485 21.8089 8.06231 21.6396 8.08419 21.4687L8.65261 18.2161L6.31578 15.9425C6.18196 15.8245 6.13215 15.6376 6.18945 15.4688Z" fill="white"/>
</g>
</g>
</g>
</svg>
