<svg width="32" height="32" viewBox="0 0 32 32" fill="none" xmlns="http://www.w3.org/2000/svg">
<g id="Component 19">
<path id="Vector" d="M28 26.667V8.00033C28 6.52966 26.804 5.33366 25.3333 5.33366H22.6667V2.66699H20V5.33366H12V2.66699H9.33333V5.33366H6.66667C5.196 5.33366 4 6.52966 4 8.00033V26.667C4 28.1377 5.196 29.3337 6.66667 29.3337H25.3333C26.804 29.3337 28 28.1377 28 26.667ZM12 24.0003H9.33333V21.3337H12V24.0003ZM12 18.667H9.33333V16.0003H12V18.667ZM17.3333 24.0003H14.6667V21.3337H17.3333V24.0003ZM17.3333 18.667H14.6667V16.0003H17.3333V18.667ZM22.6667 24.0003H20V21.3337H22.6667V24.0003ZM22.6667 18.667H20V16.0003H22.6667V18.667ZM25.3333 12.0003H6.66667V9.33366H25.3333V12.0003Z" fill="#F4F4F4"/>
</g>
</svg>
