<svg width="24" height="24" viewBox="0 0 24 24" fill="none" xmlns="http://www.w3.org/2000/svg">
<g clip-path="url(#clip0_2643_3854)">
<path d="M20.5358 12.8115H18.6797C18.8689 13.3295 18.9722 13.8885 18.9722 14.4711V21.4859C18.9722 21.7289 18.93 21.962 18.853 22.1789H21.9215C23.0678 22.1789 24.0002 21.2463 24.0002 20.1001V16.276C24.0003 14.3657 22.4461 12.8115 20.5358 12.8115Z" fill="#2897F3"/>
<path d="M5.02806 14.4711C5.02806 13.8884 5.13142 13.3295 5.3206 12.8115H3.46454C1.55419 12.8115 0 14.3657 0 16.2761V20.1002C0 21.2464 0.932486 22.1789 2.07872 22.1789H5.14726C5.07034 21.962 5.02806 21.7289 5.02806 21.4859V14.4711Z" fill="#2897F3"/>
<path d="M14.1218 11.0068H9.8786C7.96825 11.0068 6.41406 12.561 6.41406 14.4714V21.4862C6.41406 21.8689 6.72428 22.1791 7.10697 22.1791H16.8935C17.2761 22.1791 17.5864 21.8689 17.5864 21.4862V14.4714C17.5864 12.561 16.0322 11.0068 14.1218 11.0068Z" fill="white"/>
<path d="M11.9995 1.82031C9.70211 1.82031 7.83301 3.68941 7.83301 5.9869C7.83301 7.54526 8.69312 8.90628 9.96334 9.62084C10.5658 9.95975 11.2604 10.1534 11.9995 10.1534C12.7387 10.1534 13.4333 9.95975 14.0358 9.62084C15.306 8.90628 16.1661 7.54521 16.1661 5.9869C16.1661 3.68946 14.297 1.82031 11.9995 1.82031Z" fill="white"/>
<path d="M4.6834 5.7041C2.9652 5.7041 1.56738 7.10192 1.56738 8.82012C1.56738 10.5383 2.9652 11.9361 4.6834 11.9361C5.11925 11.9361 5.53428 11.8459 5.9113 11.6836C6.56314 11.4029 7.10061 10.9062 7.43319 10.2839C7.66663 9.84716 7.79943 9.34892 7.79943 8.82012C7.79943 7.10196 6.40161 5.7041 4.6834 5.7041Z" fill="#2897F3"/>
<path d="M19.3162 5.7041C17.598 5.7041 16.2002 7.10192 16.2002 8.82012C16.2002 9.34897 16.333 9.8472 16.5664 10.2839C16.899 10.9062 17.4365 11.403 18.0883 11.6836C18.4653 11.8459 18.8804 11.9361 19.3162 11.9361C21.0344 11.9361 22.4322 10.5383 22.4322 8.82012C22.4322 7.10192 21.0344 5.7041 19.3162 5.7041Z" fill="#2897F3"/>
</g>
<defs>
<clipPath id="clip0_2643_3854">
<rect width="24" height="24" fill="white"/>
</clipPath>
</defs>
</svg>
