<svg id="Capa_1" enable-background="new 0 0 512 512" height="512" viewBox="0 0 512 512" width="512" xmlns="http://www.w3.org/2000/svg"><g><g><path d="m488.468 235.96h-464.936c-8.854 0-16.032 7.178-16.032 16.032v128.258c0 8.854 7.178 16.032 16.032 16.032h464.935c8.854 0 16.032-7.178 16.032-16.032v-128.258c.001-8.854-7.177-16.032-16.031-16.032z" fill="#ff646f"/><circle cx="256" cy="131.75" fill="#c9c5c9" r="16.032"/><path d="m47.581 372.234c-8.838 0-16.032-7.19-16.032-16.032v-120.242h-8.016c-8.854 0-16.032 7.178-16.032 16.032v128.258c0 8.854 7.179 16.032 16.032 16.032h464.935c8.854 0 16.032-7.178 16.032-16.032v-8.016z" fill="#fb4455"/></g><g><path d="m200.899 333.407c-.015 0-.028 0-.043 0-3.549.02-7.291.034-10.403.04v-43.746c0-4.143-3.357-7.5-7.5-7.5s-7.5 3.357-7.5 7.5v51.206c0 3.653 2.632 6.774 6.231 7.392.532.091.902.154 6.703.154 2.758 0 6.741-.014 12.553-.047 4.142-.022 7.481-3.399 7.458-7.542-.023-4.127-3.376-7.457-7.499-7.457z"/><path d="m72.485 308.693c-6.105-2.253-11.804-4.702-13.747-5.55-.823-.737-.835-1.698-.757-2.242.1-.697.622-2.406 3.309-3.214 6.634-1.999 12.89 2.896 13.097 3.062 3.17 2.622 7.869 2.202 10.521-.954 2.665-3.17 2.256-7.902-.915-10.567-.502-.422-12.467-10.29-27.029-5.904-7.487 2.255-12.787 8.174-13.831 15.446-.982 6.849 1.987 13.438 7.752 17.196.331.216.679.405 1.04.566.298.133 7.388 3.289 15.369 6.233 1.552.572 6.571 2.679 6.021 5.758-.423 2.369-3.554 4.926-7.876 4.926-4.79 0-9.389-1.919-12.301-5.133-2.779-3.07-7.522-3.304-10.594-.522-3.069 2.781-3.303 7.524-.521 10.594 5.793 6.394 14.327 10.062 23.416 10.062 11.331 0 20.854-7.271 22.643-17.289 1.354-7.581-2.033-17.465-15.597-22.468z"/><path d="m411.174 283.792c-4.143 0-7.5 3.358-7.5 7.5v35.228c0 2.274-.657 4.931-5.532 7.386-1.517.764-3.173 1.136-5.062 1.136-.007 0-.014 0-.02 0-2.048-.003-3.82-.501-5.419-1.522-3.812-2.435-4.578-4.469-4.578-6.962v-35.265c0-4.142-3.357-7.5-7.5-7.5s-7.5 3.358-7.5 7.5v35.265c0 8.132 3.87 14.728 11.502 19.603 4.021 2.569 8.554 3.875 13.474 3.881h.041c4.228 0 8.201-.921 11.81-2.739 8.889-4.477 13.784-11.858 13.784-20.783v-35.228c0-4.142-3.358-7.5-7.5-7.5z"/><path d="m464.419 283.792h-28.302c-4.143 0-7.5 3.358-7.5 7.5s3.357 7.5 7.5 7.5h6.594v43.749c0 4.142 3.357 7.5 7.5 7.5s7.5-3.358 7.5-7.5v-43.749h6.708c4.143 0 7.5-3.358 7.5-7.5s-3.357-7.5-7.5-7.5z"/><path d="m131.401 282.201c-18.266 0-33.125 14.859-33.125 33.124s14.859 33.125 33.125 33.125c18.265 0 33.124-14.86 33.124-33.125 0-18.264-14.859-33.124-33.124-33.124zm0 51.249c-9.994 0-18.125-8.131-18.125-18.125s8.131-18.124 18.125-18.124c9.993 0 18.124 8.13 18.124 18.124s-8.13 18.125-18.124 18.125z"/><path d="m324.334 282.201c-18.266 0-33.125 14.859-33.125 33.124s14.859 33.125 33.125 33.125c18.265 0 33.124-14.86 33.124-33.125 0-18.264-14.859-33.124-33.124-33.124zm0 51.249c-9.994 0-18.125-8.131-18.125-18.125s8.131-18.124 18.125-18.124c9.993 0 18.124 8.13 18.124 18.124s-8.131 18.125-18.124 18.125z"/><path d="m488.468 228.46h-45.964l-163.398-101.151c-2.083-10.859-11.649-19.091-23.106-19.091s-21.023 8.232-23.106 19.091l-163.398 101.151h-45.964c-12.975 0-23.532 10.557-23.532 23.532v128.258c0 12.976 10.557 23.532 23.532 23.532h464.936c12.976 0 23.532-10.557 23.532-23.532v-128.258c0-12.975-10.557-23.532-23.532-23.532zm-232.468-105.242c4.705 0 8.532 3.828 8.532 8.532s-3.827 8.532-8.532 8.532-8.532-3.828-8.532-8.532 3.827-8.532 8.532-8.532zm241 257.032c0 4.705-3.827 8.532-8.532 8.532h-464.936c-4.705 0-8.532-3.828-8.532-8.532v-128.258c0-4.705 3.827-8.532 8.532-8.532h328.661c4.143 0 7.5-3.358 7.5-7.5 0-4.143-3.357-7.5-7.5-7.5h-254.2l137.529-85.138c4.047 7.133 11.707 11.96 20.478 11.96s16.431-4.827 20.478-11.96l137.53 85.138h-29.75c-4.143 0-7.5 3.357-7.5 7.5 0 4.142 3.357 7.5 7.5 7.5h104.21c4.705 0 8.532 3.827 8.532 8.532z"/><path d="m241.346 282.959h-14.085c-1.991 0-3.901.792-5.309 2.201-1.406 1.41-2.195 3.321-2.191 5.312 0 .001.101 49.746.101 49.746.007 1.99.805 3.895 2.217 5.296 1.404 1.396 3.304 2.178 5.283 2.178h.028c.426-.002 10.478-.041 14.499-.111 15.669-.273 27.041-13.839 27.041-32.256 0-19.359-11.085-32.366-27.584-32.366zm.281 49.625c-1.588.027-4.217.05-6.791.068-.018-5.774-.052-28.676-.062-34.693h6.571c11.677 0 12.584 13.292 12.584 17.366.001 8.484-3.803 17.11-12.302 17.259z"/></g></g></svg>