<svg xmlns="http://www.w3.org/2000/svg" width="209" height="214" viewBox="0 0 209 214" fill="none">
  <g clip-path="url(#clip0_3988_8860)">
    <path d="M120.828 119.539C123.081 119.539 124.91 117.666 124.91 115.359C124.91 113.052 123.081 111.18 120.828 111.18C118.575 111.18 116.746 113.052 116.746 115.359C116.746 117.666 118.575 119.539 120.828 119.539Z" fill="#F4F4F4"/>
    <path d="M31.0234 119.539C33.2765 119.539 35.1055 117.666 35.1055 115.359C35.1055 113.052 33.2765 111.18 31.0234 111.18C28.7703 111.18 26.9414 113.052 26.9414 115.359C26.9414 117.666 28.7703 119.539 31.0234 119.539Z" fill="#F4F4F4"/>
    <path d="M4.08203 52.6641C6.33672 52.6641 8.16406 50.793 8.16406 48.4844V8.35938H47.3516C49.6062 8.35938 51.4336 6.48831 51.4336 4.17969C51.4336 1.87106 49.6062 0 47.3516 0H4.08203C1.82735 0 0 1.87106 0 4.17969V48.4844C0 50.793 1.82735 52.6641 4.08203 52.6641Z" fill="#F4F4F4"/>
    <path d="M51.4336 209.82C51.4336 207.512 49.6062 205.641 47.3516 205.641H8.16406V165.516C8.16406 163.207 6.33672 161.336 4.08203 161.336C1.82735 161.336 0 163.207 0 165.516V209.82C0 212.129 1.82735 214 4.08203 214H47.3516C49.6062 214 51.4336 212.129 51.4336 209.82Z" fill="#F4F4F4"/>
    <path d="M204.918 161.336C202.663 161.336 200.836 163.207 200.836 165.516V205.641H161.648C159.394 205.641 157.566 207.512 157.566 209.82C157.566 212.129 159.394 214 161.648 214H204.918C207.173 214 209 212.129 209 209.82V165.516C209 163.207 207.173 161.336 204.918 161.336Z" fill="#F4F4F4"/>
    <path d="M204.918 0H161.648C159.394 0 157.566 1.87106 157.566 4.17969C157.566 6.48831 159.394 8.35938 161.648 8.35938H200.836V48.4844C200.836 50.793 202.663 52.6641 204.918 52.6641C207.173 52.6641 209 50.793 209 48.4844V4.17969C209 1.87106 207.173 0 204.918 0Z" fill="#F4F4F4"/>
    <path d="M26.9414 182.234C26.9414 184.543 28.7688 186.414 31.0234 186.414H71.8438C74.0984 186.414 75.9258 184.543 75.9258 182.234V140.438C75.9258 138.129 74.0984 136.258 71.8438 136.258H31.0234C28.7688 136.258 26.9414 138.129 26.9414 140.438V182.234ZM35.1055 144.617H67.7617V178.055H35.1055V144.617Z" fill="#F4F4F4"/>
    <path d="M71.8438 27.5859H31.0234C28.7688 27.5859 26.9414 29.457 26.9414 31.7656V73.5625C26.9414 75.8711 28.7688 77.7422 31.0234 77.7422H71.8438C74.0984 77.7422 75.9258 75.8711 75.9258 73.5625V31.7656C75.9258 29.457 74.0984 27.5859 71.8438 27.5859ZM67.7617 69.3828H35.1055V35.9453H67.7617V69.3828Z" fill="#F4F4F4"/>
    <path d="M182.059 31.7656C182.059 29.457 180.231 27.5859 177.977 27.5859H137.156C134.902 27.5859 133.074 29.457 133.074 31.7656V73.5625C133.074 75.8711 134.902 77.7422 137.156 77.7422H177.977C180.231 77.7422 182.059 75.8711 182.059 73.5625V31.7656ZM173.895 69.3828H141.238V35.9453H173.895V69.3828Z" fill="#F4F4F4"/>
    <path d="M182.059 182.234V140.438C182.059 138.129 180.231 136.258 177.977 136.258H137.156C134.902 136.258 133.074 138.129 133.074 140.438V182.234C133.074 184.543 134.902 186.414 137.156 186.414H177.977C180.231 186.414 182.059 184.543 182.059 182.234ZM173.895 178.055H141.238V144.617H173.895V178.055Z" fill="#F4F4F4"/>
    <path d="M55.5156 152.977H47.3516C45.0969 152.977 43.2695 154.848 43.2695 157.156V165.516C43.2695 167.824 45.0969 169.695 47.3516 169.695H55.5156C57.7703 169.695 59.5977 167.824 59.5977 165.516V157.156C59.5977 154.848 57.7703 152.977 55.5156 152.977Z" fill="#F4F4F4"/>
    <path d="M47.3516 61.0234H55.5156C57.7703 61.0234 59.5977 59.1524 59.5977 56.8438V48.4844C59.5977 46.1758 57.7703 44.3047 55.5156 44.3047H47.3516C45.0969 44.3047 43.2695 46.1758 43.2695 48.4844V56.8438C43.2695 59.1524 45.0969 61.0234 47.3516 61.0234Z" fill="#F4F4F4"/>
    <path d="M153.484 61.0234H161.648C163.903 61.0234 165.73 59.1524 165.73 56.8438V48.4844C165.73 46.1758 163.903 44.3047 161.648 44.3047H153.484C151.23 44.3047 149.402 46.1758 149.402 48.4844V56.8438C149.402 59.1524 151.23 61.0234 153.484 61.0234Z" fill="#F4F4F4"/>
    <path d="M153.484 169.695H161.648C163.903 169.695 165.73 167.824 165.73 165.516V157.156C165.73 154.848 163.903 152.977 161.648 152.977H153.484C151.23 152.977 149.402 154.848 149.402 157.156V165.516C149.402 167.824 151.23 169.695 153.484 169.695Z" fill="#F4F4F4"/>
    <path d="M43.2695 115.359C43.2695 117.668 45.0969 119.539 47.3516 119.539H100.418V140.438C100.418 142.746 102.245 144.617 104.5 144.617C106.755 144.617 108.582 142.746 108.582 140.438V115.359C108.582 113.051 106.755 111.18 104.5 111.18H47.3516C45.0969 111.18 43.2695 113.051 43.2695 115.359Z" fill="#F4F4F4"/>
    <path d="M71.8438 102.82C74.0984 102.82 75.9258 100.949 75.9258 98.6406C75.9258 96.332 74.0984 94.4609 71.8438 94.4609H31.0234C28.7688 94.4609 26.9414 96.332 26.9414 98.6406C26.9414 100.949 28.7688 102.82 31.0234 102.82H71.8438Z" fill="#F4F4F4"/>
    <path d="M88.1719 102.82H104.5C106.755 102.82 108.582 100.949 108.582 98.6406C108.582 96.332 106.755 94.4609 104.5 94.4609H88.1719C85.9172 94.4609 84.0898 96.332 84.0898 98.6406C84.0898 100.949 85.9172 102.82 88.1719 102.82Z" fill="#F4F4F4"/>
    <path d="M88.1719 27.5859C85.9172 27.5859 84.0898 29.457 84.0898 31.7656V73.5625C84.0898 75.8711 85.9172 77.7422 88.1719 77.7422H116.746V98.6406C116.746 100.949 118.573 102.82 120.828 102.82H137.156C139.411 102.82 141.238 100.949 141.238 98.6406C141.238 96.332 139.411 94.4609 137.156 94.4609H124.91V73.5625C124.91 71.2539 123.083 69.3828 120.828 69.3828H92.2539V31.7656C92.2539 29.457 90.4266 27.5859 88.1719 27.5859Z" fill="#F4F4F4"/>
    <path d="M177.977 94.4609H153.484C151.23 94.4609 149.402 96.332 149.402 98.6406C149.402 100.949 151.23 102.82 153.484 102.82H177.977C180.231 102.82 182.059 100.949 182.059 98.6406C182.059 96.332 180.231 94.4609 177.977 94.4609Z" fill="#F4F4F4"/>
    <path d="M177.977 111.18H137.156C134.902 111.18 133.074 113.051 133.074 115.359C133.074 117.668 134.902 119.539 137.156 119.539H177.977C180.231 119.539 182.059 117.668 182.059 115.359C182.059 113.051 180.231 111.18 177.977 111.18Z" fill="#F4F4F4"/>
    <path d="M104.5 152.977H88.1719C85.9172 152.977 84.0898 154.848 84.0898 157.156V182.234C84.0898 184.543 85.9172 186.414 88.1719 186.414C90.4266 186.414 92.2539 184.543 92.2539 182.234V161.336H104.5C106.755 161.336 108.582 159.465 108.582 157.156C108.582 154.848 106.755 152.977 104.5 152.977Z" fill="#F4F4F4"/>
    <path d="M116.746 178.055H104.5C102.245 178.055 100.418 179.926 100.418 182.234C100.418 184.543 102.245 186.414 104.5 186.414H120.828C123.083 186.414 124.91 184.543 124.91 182.234V132.078C124.91 129.77 123.083 127.898 120.828 127.898C118.573 127.898 116.746 129.77 116.746 132.078V178.055Z" fill="#F4F4F4"/>
    <path d="M120.828 61.0234C123.083 61.0234 124.91 59.1524 124.91 56.8438V31.7656C124.91 29.457 123.083 27.5859 120.828 27.5859C118.573 27.5859 116.746 29.457 116.746 31.7656V52.6641H104.5C102.245 52.6641 100.418 54.5351 100.418 56.8438C100.418 59.1524 102.245 61.0234 104.5 61.0234H120.828Z" fill="#F4F4F4"/>
  </g>
  <defs>
    <clipPath id="clip0_3988_8860">
      <rect width="209" height="214" fill="white"/>
    </clipPath>
  </defs>
</svg>