<?xml version="1.0" encoding="UTF-8" standalone="no"?>
<!-- Created with Inkscape (http://www.inkscape.org/) -->

<svg
   version="1.1"
   id="svg4188"
   xml:space="preserve"
   width="682.66669"
   height="682.66669"
   viewBox="0 0 682.66669 682.66669"
   xmlns="http://www.w3.org/2000/svg"
   xmlns:svg="http://www.w3.org/2000/svg"><defs
     id="defs4192"><clipPath
       clipPathUnits="userSpaceOnUse"
       id="clipPath4202"><path
         d="M 0,512 H 512 V 0 H 0 Z"
         id="path4200" /></clipPath></defs><g
     id="g4194"
     transform="matrix(1.3333333,0,0,-1.3333333,0,682.66667)"><g
       id="g4196"><g
         id="g4198"
         clip-path="url(#clipPath4202)"><g
           id="g4204"
           transform="translate(474.9248,422.8804)"><path
             d="m 0,0 c -7.858,-9.266 -21.437,-11.9 -32.332,-5.61 -10.894,6.29 -15.402,19.367 -11.307,30.805 l -27.054,15.619 c -2.411,1.393 -5.494,0.566 -6.886,-1.844 l -106.543,-184.538 31.42,-18.14 c 7.858,9.266 21.437,11.9 32.331,5.61 10.895,-6.29 15.403,-19.367 11.308,-30.805 l 31.419,-18.14 106.543,184.538 c 1.392,2.411 0.566,5.493 -1.845,6.885 z"
             style="fill:#7393d8;fill-opacity:1;fill-rule:nonzero;stroke:none"
             id="path4206" /></g><g
           id="g4208"
           transform="translate(297.8325,289.4873)"><path
             d="m 0,0 v -16.233 l 24.39,-14.082 c 7.859,9.266 21.437,11.9 32.332,5.61 10.895,-6.29 15.403,-19.367 11.307,-30.805 l 1.434,-0.828 h 13.689 v 200.361 z"
             style="fill:#3d6fb7;fill-opacity:1;fill-rule:nonzero;stroke:none"
             id="path4210" /></g><g
           id="g4212"
           transform="translate(442.5933,417.2705)"><path
             d="m 0,0 c -10.895,6.29 -15.402,19.367 -11.307,30.805 l -27.054,15.619 c -2.411,1.392 -5.494,0.566 -6.886,-1.844 L -77.834,-11.863 28.644,-73.338 61.23,-16.896 c 1.393,2.412 0.566,5.494 -1.844,6.886 L 32.332,5.61 C 24.473,-3.656 10.895,-6.29 0,0"
             style="fill:#40c6c2;fill-opacity:1;fill-rule:nonzero;stroke:none"
             id="path4214" /></g><g
           id="g4216"
           transform="translate(380.9844,433.5107)"><path
             d="M 0,0 -16.225,-28.103 0,-37.471 Z"
             style="fill:#1f9b92;fill-opacity:1;fill-rule:nonzero;stroke:none"
             id="path4218" /></g><g
           id="g4220"
           transform="translate(474.9248,422.8804)"><path
             d="m 0,0 c -7.858,-9.266 -21.437,-11.9 -32.332,-5.61 -10.894,6.29 -15.402,19.367 -11.307,30.805 l -27.054,15.619 c -2.411,1.393 -5.494,0.566 -6.886,-1.844 l -106.543,-184.538 31.42,-18.14 c 7.858,9.266 21.437,11.9 32.331,5.61 10.895,-6.29 15.403,-19.367 11.308,-30.805 l 31.419,-18.14 106.543,184.538 c 1.392,2.411 0.566,5.493 -1.845,6.885 z"
             style="fill:none;stroke:#000000;stroke-width:15;stroke-linecap:round;stroke-linejoin:round;stroke-miterlimit:10;stroke-dasharray:none;stroke-opacity:1"
             id="path4222" /></g><g
           id="g4224"
           transform="translate(391.2427,390.1172)"><path
             d="M 0,0 1.817,-1.049"
             style="fill:none;stroke:#000000;stroke-width:15;stroke-linecap:round;stroke-linejoin:round;stroke-miterlimit:10;stroke-dasharray:none;stroke-opacity:1"
             id="path4226" /></g><g
           id="g4228"
           transform="translate(417.0894,375.1948)"><path
             d="M 0,0 1.817,-1.049"
             style="fill:none;stroke:#000000;stroke-width:15;stroke-linecap:round;stroke-linejoin:round;stroke-miterlimit:10;stroke-dasharray:none;stroke-opacity:1"
             id="path4230" /></g><g
           id="g4232"
           transform="translate(442.9355,360.2725)"><path
             d="M 0,0 1.818,-1.05"
             style="fill:none;stroke:#000000;stroke-width:15;stroke-linecap:round;stroke-linejoin:round;stroke-miterlimit:10;stroke-dasharray:none;stroke-opacity:1"
             id="path4234" /></g><g
           id="g4236"
           transform="translate(82.2231,200.584)"><path
             d="m 0,0 v -155.128 c 0,-8.351 6.77,-15.122 15.122,-15.122 h 16.364 c 8.351,0 15.122,6.771 15.122,15.122 L 46.608,0 c 0,8.352 -6.771,15.122 -15.122,15.122 H 15.122 C 6.77,15.122 0,8.352 0,0"
             style="fill:#c9c9c9;fill-opacity:1;fill-rule:nonzero;stroke:none"
             id="path4238" /></g><g
           id="g4240"
           transform="translate(82.2231,200.584)"><path
             d="m 0,0 v -155.128 c 0,-8.351 6.77,-15.122 15.122,-15.122 h 16.364 c 8.351,0 15.122,6.771 15.122,15.122 L 46.608,0 c 0,8.352 -6.771,15.122 -15.122,15.122 H 15.122 C 6.77,15.122 0,8.352 0,0 Z"
             style="fill:none;stroke:#000000;stroke-width:15;stroke-linecap:round;stroke-linejoin:round;stroke-miterlimit:10;stroke-dasharray:none;stroke-opacity:1"
             id="path4242" /></g><g
           id="g4244"
           transform="translate(321.2231,481.6655)"><path
             d="m 0,0 c -2.172,-11.953 -12.614,-21.024 -25.195,-21.024 -12.58,0 -23.022,9.071 -25.195,21.024 h -31.239 c -2.784,0 -5.04,-2.257 -5.04,-5.041 v -213.085 h 36.279 c 2.173,11.953 12.615,21.024 25.195,21.024 12.581,0 23.023,-9.071 25.195,-21.024 H 36.28 V -5.041 C 36.28,-2.257 34.023,0 31.24,0 Z"
             style="fill:#7393d8;fill-opacity:1;fill-rule:nonzero;stroke:none"
             id="path4246" /></g><g
           id="g4248"
           transform="translate(296.0283,460.6416)"><path
             d="m 0,0 c -12.58,0 -23.022,9.071 -25.195,21.024 h -31.239 c -2.784,0 -5.041,-2.257 -5.041,-5.041 v -65.174 h 122.95 v 65.174 c 0,2.784 -2.257,5.041 -5.04,5.041 H 25.195 C 23.022,9.071 12.581,0 0,0"
             style="fill:#40c6c2;fill-opacity:1;fill-rule:nonzero;stroke:none"
             id="path4250" /></g><g
           id="g4252"
           transform="translate(234.5537,418.3887)"><path
             d="m 0,0 v -154.85 h 36.28 c 2.173,11.954 12.615,21.025 25.195,21.025 12.58,0 23.022,-9.071 25.195,-21.025 h 36.28 V 58.236 c 0,2.784 -2.257,5.041 -5.041,5.041 H 86.669 C 84.497,51.324 74.055,42.253 61.475,42.253 c -12.58,0 -23.022,9.071 -25.195,21.024 H 5.041 C 2.257,63.277 0,61.02 0,58.236 V 30.244"
             style="fill:none;stroke:#000000;stroke-width:15;stroke-linecap:round;stroke-linejoin:round;stroke-miterlimit:10;stroke-dasharray:none;stroke-opacity:1"
             id="path4254" /></g><g
           id="g4256"
           transform="translate(265.1338,411.4507)"><path
             d="M 0,0 H 2.099"
             style="fill:none;stroke:#000000;stroke-width:15;stroke-linecap:round;stroke-linejoin:round;stroke-miterlimit:10;stroke-dasharray:none;stroke-opacity:1"
             id="path4258" /></g><g
           id="g4260"
           transform="translate(294.979,411.4507)"><path
             d="M 0,0 H 2.099"
             style="fill:none;stroke:#000000;stroke-width:15;stroke-linecap:round;stroke-linejoin:round;stroke-miterlimit:10;stroke-dasharray:none;stroke-opacity:1"
             id="path4262" /></g><g
           id="g4264"
           transform="translate(324.8242,411.4507)"><path
             d="M 0,0 H 2.099"
             style="fill:none;stroke:#000000;stroke-width:15;stroke-linecap:round;stroke-linejoin:round;stroke-miterlimit:10;stroke-dasharray:none;stroke-opacity:1"
             id="path4266" /></g><g
           id="g4268"
           transform="translate(442.2944,296.5405)"><path
             d="m 0,0 h -208.384 v 66.673 h -17.641 c -11.771,0 -22.642,-6.3 -28.494,-16.515 l -48.483,-84.638 h -131.792 v -175.757 h 162.998 v -0.001 c 0,-15.211 12.331,-27.542 27.542,-27.542 h 39.227 100.223 45.064 c 16.196,0 29.886,12.698 30.329,28.888 0.461,16.797 -13.018,30.557 -29.711,30.557 h 19.241 c 16.195,0 29.885,12.698 30.329,28.888 0.46,16.797 -13.019,30.557 -29.711,30.557 h 19.24 c 16.195,0 29.885,12.698 30.329,28.887 0.461,16.797 -13.018,30.558 -29.711,30.558 H 0.618 c 16.693,0 30.171,13.76 29.711,30.557 C 29.886,-12.699 16.196,0 0,0"
             style="fill:#ffc999;fill-opacity:1;fill-rule:nonzero;stroke:none"
             id="path4270" /></g><path
           d="m 94.28,86.303 h 34.433 V 262.061 H 94.28 Z"
           style="fill:#e89c5d;fill-opacity:1;fill-rule:nonzero;stroke:none"
           id="path4272" /><g
           id="g4274"
           transform="translate(382.5547,90.1802)"><path
             d="m 0,0 h -45.064 -100.224 -39.226 c -13.784,0 -25.204,10.126 -27.225,23.346 -0.372,2.438 -2.545,4.196 -5.011,4.196 H -375.055 V -3.877 h 162.999 c 0,-15.211 12.331,-27.542 27.542,-27.542 h 39.226 100.224 45.056 c 16.017,0 29.635,12.415 30.32,28.417 0.271,6.297 -1.427,12.18 -4.519,17.098 C 20.392,5.599 10.75,0 0,0"
             style="fill:#e89c5d;fill-opacity:1;fill-rule:nonzero;stroke:none"
             id="path4276" /></g><g
           id="g4278"
           transform="translate(7.5,86.3032)"><path
             d="m 0,0 h 162.999 v 0 c 0,-15.211 12.331,-27.542 27.542,-27.542 h 15.557 m 30.243,0 h 93.649 45.065 c 16.195,0 29.885,12.698 30.329,28.887 0.46,16.797 -13.018,30.557 -29.711,30.557 h 19.24 c 16.196,0 29.886,12.699 30.329,28.888 0.461,16.797 -13.018,30.557 -29.711,30.557 h 19.24 c 16.196,0 29.886,12.698 30.33,28.887 0.46,16.797 -13.018,30.558 -29.711,30.558 h 20.023 c 16.692,0 30.17,13.761 29.711,30.557 -0.444,16.19 -14.134,28.888 -30.33,28.888 h -19.367 m -29.992,0 H 226.41 v 66.674 h -17.641 c -11.771,0 -22.642,-6.301 -28.493,-16.515 L 131.792,175.757 H 0"
             style="fill:none;stroke:#000000;stroke-width:15;stroke-linecap:round;stroke-linejoin:round;stroke-miterlimit:10;stroke-dasharray:none;stroke-opacity:1"
             id="path4280" /></g><g
           id="g4282"
           transform="translate(58.9189,264.1528)"><path
             d="m 0,0 v -179.942 c 0,-8.351 6.771,-15.121 15.122,-15.121 h 16.364 c 8.352,0 15.122,6.77 15.122,15.121 L 46.608,0 c 0,8.352 -6.77,15.122 -15.122,15.122 H 15.122 C 6.771,15.122 0,8.352 0,0"
             style="fill:#7393d8;fill-opacity:1;fill-rule:nonzero;stroke:none"
             id="path4284" /></g><g
           id="g4286"
           transform="translate(90.4053,279.2744)"><path
             d="m 0,0 h -16.364 c -8.352,0 -15.122,-6.77 -15.122,-15.122 v -53.165 h 46.608 v 53.165 C 15.122,-6.77 8.352,0 0,0"
             style="fill:#ededed;fill-opacity:1;fill-rule:nonzero;stroke:none"
             id="path4288" /></g><g
           id="g4290"
           transform="translate(90.4053,279.2744)"><path
             d="m 0,0 h -16.364 c -8.352,0 -15.122,-6.77 -15.122,-15.122 v -53.165 h 46.608 v 53.165 C 15.122,-6.77 8.352,0 0,0 Z"
             style="fill:none;stroke:#000000;stroke-width:15;stroke-linecap:round;stroke-linejoin:round;stroke-miterlimit:10;stroke-dasharray:none;stroke-opacity:1"
             id="path4292" /></g><g
           id="g4294"
           transform="translate(58.9189,264.1528)"><path
             d="m 0,0 v -179.942 c 0,-8.351 6.771,-15.121 15.122,-15.121 h 16.364 c 8.352,0 15.122,6.77 15.122,15.121 L 46.608,0 c 0,8.352 -6.77,15.122 -15.122,15.122 H 15.122 C 6.771,15.122 0,8.352 0,0 Z"
             style="fill:none;stroke:#000000;stroke-width:15;stroke-linecap:round;stroke-linejoin:round;stroke-miterlimit:10;stroke-dasharray:none;stroke-opacity:1"
             id="path4296" /></g><g
           id="g4298"
           transform="translate(82.2231,182.6411)"><path
             d="M 0,0 V -1.008"
             style="fill:none;stroke:#000000;stroke-width:15;stroke-linecap:round;stroke-linejoin:round;stroke-miterlimit:10;stroke-dasharray:none;stroke-opacity:1"
             id="path4300" /></g><g
           id="g4302"
           transform="translate(82.2231,150.8203)"><path
             d="M 0,0 V -1.008"
             style="fill:none;stroke:#000000;stroke-width:15;stroke-linecap:round;stroke-linejoin:round;stroke-miterlimit:10;stroke-dasharray:none;stroke-opacity:1"
             id="path4304" /></g><g
           id="g4306"
           transform="translate(82.2231,118.999)"><path
             d="M 0,0 V -1.008"
             style="fill:none;stroke:#000000;stroke-width:15;stroke-linecap:round;stroke-linejoin:round;stroke-miterlimit:10;stroke-dasharray:none;stroke-opacity:1"
             id="path4308" /></g><g
           id="g4310"
           transform="translate(383.1729,118.2056)"><path
             d="M 0,0 H -18.242"
             style="fill:none;stroke:#000000;stroke-width:15;stroke-linecap:round;stroke-linejoin:round;stroke-miterlimit:10;stroke-dasharray:none;stroke-opacity:1"
             id="path4312" /></g><g
           id="g4314"
           transform="translate(403.0312,177.6504)"><path
             d="M 0,0 H -21.875"
             style="fill:none;stroke:#000000;stroke-width:15;stroke-linecap:round;stroke-linejoin:round;stroke-miterlimit:10;stroke-dasharray:none;stroke-opacity:1"
             id="path4316" /></g><g
           id="g4318"
           transform="translate(422.8896,237.0957)"><path
             d="M 0,0 H -29.788"
             style="fill:none;stroke:#000000;stroke-width:15;stroke-linecap:round;stroke-linejoin:round;stroke-miterlimit:10;stroke-dasharray:none;stroke-opacity:1"
             id="path4320" /></g></g></g></g></svg>
