<svg width="24" height="25" viewBox="0 0 24 25" fill="none" xmlns="http://www.w3.org/2000/svg">
<g id="Group">
<path id="Vector" d="M8.86056 9.59871C1.05232 9.59871 1.62917 9.59707 1.50893 9.60173C1.57957 9.33203 1.71994 9.07693 1.93096 8.86591L4.07171 6.72516C4.5343 6.26252 5.24451 6.12803 5.83914 6.39067C6.15844 6.53175 6.53891 6.46055 6.78587 6.21358C7.03284 5.96667 7.10399 5.58619 6.963 5.2669C6.70037 4.67241 6.83477 3.9621 7.2975 3.49942L9.4382 1.35867C10.0727 0.724218 11.1051 0.724171 11.7397 1.35867L14.418 4.03697C13.6632 4.79236 9.61336 8.8453 8.86056 9.59871Z" fill="#2897F3"/>
<path id="Vector_2" d="M15.4161 5.03516L19.9795 9.59859H10.857C10.8735 9.58203 11.2226 9.23252 15.4161 5.03516Z" fill="#DFDDFB"/>
<path id="Vector_3" d="M1.01301 17.1509C0.406942 16.9163 -0.000258923 16.3189 -0.000258923 15.6646V12.6372C-0.000258923 11.7398 0.729812 11.0098 1.62713 11.0098H4.94092V24.8813H1.62713C0.729812 24.8813 -0.000258923 24.1513 -0.000258923 23.254V20.2265C-0.000258923 19.5723 0.406894 18.9749 1.01296 18.7402C1.33852 18.6141 1.55725 18.2948 1.55725 17.9455C1.55725 17.5963 1.33852 17.277 1.01301 17.1509Z" fill="#2897F3"/>
<path id="Vector_4" d="M24 12.6372V15.6646C24 16.3189 23.5928 16.9163 22.9868 17.1508C22.6612 17.277 22.4425 17.5963 22.4425 17.9455C22.4425 18.2948 22.6613 18.6141 22.9868 18.7402C23.5928 18.9749 24 19.5722 24 20.2265V23.254C24 24.1513 23.2699 24.8813 22.3726 24.8813H6.35294V11.0098H22.3726C23.2699 11.0098 24 11.7398 24 12.6372ZM19.0588 14.2931H8.47059V15.7049H19.0588V14.2931ZM19.0588 17.1166H8.47059V18.5284H19.0588V17.1166ZM19.0588 19.9402H8.47059V21.3519H19.0588V19.9402Z" fill="#DFDDFB"/>
</g>
</svg>
