<svg width="22" height="23" viewBox="0 0 22 23" fill="none" xmlns="http://www.w3.org/2000/svg">
<path d="M17.9576 6.63266C17.0439 6.43172 16.2172 5.94648 15.5964 5.24656C14.9755 4.54665 14.5923 3.66804 14.5018 2.73683V2.3335H11.3393V14.8643C11.3399 15.4203 11.1656 15.9625 10.841 16.4139C10.5164 16.8653 10.0581 17.2032 9.53077 17.3796C9.00349 17.5561 8.43407 17.5621 7.90315 17.397C7.37224 17.2318 6.90675 16.9038 6.57263 16.4593C6.27329 16.0659 6.09 15.5966 6.04347 15.1045C5.99694 14.6124 6.08904 14.117 6.30935 13.6745C6.52966 13.232 6.86939 12.8599 7.29012 12.6004C7.71085 12.3409 8.1958 12.2043 8.69013 12.206C8.96352 12.2044 9.23554 12.2446 9.4968 12.3252V9.11683C9.19277 9.07918 8.8864 9.06386 8.58013 9.071C7.452 9.10114 6.35714 9.4596 5.42963 10.1025C4.50211 10.7454 3.7822 11.6448 3.35804 12.6906C2.93389 13.7364 2.8239 14.8832 3.04156 15.9905C3.25921 17.0979 3.79505 18.1177 4.58347 18.9252C5.39149 19.7467 6.4255 20.3095 7.5541 20.542C8.6827 20.7745 9.85495 20.6663 10.9219 20.231C11.9889 19.7958 12.9023 19.0532 13.5463 18.0976C14.1902 17.1421 14.5356 16.0166 14.5385 14.8643V8.44766C15.814 9.35878 17.3435 9.84617 18.911 9.841V6.72433C18.6031 6.7256 18.2959 6.69488 17.9943 6.63266H17.9576Z" fill="#F4F4F4"/>
</svg>
