<svg width="31" height="31" viewBox="0 0 31 31" fill="none" xmlns="http://www.w3.org/2000/svg">
<g filter="url(#filter0_di_2037_1240)">
<path d="M24.2523 9.875L26.5001 7.625L19.7527 0.5L10.4602 9.875" fill="#C5C5C5"/>
</g>
<path d="M17.0911 10.1299L22.1072 5.11372L22.6377 5.64423L17.6216 10.6604L17.0911 10.1299Z" fill="#8B8E92"/>
<path d="M20.9829 8.48926L23.2325 6.23967L23.763 6.77019L21.5134 9.01977L20.9829 8.48926Z" fill="#8B8E92"/>
<path d="M14.1439 7.73497L13.0834 8.79547C12.9367 8.94209 12.9367 9.17909 13.0834 9.32572L14.6741 10.9165C14.8207 11.0631 15.0577 11.0631 15.2044 10.9165L16.2649 9.85597C16.4115 9.70934 16.4115 9.47234 16.2649 9.32572L15.7346 8.79547L15.2044 9.32572L15.4695 9.59084L14.9392 10.1211L13.8787 9.06059L14.409 8.53034L14.6741 8.79547L15.2044 8.26522L14.6741 7.73497C14.5279 7.58834 14.2905 7.58834 14.1439 7.73497Z" fill="#8B8E92"/>
<path d="M19.7121 3.22689L20.2424 2.69627L19.7117 2.16602L18.1206 3.75714L18.6512 4.28739L19.1815 3.75752L20.7726 5.34827L21.3032 4.81764L19.7121 3.22689Z" fill="#8B8E92"/>
<path d="M17.3256 6.82903H16.7852L16.8857 6.52753C16.9307 6.39291 16.8955 6.24403 16.7953 6.14391L16.2651 5.61328L15.7345 6.14353L16.1012 6.51028L15.8357 7.30566L15.2042 6.67416L14.6736 7.20478L16.795 9.32616L17.3256 8.79553L16.4286 7.89853L16.5351 7.57941H17.17L17.8555 8.26528L18.3861 7.73503L17.5907 6.93928C17.5206 6.86841 17.425 6.82903 17.3256 6.82903Z" fill="#8B8E92"/>
<path d="M18.6512 6.40836L18.3861 6.14323L19.1815 5.34786L18.6509 4.81723L17.8555 5.61261L17.5907 5.34748L18.3861 4.55211L17.8555 4.02148L16.795 5.08236C16.6487 5.22898 16.6487 5.46636 16.795 5.61298L18.3857 7.20411C18.4589 7.27723 18.5549 7.31361 18.6509 7.31361C18.7472 7.31361 18.8432 7.27723 18.9164 7.20411L19.9772 6.14323L19.4466 5.61261L18.6512 6.40836Z" fill="#8B8E92"/>
<g filter="url(#filter1_di_2037_1240)">
<path d="M10.75 19.625H26.5V9.875H10.75C10.75 10.2541 10.5265 10.5834 10.1965 10.7705C9.85525 10.9636 9.625 11.33 9.625 11.75C9.625 12.2679 9.97487 12.704 10.4507 12.8349C10.6221 12.8818 10.75 13.0235 10.75 13.2012V13.2988C10.75 13.4765 10.6221 13.6179 10.4507 13.6651C9.97487 13.796 9.625 14.2321 9.625 14.75C9.625 15.2679 9.97487 15.704 10.4507 15.8349C10.6221 15.8818 10.75 16.0235 10.75 16.2012V16.2988C10.75 16.4765 10.6221 16.6179 10.4507 16.6651C9.97487 16.796 9.625 17.2321 9.625 17.75C9.625 18.17 9.85525 18.5364 10.1965 18.7295C10.5265 18.9166 10.75 19.2459 10.75 19.625Z" fill="#C5C5C5"/>
</g>
<g filter="url(#filter2_di_2037_1240)">
<path d="M14.5113 19.625L11.1363 23C10.8681 22.7319 10.7931 22.3411 10.8944 21.9755C10.999 21.5975 10.903 21.1756 10.6056 20.8786C10.2396 20.5126 9.6839 20.4515 9.25452 20.6956C9.10002 20.7834 8.90952 20.7736 8.7839 20.648L8.7149 20.579C8.58927 20.4534 8.57952 20.2629 8.66727 20.1084C8.75277 19.9584 8.80077 19.7926 8.81127 19.625" fill="#8B8E92"/>
</g>
<g filter="url(#filter3_di_2037_1240)">
<path d="M4 19.625C4 19.2459 4.2235 18.9166 4.5535 18.7295C4.89475 18.5364 5.125 18.17 5.125 17.75C5.125 17.2321 4.77513 16.796 4.29925 16.6651C4.12788 16.6182 4 16.4765 4 16.2988V16.2012C4 16.0235 4.12788 15.8821 4.29925 15.8349C4.77513 15.704 5.125 15.2679 5.125 14.75C5.125 14.2321 4.77513 13.796 4.29925 13.6651C4.12788 13.6182 4 13.4765 4 13.2988V13.2012C4 13.0235 4.12788 12.8821 4.29925 12.8349C4.77513 12.704 5.125 12.2679 5.125 11.75C5.125 11.33 4.89475 10.9636 4.5535 10.7705C4.2235 10.5834 4 10.2541 4 9.875H10.75C10.75 10.2541 10.5265 10.5834 10.1965 10.7705C9.85525 10.9636 9.625 11.33 9.625 11.75C9.625 12.2679 9.97487 12.704 10.4507 12.8349C10.6221 12.8818 10.75 13.0235 10.75 13.2012V13.2988C10.75 13.4765 10.6221 13.6179 10.4507 13.6651C9.97487 13.796 9.625 14.2321 9.625 14.75C9.625 15.2679 9.97487 15.704 10.4507 15.8349C10.6221 15.8818 10.75 16.0235 10.75 16.2012V16.2988C10.75 16.4765 10.6221 16.6179 10.4507 16.6651C9.97487 16.796 9.625 17.2321 9.625 17.75C9.625 18.17 9.85525 18.5364 10.1965 18.7295C10.5265 18.9166 10.75 19.2459 10.75 19.625H4Z" fill="#8B8E92"/>
</g>
<path d="M6.24951 11.375H8.49914V12.125H6.24951V11.375Z" fill="#8B8E92"/>
<path d="M6.24951 12.875H8.49914V13.625H6.24951V12.875Z" fill="#8B8E92"/>
<path d="M6.24951 14.375H8.49914V15.125H6.24951V14.375Z" fill="#8B8E92"/>
<path d="M6.24951 15.875H8.49914V16.625H6.24951V15.875Z" fill="#8B8E92"/>
<path d="M6.24951 17.375H8.49914V18.125H6.24951V17.375Z" fill="#8B8E92"/>
<path d="M11.8745 11.7496H12.6245V13.9996H13.3741V11.7496H14.1241V11H11.8745V11.7496Z" fill="#8B8E92"/>
<path d="M25.3746 11H23.125V11.7496H23.875V13.9996H24.6246V11.7496H25.3746V11Z" fill="#8B8E92"/>
<path d="M14.4995 11H15.2491V14H14.4995V11Z" fill="#8B8E92"/>
<path d="M17.4991 11H15.9995C15.7921 11 15.6245 11.1676 15.6245 11.375V13.625C15.6245 13.8324 15.7921 14 15.9995 14H17.4991C17.7065 14 17.8741 13.8324 17.8741 13.625V12.875H17.1241V13.25H16.3745V11.75H17.1241V12.125H17.8741V11.375C17.8741 11.1676 17.7065 11 17.4991 11Z" fill="#8B8E92"/>
<path d="M19.7491 11.5179L18.9991 11.8929V11H18.2495V14H18.9991V12.7318L19.3003 12.5814L19.7495 13.0306V14H20.4991V12.875C20.4991 12.7752 20.4601 12.68 20.3896 12.6095L20.0075 12.2274L20.2918 12.0853C20.4189 12.0219 20.4991 11.8917 20.4991 11.75V11H19.7491V11.5179Z" fill="#8B8E92"/>
<path d="M20.8745 11.375V13.625C20.8745 13.8324 21.0421 14 21.2495 14H22.7491V13.25H21.6245V12.875H22.7491V12.125H21.6245V11.75H22.7491V11H21.2495C21.0421 11 20.8745 11.1676 20.8745 11.375Z" fill="#8B8E92"/>
<path d="M11.8745 14.75H25.3741V15.5H11.8745V14.75Z" fill="#8B8E92"/>
<path d="M20.1245 16.25H25.3741V17H20.1245V16.25Z" fill="#8B8E92"/>
<path d="M12.25 16.625H18.25V18.125H12.25V16.625Z" fill="#8B8E92"/>
<path d="M12.25 16.625V18.125H16.2655C16.7432 17.7256 17.1205 17.2115 17.3579 16.625H12.25Z" fill="#8B8E92"/>
<defs>
<filter id="filter0_di_2037_1240" x="6.46021" y="0.5" width="24.0398" height="17.375" filterUnits="userSpaceOnUse" color-interpolation-filters="sRGB">
<feFlood flood-opacity="0" result="BackgroundImageFix"/>
<feColorMatrix in="SourceAlpha" type="matrix" values="0 0 0 0 0 0 0 0 0 0 0 0 0 0 0 0 0 0 127 0" result="hardAlpha"/>
<feOffset dy="4"/>
<feGaussianBlur stdDeviation="2"/>
<feComposite in2="hardAlpha" operator="out"/>
<feColorMatrix type="matrix" values="0 0 0 0 0 0 0 0 0 0 0 0 0 0 0 0 0 0 0.25 0"/>
<feBlend mode="normal" in2="BackgroundImageFix" result="effect1_dropShadow_2037_1240"/>
<feBlend mode="normal" in="SourceGraphic" in2="effect1_dropShadow_2037_1240" result="shape"/>
<feColorMatrix in="SourceAlpha" type="matrix" values="0 0 0 0 0 0 0 0 0 0 0 0 0 0 0 0 0 0 127 0" result="hardAlpha"/>
<feOffset dx="-2" dy="1"/>
<feGaussianBlur stdDeviation="1.5"/>
<feComposite in2="hardAlpha" operator="arithmetic" k2="-1" k3="1"/>
<feColorMatrix type="matrix" values="0 0 0 0 0 0 0 0 0 0 0 0 0 0 0 0 0 0 0.4 0"/>
<feBlend mode="normal" in2="shape" result="effect2_innerShadow_2037_1240"/>
</filter>
<filter id="filter1_di_2037_1240" x="5.625" y="9.875" width="24.875" height="17.75" filterUnits="userSpaceOnUse" color-interpolation-filters="sRGB">
<feFlood flood-opacity="0" result="BackgroundImageFix"/>
<feColorMatrix in="SourceAlpha" type="matrix" values="0 0 0 0 0 0 0 0 0 0 0 0 0 0 0 0 0 0 127 0" result="hardAlpha"/>
<feOffset dy="4"/>
<feGaussianBlur stdDeviation="2"/>
<feComposite in2="hardAlpha" operator="out"/>
<feColorMatrix type="matrix" values="0 0 0 0 0 0 0 0 0 0 0 0 0 0 0 0 0 0 0.25 0"/>
<feBlend mode="normal" in2="BackgroundImageFix" result="effect1_dropShadow_2037_1240"/>
<feBlend mode="normal" in="SourceGraphic" in2="effect1_dropShadow_2037_1240" result="shape"/>
<feColorMatrix in="SourceAlpha" type="matrix" values="0 0 0 0 0 0 0 0 0 0 0 0 0 0 0 0 0 0 127 0" result="hardAlpha"/>
<feOffset dx="-2" dy="1"/>
<feGaussianBlur stdDeviation="1.5"/>
<feComposite in2="hardAlpha" operator="arithmetic" k2="-1" k3="1"/>
<feColorMatrix type="matrix" values="0 0 0 0 0 0 0 0 0 0 0 0 0 0 0 0 0 0 0.4 0"/>
<feBlend mode="normal" in2="shape" result="effect2_innerShadow_2037_1240"/>
</filter>
<filter id="filter2_di_2037_1240" x="4.60962" y="19.625" width="13.9016" height="11.375" filterUnits="userSpaceOnUse" color-interpolation-filters="sRGB">
<feFlood flood-opacity="0" result="BackgroundImageFix"/>
<feColorMatrix in="SourceAlpha" type="matrix" values="0 0 0 0 0 0 0 0 0 0 0 0 0 0 0 0 0 0 127 0" result="hardAlpha"/>
<feOffset dy="4"/>
<feGaussianBlur stdDeviation="2"/>
<feComposite in2="hardAlpha" operator="out"/>
<feColorMatrix type="matrix" values="0 0 0 0 0 0 0 0 0 0 0 0 0 0 0 0 0 0 0.25 0"/>
<feBlend mode="normal" in2="BackgroundImageFix" result="effect1_dropShadow_2037_1240"/>
<feBlend mode="normal" in="SourceGraphic" in2="effect1_dropShadow_2037_1240" result="shape"/>
<feColorMatrix in="SourceAlpha" type="matrix" values="0 0 0 0 0 0 0 0 0 0 0 0 0 0 0 0 0 0 127 0" result="hardAlpha"/>
<feOffset dx="-2" dy="1"/>
<feGaussianBlur stdDeviation="1.5"/>
<feComposite in2="hardAlpha" operator="arithmetic" k2="-1" k3="1"/>
<feColorMatrix type="matrix" values="0 0 0 0 0 0 0 0 0 0 0 0 0 0 0 0 0 0 0.4 0"/>
<feBlend mode="normal" in2="shape" result="effect2_innerShadow_2037_1240"/>
</filter>
<filter id="filter3_di_2037_1240" x="0" y="9.875" width="14.75" height="17.75" filterUnits="userSpaceOnUse" color-interpolation-filters="sRGB">
<feFlood flood-opacity="0" result="BackgroundImageFix"/>
<feColorMatrix in="SourceAlpha" type="matrix" values="0 0 0 0 0 0 0 0 0 0 0 0 0 0 0 0 0 0 127 0" result="hardAlpha"/>
<feOffset dy="4"/>
<feGaussianBlur stdDeviation="2"/>
<feComposite in2="hardAlpha" operator="out"/>
<feColorMatrix type="matrix" values="0 0 0 0 0 0 0 0 0 0 0 0 0 0 0 0 0 0 0.25 0"/>
<feBlend mode="normal" in2="BackgroundImageFix" result="effect1_dropShadow_2037_1240"/>
<feBlend mode="normal" in="SourceGraphic" in2="effect1_dropShadow_2037_1240" result="shape"/>
<feColorMatrix in="SourceAlpha" type="matrix" values="0 0 0 0 0 0 0 0 0 0 0 0 0 0 0 0 0 0 127 0" result="hardAlpha"/>
<feOffset dx="-2" dy="1"/>
<feGaussianBlur stdDeviation="1.5"/>
<feComposite in2="hardAlpha" operator="arithmetic" k2="-1" k3="1"/>
<feColorMatrix type="matrix" values="0 0 0 0 0 0 0 0 0 0 0 0 0 0 0 0 0 0 0.4 0"/>
<feBlend mode="normal" in2="shape" result="effect2_innerShadow_2037_1240"/>
</filter>
</defs>
</svg>
